<svg width="117" height="104" viewBox="0 0 117 104" version="1.1" xmlns="http://www.w3.org/2000/svg" xmlns:xlink="http://www.w3.org/1999/xlink">
<title>arrow</title>
<desc>Created using Figma</desc>
<g id="Canvas" transform="translate(-37532 -4444)">
<g id="arrow">
<g id="Group">
<g id="Group">
<g id="Group">
<g id="Group">
<g id="Group">
<g id="Vector">
<use xlink:href="#path0_fill" transform="translate(37575.8 4467.24)" fill="#CBA646"/>
</g>
</g>
</g>
</g>
<g id="Group">
<g id="Group">
<g id="Group">
<g id="Vector">
<use xlink:href="#path1_fill" transform="translate(37604.8 4467.7)" fill="#CBA646"/>
</g>
</g>
</g>
</g>
<g id="Group">
<g id="Group">
<g id="Group">
<g id="Vector">
<use xlink:href="#path2_fill" transform="translate(37538.2 4495.15)" fill="#CBA646"/>
</g>
</g>
</g>
</g>
<g id="Group">
<g id="Group">
<g id="Group">
<g id="Vector">
<use xlink:href="#path3_fill" transform="translate(37596.7 4543.04)" fill="#CBA646"/>
</g>
</g>
</g>
</g>
<g id="Group">
<g id="Group">
<g id="Group">
<g id="Vector">
<use xlink:href="#path4_fill" transform="translate(37589 4460.98)" fill="#CBA646"/>
</g>
</g>
</g>
</g>
<g id="Group">
<g id="Group">
<g id="Group">
<g id="Vector">
<use xlink:href="#path5_fill" transform="translate(37588 4450.66)" fill="#CBA646"/>
</g>
</g>
</g>
</g>
<g id="Group">
<g id="Group">
<g id="Group">
<g id="Vector">
<use xlink:href="#path6_fill" transform="translate(37587.6 4444.54)" fill="#CBA646"/>
</g>
</g>
</g>
</g>
<g id="Group">
<g id="Group">
<g id="Group">
<g id="Vector">
<use xlink:href="#path7_fill" transform="translate(37560.4 4473.28)" fill="#CBA646"/>
</g>
</g>
</g>
</g>
<g id="Group">
<g id="Group">
<g id="Group">
<g id="Vector">
<use xlink:href="#path8_fill" transform="translate(37596.3 4460.07)" fill="#CBA646"/>
</g>
</g>
</g>
</g>
<g id="Group">
<g id="Group">
<g id="Group">
<g id="Vector">
<use xlink:href="#path9_fill" transform="translate(37599.2 4455.98)" fill="#CBA646"/>
</g>
</g>
</g>
</g>
<g id="Group">
<g id="Group">
<g id="Group">
<g id="Vector">
<use xlink:href="#path10_fill" transform="translate(37560.9 4485.02)" fill="#CBA646"/>
</g>
</g>
</g>
</g>
<g id="Group">
<g id="Group">
<g id="Group">
<g id="Vector">
<use xlink:href="#path11_fill" transform="translate(37538.3 4508.49)" fill="#CBA646"/>
</g>
</g>
</g>
</g>
<g id="Group">
<g id="Group">
<g id="Group">
<g id="Vector">
<use xlink:href="#path12_fill" transform="translate(37610.8 4470.25)" fill="#CBA646"/>
</g>
</g>
</g>
</g>
<g id="Group">
<g id="Group">
<g id="Group">
<g id="Vector">
<use xlink:href="#path13_fill" transform="translate(37581.3 4462.45)" fill="#CBA646"/>
</g>
</g>
</g>
</g>
<g id="Group">
<g id="Group">
<g id="Group">
<g id="Vector">
<use xlink:href="#path14_fill" transform="translate(37578.9 4454.94)" fill="#CBA646"/>
</g>
</g>
</g>
</g>
<g id="Group">
<g id="Group">
<g id="Group">
<g id="Vector">
<use xlink:href="#path15_fill" transform="translate(37565 4466.76)" fill="#CBA646"/>
</g>
</g>
</g>
</g>
<g id="Group">
<g id="Group">
<g id="Group">
<g id="Vector">
<use xlink:href="#path16_fill" transform="translate(37598.6 4465.75)" fill="#CBA646"/>
</g>
</g>
</g>
</g>
<g id="Group">
<g id="Group">
<g id="Group">
<g id="Vector">
<use xlink:href="#path17_fill" transform="translate(37603.3 4456.63)" fill="#CBA646"/>
</g>
</g>
</g>
</g>
<g id="Group">
<g id="Group">
<g id="Group">
<g id="Vector">
<use xlink:href="#path18_fill" transform="translate(37594.9 4444)" fill="#CBA646"/>
</g>
</g>
</g>
</g>
<g id="Group">
<g id="Group">
<g id="Group">
<g id="Vector">
<use xlink:href="#path19_fill" transform="translate(37593.9 4451.36)" fill="#CBA646"/>
</g>
</g>
</g>
</g>
<g id="Group">
<g id="Group">
<g id="Group">
<g id="Vector">
<use xlink:href="#path20_fill" transform="translate(37593.1 4465.83)" fill="#CBA646"/>
</g>
</g>
</g>
</g>
<g id="Group">
<g id="Group">
<g id="Group">
<g id="Vector">
<use xlink:href="#path21_fill" transform="translate(37617.5 4473.73)" fill="#CBA646"/>
</g>
</g>
</g>
</g>
<g id="Group">
<g id="Group">
<g id="Group">
<g id="Vector">
<use xlink:href="#path22_fill" transform="translate(37532 4501.09)" fill="#CBA646"/>
</g>
</g>
</g>
</g>
<g id="Group">
<g id="Group">
<g id="Group">
<g id="Vector">
<use xlink:href="#path23_fill" transform="translate(37626.7 4488.74)" fill="#CBA646"/>
</g>
</g>
</g>
</g>
<g id="Group">
<g id="Group">
<g id="Group">
<g id="Vector">
<use xlink:href="#path24_fill" transform="translate(37629.7 4500.2)" fill="#CBA646"/>
</g>
</g>
</g>
</g>
<g id="Group">
<g id="Group">
<g id="Group">
<g id="Vector">
<use xlink:href="#path25_fill" transform="translate(37612.8 4528.94)" fill="#CBA646"/>
</g>
</g>
</g>
</g>
<g id="Group">
<g id="Group">
<g id="Group">
<g id="Vector">
<use xlink:href="#path26_fill" transform="translate(37605.2 4516.04)" fill="#CBA646"/>
</g>
</g>
</g>
</g>
<g id="Group">
<g id="Group">
<g id="Group">
<g id="Vector">
<use xlink:href="#path27_fill" transform="translate(37567.4 4452.74)" fill="#CBA646"/>
</g>
</g>
</g>
</g>
<g id="Group">
<g id="Group">
<g id="Group">
<g id="Vector">
<use xlink:href="#path28_fill" transform="translate(37558 4535.21)" fill="#CBA646"/>
</g>
</g>
</g>
</g>
<g id="Group">
<g id="Group">
<g id="Group">
<g id="Vector">
<use xlink:href="#path29_fill" transform="translate(37564.4 4520.57)" fill="#CBA646"/>
</g>
</g>
</g>
</g>
<g id="Group">
<g id="Group">
<g id="Group">
<g id="Vector">
<use xlink:href="#path30_fill" transform="translate(37610.6 4457.23)" fill="#CBA646"/>
</g>
</g>
</g>
</g>
<g id="Group">
<g id="Group">
<g id="Group">
<g id="Vector">
<use xlink:href="#path31_fill" transform="translate(37623 4451.9)" fill="#CBA646"/>
</g>
</g>
</g>
</g>
<g id="Group">
<g id="Group">
<g id="Group">
<g id="Vector">
<use xlink:href="#path32_fill" transform="translate(37618.7 4493.59)" fill="#CBA646"/>
</g>
</g>
</g>
</g>
<g id="Group">
<g id="Group">
<g id="Group">
<g id="Vector">
<use xlink:href="#path33_fill" transform="translate(37595.4 4529.92)" fill="#CBA646"/>
</g>
</g>
</g>
</g>
<g id="Group">
<g id="Group">
<g id="Group">
<g id="Vector">
<use xlink:href="#path34_fill" transform="translate(37594.9 4523.3)" fill="#CBA646"/>
</g>
</g>
</g>
</g>
<g id="Group">
<g id="Group">
<g id="Group">
<g id="Vector">
<use xlink:href="#path35_fill" transform="translate(37625.9 4517.42)" fill="#CBA646"/>
</g>
</g>
</g>
</g>
<g id="Group">
<g id="Group">
<g id="Group">
<g id="Vector">
<use xlink:href="#path36_fill" transform="translate(37545 4515.84)" fill="#CBA646"/>
</g>
</g>
</g>
</g>
<g id="Group">
<g id="Group">
<g id="Group">
<g id="Vector">
<use xlink:href="#path37_fill" transform="translate(37582.5 4524.38)" fill="#CBA646"/>
</g>
</g>
</g>
</g>
<g id="Group">
<g id="Group">
<g id="Group">
<g id="Vector">
<use xlink:href="#path38_fill" transform="translate(37543.3 4479.74)" fill="#CBA646"/>
</g>
</g>
</g>
</g>
<g id="Group">
<g id="Group">
<g id="Group">
<g id="Vector">
<use xlink:href="#path39_fill" transform="translate(37633.4 4509.07)" fill="#CBA646"/>
</g>
</g>
</g>
</g>
<g id="Group">
<g id="Group">
<g id="Group">
<g id="Vector">
<use xlink:href="#path40_fill" transform="translate(37542.5 4506.41)" fill="#CBA646"/>
</g>
</g>
</g>
</g>
<g id="Group">
<g id="Group">
<g id="Group">
<g id="Vector">
<use xlink:href="#path41_fill" transform="translate(37560.1 4518.11)" fill="#CBA646"/>
</g>
</g>
</g>
</g>
<g id="Group">
<g id="Group">
<g id="Group">
<g id="Vector">
<use xlink:href="#path42_fill" transform="translate(37603.6 4529.35)" fill="#CBA646"/>
</g>
</g>
</g>
</g>
<g id="Group">
<g id="Group">
<g id="Group">
<g id="Vector">
<use xlink:href="#path43_fill" transform="translate(37601.7 4523.17)" fill="#CBA646"/>
</g>
</g>
</g>
</g>
<g id="Group">
<g id="Group">
<g id="Group">
<g id="Vector">
<use xlink:href="#path44_fill" transform="translate(37614.7 4517.49)" fill="#CBA646"/>
</g>
</g>
</g>
</g>
<g id="Group">
<g id="Group">
<g id="Group">
<g id="Vector">
<use xlink:href="#path45_fill" transform="translate(37572.8 4525.03)" fill="#CBA646"/>
</g>
</g>
</g>
</g>
<g id="Group">
<g id="Group">
<g id="Group">
<g id="Vector">
<use xlink:href="#path46_fill" transform="translate(37579.8 4520.51)" fill="#CBA646"/>
</g>
</g>
</g>
</g>
<g id="Group">
<g id="Group">
<g id="Group">
<g id="Vector">
<use xlink:href="#path47_fill" transform="translate(37549.4 4487.78)" fill="#CBA646"/>
</g>
</g>
</g>
</g>
<g id="Group">
<g id="Group">
<g id="Group">
<g id="Vector">
<use xlink:href="#path48_fill" transform="translate(37589.7 4520.42)" fill="#CBA646"/>
</g>
</g>
</g>
</g>
<g id="Group">
<g id="Group">
<g id="Group">
<g id="Vector">
<use xlink:href="#path49_fill" transform="translate(37589.2 4523.97)" fill="#CBA646"/>
</g>
</g>
</g>
</g>
<g id="Group">
<g id="Group">
<g id="Group">
<g id="Vector">
<use xlink:href="#path50_fill" transform="translate(37546.5 4520.11)" fill="#CBA646"/>
</g>
</g>
</g>
</g>
<g id="Group">
<g id="Group">
<g id="Group">
<g id="Vector">
<use xlink:href="#path51_fill" transform="translate(37555.7 4517.39)" fill="#CBA646"/>
</g>
</g>
</g>
</g>
<g id="Group">
<g id="Group">
<g id="Group">
<g id="Vector">
<use xlink:href="#path52_fill" transform="translate(37544.9 4500.34)" fill="#CBA646"/>
</g>
</g>
</g>
</g>
<g id="Group">
<g id="Group">
<g id="Group">
<g id="Vector">
<use xlink:href="#path53_fill" transform="translate(37635 4493.41)" fill="#CBA646"/>
</g>
</g>
</g>
</g>
<g id="Group">
<g id="Group">
<g id="Group">
<g id="Vector">
<use xlink:href="#path54_fill" transform="translate(37624.6 4475.19)" fill="#CBA646"/>
</g>
</g>
</g>
</g>
<g id="Group">
<g id="Group">
<g id="Group">
<g id="Vector">
<use xlink:href="#path55_fill" transform="translate(37617.9 4481.27)" fill="#CBA646"/>
</g>
</g>
</g>
</g>
<g id="Group">
<g id="Group">
<g id="Group">
<g id="Vector">
<use xlink:href="#path56_fill" transform="translate(37623.5 4467.88)" fill="#CBA646"/>
</g>
</g>
</g>
</g>
<g id="Group">
<g id="Group">
<g id="Group">
<g id="Vector">
<use xlink:href="#path57_fill" transform="translate(37551.8 4467.24)" fill="#CBA646"/>
</g>
</g>
</g>
</g>
<g id="Group">
<g id="Group">
<g id="Group">
<g id="Vector">
<use xlink:href="#path58_fill" transform="translate(37532.7 4476.6)" fill="#CBA646"/>
</g>
</g>
</g>
</g>
<g id="Group">
<g id="Group">
<g id="Group">
<g id="Vector">
<use xlink:href="#path59_fill" transform="translate(37641.7 4479.19)" fill="#CBA646"/>
</g>
</g>
</g>
</g>
</g>
</g>
</g>
</g>
<defs>
<path id="path0_fill" d="M 1.4199 3.18775C 1.88264 3.94657 2.25862 4.73458 2.75029 5.49339C 3.06842 5.98954 3.35764 6.48569 3.64685 6.98184C 3.87823 6.83591 4.13852 6.71918 4.39881 6.57325C 3.90715 5.75606 3.4444 4.93887 2.98166 4.12169C 2.51891 3.27531 1.99833 2.51649 1.50667 1.6993C 1.27529 1.29071 1.10176 0.882117 0.870389 0.473522C 0.436566 -0.343666 -0.199703 -0.0226286 0.0605903 0.823745C 0.0605903 0.823745 0.0605903 0.79456 0.0605903 0.823745C 0.0895118 0.882116 0.0605903 0.85293 0.0605903 0.823745C 0.320884 1.67012 0.957156 2.42893 1.4199 3.18775Z"/>
<path id="path1_fill" d="M 5.75538 0.245138C 5.32156 -0.717977 3.93332 1.44174 3.70195 1.82115C 3.26813 2.52159 2.83431 3.28041 2.2848 3.8933C 1.76421 4.44782 1.27254 5.26501 0.867641 5.90709C 0.607348 6.31568 0.318133 6.72428 -3.53046e-06 7.13287C 0.26029 7.22043 0.520587 7.36635 0.78088 7.54146C 1.53284 6.46161 2.2848 5.35257 3.0946 4.3019C 3.58627 3.65982 4.02009 3.01775 4.42499 2.34648C 4.71421 1.9087 5.95783 0.712103 5.75538 0.245138Z"/>
<path id="path2_fill" d="M 1.69103 0.261831C 1.31505 0.261831 0.794465 0.115905 0.447407 0.203461C 0.12927 0.261832 -0.131024 0.553685 0.0714266 0.874724C 0.216034 1.10821 0.447406 1.04983 0.649857 1.1082C 1.43074 1.28331 2.3273 1.13739 3.10818 1.07902C 3.94691 1.02064 7.01259 1.04983 7.82239 0.991463C 8.54543 0.933093 9.35523 0.874724 10.1072 0.874724C 10.4832 0.874724 10.917 1.02065 11.293 0.903911C 12.0449 0.641243 11.64 0.0867179 11.0616 0.0283473C 10.2807 -0.0592086 9.49984 0.0867197 8.71895 0.0575344C 7.18612 0.0283491 3.31063 0.20346 1.69103 0.261831C 1.86456 0.261831 1.54642 0.261831 1.69103 0.261831Z"/>
<path id="path3_fill" d="M 1.13545 4.02836C 1.16438 3.06525 0.961922 2.10213 0.933 1.13902C 0.933 0.759609 0.933002 -0.0283929 0.383494 0.000792436C -0.166015 0.059163 0.0364409 0.701233 0.0364409 1.05146C 0.0653624 1.86864 0.123198 2.62747 0.209963 3.44465C 0.238884 3.82406 0.0942768 4.72881 0.499178 4.90392C 1.07761 5.16659 1.10653 4.43696 1.13545 4.02836C 1.10653 4.1451 1.13545 3.96999 1.13545 4.02836Z"/>
<path id="path4_fill" d="M 1.04423 12.4843C 1.04423 12.747 1.04423 13.4766 1.13099 14.1187C 1.44913 14.177 1.79619 14.2646 2.11433 14.323C 2.11433 13.535 1.91187 12.4259 1.91187 12.0465C 1.88295 10.1203 1.50698 8.13569 1.39129 6.20946C 1.33345 5.12961 1.24668 3.93301 1.04423 2.85315C 0.957465 2.29863 0.870698 1.74411 0.870698 1.18959C 0.870698 0.956109 0.928541 0.576699 0.870698 0.372402C 0.726091 -0.123748 -0.0547895 -0.152933 0.00305352 0.459959C 0.147661 2.44456 0.379037 4.48753 0.494723 6.47213C 0.610409 8.48591 0.957465 10.4997 1.04423 12.4843Z"/>
<path id="path5_fill" d="M 0.0128558 0.481959C 0.157463 1.99959 0.302067 3.5756 0.388832 5.09324C 0.446675 5.88124 0.4756 6.69843 0.591286 7.48643C 0.649129 7.83666 0.649125 8.15769 0.678047 8.50792C 0.73589 9.09162 1.25648 9.47103 1.54569 8.79977C 1.80598 8.21606 1.45893 7.16539 1.40108 6.52332C 1.34324 5.73531 1.22756 4.94731 1.16972 4.15931C 1.11187 3.40049 0.967262 2.67085 0.909419 1.91204C 0.880498 1.56181 0.880499 1.21159 0.851577 0.832182C 0.822656 0.540328 0.938341 0.219291 0.620204 0.0441792C 0.33099 -0.101747 -0.0160657 0.131735 0.0128558 0.481959C -0.0160657 0.248476 0.0128558 0.5987 0.0128558 0.481959Z"/>
<path id="path6_fill" d="M 0.0458258 3.44347C 0.0747473 3.93962 -0.012019 4.93192 0.306118 5.34051C 0.624254 5.71992 1.05808 5.48644 1.11592 5.04866C 1.14484 4.78599 1.00023 4.40658 0.971313 4.14391C 0.91347 3.64776 1.087 0.700047 0.884547 0.291453C 0.624254 -0.233883 0.161512 0.0287868 0.0458258 0.466566C -0.0409387 0.758419 0.0169043 3.15161 0.0458258 3.44347C 0.0458258 3.35591 0.0458258 3.53102 0.0458258 3.44347Z"/>
<path id="path7_fill" d="M 4.73082 4.03796C 4.90435 3.80447 5.1068 3.57099 5.33817 3.39588C 4.8465 3.04566 4.32592 2.69543 3.83425 2.34521C 3.19798 1.87824 2.53278 1.49884 1.92543 1.06106C 1.6073 0.827575 1.31808 0.594089 0.999946 0.360607C 0.768574 0.185495 0.595047 -0.106355 0.247989 0.0395713C -0.0412256 0.185498 -0.0990721 0.623275 0.190143 0.798387C 1.46269 1.70313 2.73524 2.63706 4.00778 3.57099C 4.23916 3.71692 4.47053 3.89203 4.73082 4.03796Z"/>
<path id="path8_fill" d="M 0.285037 12.6981C 1.06592 12.9024 1.12377 10.801 1.23945 10.3049C 1.4419 9.45851 1.70219 8.61214 1.8468 7.76576C 2.13601 6.13139 2.62768 4.5262 2.85905 2.89182C 2.91689 2.51241 2.97474 2.133 3.0615 1.75359C 3.14827 1.40337 3.46641 0.732108 3.40856 0.411069C 3.29288 -0.347748 2.6566 0.0900311 2.48307 0.556996C 2.33846 0.96559 2.22278 1.43255 2.13601 1.87033C 1.76003 3.5339 1.41298 5.22665 1.06592 6.91939C 0.86347 7.85332 0.689939 8.78725 0.458567 9.72118C 0.371803 10.1881 -0.409079 12.523 0.285037 12.6981C 0.0536648 12.6397 0.313958 12.6981 0.285037 12.6981Z"/>
<path id="path9_fill" d="M 0.310563 3.30188C 0.917914 3.44781 0.917914 2.33877 1.0336 1.93018C 1.14929 1.4924 1.66987 0.266614 1.20713 0.0331315C 0.368407 -0.375463 -0.470318 3.12677 0.310563 3.30188C 0.0791908 3.24351 0.339484 3.30188 0.310563 3.30188Z"/>
<path id="path10_fill" d="M 3.46573 0.937619C 3.32112 0.879249 3.14759 0.850063 3.00299 0.791693C 2.33779 0.587395 1.6726 0.353912 1.0074 0.12043C 0.660343 0.0036885 -0.149457 -0.200608 0.024072 0.49984C 0.110836 0.879248 0.804951 0.966804 1.09417 1.08355C 1.75936 1.28784 2.42456 1.49214 3.08975 1.69643C 3.20544 1.46295 3.32112 1.20029 3.46573 0.937619Z"/>
<path id="path11_fill" d="M 2.89935 0.0205506C 2.34984 0.166477 1.74249 0.224851 1.16406 0.370778C 0.932688 0.429148 0.296416 0.545886 0.122887 0.750183C -0.166328 1.10041 0.0939661 1.47982 0.498867 1.509C 0.961611 1.53819 1.71357 1.15878 2.20524 1.04204C 2.43661 0.983666 2.92827 0.983666 3.13072 0.89611C 3.59347 0.662627 3.5067 -0.125376 2.89935 0.0205506C 3.13072 -0.03782 2.81259 0.0497359 2.89935 0.0205506Z"/>
<path id="path12_fill" d="M 0.458083 5.77938C 0.949748 5.77938 1.75955 4.69952 2.04877 4.37849C 2.48259 3.94071 2.97425 3.53211 3.43699 3.12352C 3.9865 2.62737 4.42032 2.07285 4.96983 1.5767C 5.23012 1.34321 6.87865 0.029876 5.69287 0.000690708C 5.17228 -0.0284946 4.42033 0.876249 4.04435 1.22647C 3.55268 1.69344 3.11886 2.21877 2.59827 2.68574C 2.07768 3.1527 1.61494 3.64885 1.12327 4.145C 0.949745 4.3493 -0.814463 5.77938 0.458083 5.77938Z"/>
<path id="path13_fill" d="M 0.0328888 0.590143C 0.871612 3.21682 1.82602 5.87268 2.57798 8.52854C 2.69366 8.93714 3.04072 10.3964 3.64808 9.95862C 4.11082 9.63758 3.47455 8.4118 3.35886 7.94484C 3.0118 6.57313 2.40445 5.25979 1.99955 3.88808C 1.76817 3.15845 1.47896 2.458 1.24759 1.72837C 1.1319 1.37814 1.04514 1.05711 0.958376 0.706883C 0.871611 0.444215 0.90053 0.0648079 0.553472 0.00643731C 0.235336 -0.0519333 -0.0827972 0.29829 0.0328888 0.590143C -0.0538757 0.356661 0.0618103 0.706885 0.0328888 0.590143Z"/>
<path id="path14_fill" d="M 0.0167397 0.810092C 0.132426 1.94832 0.768695 3.05736 1.11575 4.1664C 1.28928 4.7793 1.43389 5.47974 1.75203 6.03426C 2.18585 6.82227 2.87996 6.53041 2.56183 5.65485C 2.15693 4.575 1.83879 3.46595 1.43389 2.41528C 1.23144 1.91913 1.05791 1.36461 0.942227 0.839277C 0.855462 0.547424 0.913305 0.109646 0.508404 0.0220896C -0.0700257 -0.123837 -0.0121818 0.489054 0.0167397 0.810092C 0.0167397 0.751721 0.0167397 0.897648 0.0167397 0.810092Z"/>
<path id="path15_fill" d="M 0.311189 1.00958C 1.23668 1.9727 2.10432 3.02337 3.08765 3.92811C 3.60824 4.39508 4.0999 4.89122 4.56265 5.41656C 4.7651 5.65004 4.90971 6.08782 5.28569 6.05864C 5.86412 6.02945 5.69059 5.47493 5.48814 5.18308C 4.82294 4.04485 3.57932 3.16929 2.68275 2.20617C 2.22001 1.71002 1.75726 1.27225 1.32344 0.776097C 1.14991 0.5718 0.802854 0.0756477 0.513639 0.0172771C -0.267242 -0.128649 -0.00694717 0.688542 0.311189 1.00958C 0.253346 0.95121 0.340111 1.06795 0.311189 1.00958Z"/>
<path id="path16_fill" d="M 4.1647 0.246002C 3.99117 0.450299 3.87548 0.771337 3.78871 0.975634C 3.55734 1.47178 3.3549 1.96793 3.18137 2.49327C 2.83431 3.54394 2.37156 4.6238 1.93774 5.64528C 1.30147 7.25047 0.636276 8.82648 3.53046e-06 10.4317C 0.086768 10.4609 0.173531 10.4609 0.260295 10.49C 0.462746 10.5484 0.665194 10.636 0.809802 10.7527C 1.0701 10.0523 1.30147 9.35182 1.59069 8.68056C 1.96667 7.805 2.40049 6.92944 2.74755 6.02469C 3.0946 5.11995 3.4995 4.18602 3.84656 3.28128C 4.02009 2.8435 4.13578 2.40571 4.3093 1.99712C 4.45391 1.6469 4.97449 0.888081 4.97449 0.508672C 4.97449 -0.133404 4.45391 -0.104222 4.1647 0.246002Z"/>
<path id="path17_fill" d="M 0.183743 8.42848C 0.935702 8.74952 2.09256 4.98462 2.35286 4.37173C 2.67099 3.64209 2.90237 2.88327 3.19159 2.15364C 3.36511 1.74505 4.34844 0.285781 3.71217 0.0231132C 2.87345 -0.32711 1.80335 3.40861 1.51413 4.05069C 1.22492 4.72195 0.964627 5.42239 0.675412 6.09366C 0.472961 6.53144 -0.365766 8.195 0.183743 8.42848C -0.0476291 8.31174 0.241586 8.45767 0.183743 8.42848Z"/>
<path id="path18_fill" d="M 0.357022 6.23234C 1.08006 6.37827 1.45604 0.249359 0.790844 0.0158764C -0.0478791 -0.275977 0.212413 3.5473 0.183491 3.98508C 0.15457 4.45204 -0.308172 6.17397 0.357022 6.23234C 0.12565 6.23234 0.385943 6.23234 0.357022 6.23234Z"/>
<path id="path19_fill" d="M 0.357024 13.1432C 1.25359 13.2599 1.1379 8.91133 1.19575 8.21088C 1.34035 6.51814 1.42711 4.82539 1.57172 3.13264C 1.60064 2.75323 1.65848 2.34464 1.68741 1.96523C 1.71633 1.67338 1.62957 1.41071 1.65849 1.11886C 1.65849 0.856189 1.83202 0.622707 1.74525 0.360039C 1.48496 -0.369593 0.935448 0.155742 0.848684 0.651892C 0.761919 1.14804 0.819768 1.64419 0.790846 2.14034C 0.646239 3.89146 0.472704 5.64258 0.414861 7.36451C 0.38594 8.35681 0.183493 9.31992 0.183493 10.3122C 0.154571 10.8667 -0.308171 13.0848 0.357024 13.1432C 0.0967302 13.114 0.357024 13.1432 0.357024 13.1432Z"/>
<path id="path20_fill" d="M 0.144609 9.76867C 0.433824 9.7103 0.549508 9.79785 0.549508 9.97296C 0.694116 9.7103 0.780877 9.44763 0.925484 9.21414C 0.954406 9.00985 0.954409 8.80555 0.983331 8.57207C 1.12794 6.79177 1.2147 5.04065 1.35931 3.26035C 1.41715 2.7642 1.35931 2.26804 1.38823 1.77189C 1.38823 1.3633 1.73529 0.633669 1.50391 0.283445C 1.04117 -0.475372 0.694112 0.487742 0.636269 0.867151C 0.549505 1.3633 0.578432 1.80108 0.578432 2.29723C 0.578432 4.10672 0.144609 5.88702 0.144609 7.69651C 0.144609 8.36777 0.0578448 9.03903 1.76523e-06 9.71029C 0.0578448 9.73948 0.115688 9.73948 0.144609 9.76867Z"/>
<path id="path21_fill" d="M 3.7598 -8.90665e-07C 3.35489 -8.90665e-07 2.8343 0.466965 2.51617 0.671262C 1.67744 1.22578 0.867641 1.83867 0.0578395 2.42238C 0.028918 2.45157 1.76523e-06 2.45156 1.76523e-06 2.48075C 0.202452 2.71423 0.347061 2.94771 0.462747 3.21038C 1.44608 2.48075 2.42941 1.72193 3.47058 1.10904C 3.64411 0.9923 3.9044 0.963115 4.04901 0.817188C 4.33823 0.49615 4.25146 -8.90665e-07 3.7598 -8.90665e-07Z"/>
<path id="path22_fill" d="M 10.9354 0.891678C 11.7163 0.950048 12.0634 0.162045 11.1957 0.0161186C 10.733 -0.042252 10.2413 0.0744856 9.77857 0.103671C 8.85308 0.191227 1.53594 1.32946 0.610453 1.50457C 0.0320234 1.62131 -0.343956 2.32176 0.465846 2.40932C 0.870747 2.46769 1.4781 2.29257 1.883 2.2342C 2.77957 2.14665 10.0389 0.804122 10.9354 0.891678C 10.8776 0.891678 11.0222 0.891678 10.9354 0.891678Z"/>
<path id="path23_fill" d="M 7.76615 1.20965C 8.48918 1.06372 9.1833 0.917796 9.93526 0.88861C 10.3112 0.859425 10.8607 1.00535 10.9475 0.5092C 11.0343 -0.0453203 10.3402 -0.0161341 9.96418 0.0130512C 8.51811 0.0714218 7.07203 0.421648 5.65488 0.567575C 4.20881 0.742686 2.73381 0.976169 1.28773 1.15128C 0.998518 1.18047 0.420092 1.15128 0.18872 1.32639C -0.302946 1.76417 0.275479 2.08521 0.68038 2.08521C 1.3745 2.11439 2.09754 1.9101 2.76273 1.85173C 3.60145 1.79336 4.49802 1.61824 5.30782 1.47232C 6.11762 1.35558 6.95634 1.38476 7.76615 1.20965C 7.7083 1.20965 7.85291 1.18047 7.76615 1.20965Z"/>
<path id="path24_fill" d="M 17.634 3.06445C 16.0433 2.83097 6.06542 0.904744 4.47474 0.612891C 3.60709 0.466965 2.73945 0.408591 1.8718 0.262664C 1.4669 0.204294 1.09093 -1.78133e-06 0.657105 -1.78133e-06C -0.0370114 -1.78133e-06 -0.297308 0.61289 0.454651 0.875557C 1.20661 1.13822 2.07426 1.10904 2.85514 1.28415C 3.66494 1.43008 4.47474 1.54682 5.28454 1.69275C 6.09435 1.83868 15.2625 3.47305 16.0723 3.64816C 16.4772 3.73572 16.8821 3.85246 17.258 3.91083C 17.5183 3.94001 17.7208 4.05676 17.9232 3.79409C 18.1257 3.53142 17.9522 3.12283 17.634 3.06445C 17.8943 3.12283 17.5473 3.06445 17.634 3.06445Z"/>
<path id="path25_fill" d="M 8.53292 13.4896C 8.21478 13.081 8.01234 12.614 7.72312 12.2054C 7.40499 11.7676 7.17361 11.2131 6.91332 10.7461C 6.45057 9.8122 5.84322 8.93664 5.32263 8.0319C 4.22362 6.19322 3.29813 4.20862 2.05451 2.4575C 1.76529 2.04891 1.53392 1.6695 1.30255 1.23172C 1.12902 0.910686 0.550591 -0.606955 0.0589258 0.268604C -0.317054 0.969051 1.21578 2.72017 1.56284 3.2747C 2.66186 5.11337 3.73195 6.98123 4.80205 8.8199C 5.4094 9.87057 6.01675 10.8629 6.59518 11.9135C 6.94224 12.5264 7.28929 13.1101 7.63635 13.723C 7.78096 13.9565 8.04125 14.4527 8.35939 14.4527C 8.99566 14.4527 8.76429 13.7814 8.53292 13.4896C 8.59076 13.5479 8.504 13.402 8.53292 13.4896Z"/>
<path id="path26_fill" d="M 7.20145 11.178C 6.79655 10.0981 5.98675 9.135 5.40832 8.11351C 4.82989 7.09203 4.25146 6.09973 3.64411 5.10743C 2.66077 3.44387 1.76421 1.63438 0.694118 3.56266e-06C 0.433824 0.175115 0.144611 0.350225 3.53046e-06 0.554523C 1.09902 2.50994 2.2848 4.40698 3.38381 6.39158C 3.70195 6.97529 4.07793 7.44226 4.36714 8.02596C 4.62744 8.58048 4.94558 9.19337 5.29263 9.68952C 5.63969 10.2149 5.95783 10.6818 6.27596 11.2363C 6.42057 11.499 6.50733 11.9952 6.85439 12.0535C 7.46174 12.1995 7.34606 11.5282 7.20145 11.178Z"/>
<path id="path27_fill" d="M 0.0865504 0.84748C 0.375765 1.83978 1.18557 2.71534 1.67723 3.62008C 2.1689 4.52483 2.68948 5.40039 3.18115 6.27595C 4.22232 8.11462 5.32134 9.89493 6.33359 11.7336C 6.59388 12.2006 6.91202 12.6092 7.17232 13.0469C 7.31692 13.2804 7.31692 13.6306 7.54829 13.8058C 8.03996 14.1852 8.30025 13.7182 8.21349 13.2804C 8.12672 12.7551 7.66398 12.3465 7.40368 11.9087C 7.14339 11.4417 6.8831 10.9748 6.65173 10.5078C 6.21791 9.60307 5.63948 8.72751 5.11889 7.85195C 4.56938 6.97639 4.13556 6.01328 3.58605 5.10854C 3.00762 4.14542 2.42919 3.09475 1.79292 2.16082C 1.5037 1.72304 1.21449 1.22689 0.983114 0.759926C 0.838507 0.468073 0.780666 0.00110846 0.375765 0.00110846C -0.144822 -0.0280768 -0.00021412 0.526442 0.0865504 0.84748C 0.0865504 0.78911 0.115472 0.935036 0.0865504 0.84748Z"/>
<path id="path28_fill" d="M 5.65344 0.0697128C 5.01717 -0.368067 4.23629 1.38305 3.94707 1.79164C 3.42649 2.55046 2.81914 3.22172 2.32747 3.98054C 1.92257 4.62262 1.57551 5.2647 1.17061 5.87759C 0.910318 6.28618 -0.304386 7.54115 0.0715934 7.97893C 0.736788 8.76694 2.73237 5.03121 3.05051 4.50587C 3.42649 3.8638 6.34756 0.565863 5.65344 0.0697128C 5.85589 0.215639 5.45099 -0.0762137 5.65344 0.0697128Z"/>
<path id="path29_fill" d="M 8.81321 1.45996C 9.04459 1.16811 10.0568 0.0882494 9.10243 0.000693496C 8.63968 -0.0284918 8.14802 0.876245 7.91665 1.19728C 7.33822 2.01447 6.81763 2.89003 6.26812 3.70722C 5.08234 5.39997 3.92548 7.1219 2.7397 8.81465C 2.16127 9.66102 1.58284 10.5366 0.975486 11.383C 0.801957 11.6164 0.686271 11.8791 0.541664 12.1418C 0.425978 12.3461 0.136763 12.5504 0.049999 12.7839C -0.0946085 13.1341 0.0789223 13.5427 0.512745 13.4551C 0.715195 13.4259 1.09117 12.9882 1.20686 12.813C 2.42156 11.0036 3.5495 9.07732 4.87989 7.35538C 6.2392 5.48753 7.42498 3.38619 8.81321 1.45996C 8.75537 1.51833 8.84213 1.40159 8.81321 1.45996Z"/>
<path id="path30_fill" d="M 0.158945 10.1349C 0.65061 10.4851 1.51825 8.82155 1.83639 8.41295C 2.29913 7.77088 2.81972 7.1288 3.22462 6.45754C 4.09226 5.05664 5.19128 3.83086 6.03 2.42997C 6.20353 2.13811 6.40599 1.84626 6.63736 1.55441C 6.83981 1.29174 7.36039 0.824775 7.41823 0.532922C 7.59176 -0.225896 6.83981 -0.0507854 6.52167 0.299438C 6.23246 0.620477 5.97216 0.9707 5.71187 1.32092C 4.75746 2.63426 3.91873 4.03516 2.9354 5.31931C 2.41481 6.01976 1.89423 6.74939 1.40257 7.47902C 1.11335 7.94599 -0.506249 9.63873 0.158945 10.1349C -0.0435054 9.98896 0.24571 10.1933 0.158945 10.1349Z"/>
<path id="path31_fill" d="M 0.149616 8.04797C 0.699124 8.45656 1.74029 6.61789 1.97167 6.23848C 2.40549 5.56722 2.86824 4.95432 3.33098 4.31225C 3.85157 3.6118 4.28539 2.91135 4.74813 2.18172C 5.03735 1.77313 6.42558 0.488974 5.84715 0.0511941C 5.09519 -0.474141 3.04177 3.20321 2.63687 3.78691C 2.17412 4.42899 1.71137 5.04188 1.27755 5.71314C 0.959416 6.15092 -0.457736 7.63937 0.149616 8.04797C -0.0528347 7.90204 0.207459 8.10634 0.149616 8.04797Z"/>
<path id="path32_fill" d="M 10.6935 1.00734C 11.1562 1.03652 11.59 0.919781 12.0528 0.948966C 12.6023 0.978151 13.1518 0.948968 13.7013 0.978153C 14.1062 0.978153 15.2341 1.03652 15.2341 0.42363C 15.2341 -0.276818 14.1351 0.102594 13.7591 0.102594C 11.7346 0.131779 9.71014 0.0442207 7.68564 0.131777C 5.77682 0.219332 3.81016 0.336075 1.87242 0.30689C 1.4386 0.30689 0.802327 0.160965 0.426348 0.24852C 0.0503684 0.336076 -0.152082 0.686297 0.137133 1.00734C 0.339583 1.24082 0.946931 1.18245 1.23615 1.21163C 2.19056 1.24082 3.11604 1.12408 4.07045 1.12408C 6.26848 1.12408 8.46652 0.91978 10.6935 1.00734C 10.6356 1.00734 10.7802 1.00734 10.6935 1.00734Z"/>
<path id="path33_fill" d="M 1.44213 11.8947C 2.22301 11.8363 1.55781 7.8379 1.47104 7.19582C 1.32643 5.61981 1.21075 4.07299 0.979381 2.49698C 0.921538 2.00083 1.09507 0.39565 0.719089 0.132982C -0.235321 -0.567465 0.0249676 1.70898 0.0538891 2.08839C 0.169575 3.63521 0.458794 5.18203 0.545558 6.72885C 0.603401 7.60441 0.690162 8.50916 0.776927 9.38472C 0.863691 9.85168 0.74801 12.0114 1.44213 11.8947C 1.44213 11.8947 1.6735 11.8655 1.44213 11.8947Z"/>
<path id="path34_fill" d="M -1.76523e-06 0.00795602C 0.0289197 0.825145 0.173529 4.21064 0.607351 4.21064C 1.35931 4.21064 0.983327 0.94188 0.983327 0.0663213C 0.954406 0.037136 0.289213 -0.0212293 -1.76523e-06 0.00795602Z"/>
<path id="path35_fill" d="M 9.6887 6.33321C 7.89557 5.07824 6.13136 3.82327 4.28038 2.59749C 3.03676 1.7803 1.85097 0.846372 0.607348 -1.78133e-06C 0.46274 0.262666 0.231375 0.466968 3.53046e-06 0.671266C 1.38824 1.6052 2.71862 2.59749 4.10685 3.53142C 5.03234 4.14431 5.95783 4.7572 6.85439 5.42847C 7.37498 5.80788 7.89557 6.18729 8.44507 6.50833C 8.67645 6.62507 8.93674 6.9461 9.16811 7.03366C 9.6887 7.26714 10.2093 6.68344 9.6887 6.33321Z"/>
<path id="path36_fill" d="M 1.8564 2.27804C 2.69512 1.86945 3.44708 1.34411 4.2858 0.993891C 4.48825 0.906335 4.83531 0.906333 4.951 0.672851C 5.18237 0.293442 4.83531 0.0307779 4.48826 0.0015926C 4.08335 -0.0275927 3.53384 0.351813 3.15787 0.526925C 2.34806 0.906333 1.56718 1.3733 0.728461 1.7819C 0.526011 1.86945 0.178952 1.98619 0.0632658 2.19049C -0.110263 2.48234 0.0921881 2.86175 0.439246 2.89094C 0.844147 2.92012 1.53826 2.45315 1.8564 2.27804C 1.71179 2.3656 2.02993 2.19049 1.8564 2.27804Z"/>
<path id="path37_fill" d="M 2.91178 0.00766452C 2.04414 -0.196633 1.61031 3.74339 1.46571 4.41465C 1.11865 5.9031 0.771589 7.42073 0.482374 8.90918C 0.395609 9.43452 -0.21174 10.8354 0.0774748 11.2732C 0.742669 12.2363 1.11865 10.0766 1.20541 9.69719C 1.52355 8.20874 1.81276 6.72028 2.15982 5.26102C 2.36227 4.38546 2.56473 3.5099 2.70933 2.63434C 2.7961 2.13819 3.57698 0.153591 2.91178 0.00766452C 3.14315 0.0660351 2.68041 -0.0215208 2.91178 0.00766452Z"/>
<path id="path38_fill" d="M 0.309114 0.849687C 2.42038 1.49176 4.53165 2.16303 6.67184 2.77592C 8.6385 3.33044 10.6052 4.14763 12.6297 4.55622C 13.1792 4.67296 15.4351 5.69445 15.6086 5.05237C 15.84 4.23519 13.1792 3.7974 12.6586 3.65148C 10.663 3.15533 8.69635 2.42569 6.72968 1.87117C 5.5439 1.55013 4.38704 1.19991 3.23018 0.820505C 2.59391 0.616208 1.95764 0.47028 1.29245 0.295168C 1.06107 0.236798 0.80078 0.0325007 0.569408 0.00331536C 0.0488209 -0.0550553 -0.269316 0.674576 0.309114 0.849687C 0.0777419 0.791317 0.395878 0.878873 0.309114 0.849687Z"/>
<path id="path39_fill" d="M 7.6642 2.48075C 7.46175 2.18889 6.82547 2.07216 6.50734 1.95542C 5.00342 1.40089 3.41274 1.02149 1.90882 0.49615C 1.44608 0.350224 0.983329 0.145923 0.520585 -3.56266e-06C 0.491664 -3.56266e-06 0.462744 -1.78089e-06 0.404901 0.0291835C 0.289215 0.321037 0.144609 0.58371 1.76523e-06 0.846377C 0.0289233 0.846377 0.0578412 0.875555 0.0867627 0.875555C 1.59068 1.37171 3.15244 1.92623 4.7142 2.33482C 5.49508 2.53912 6.21812 2.86016 6.999 3.12283C 7.34606 3.21038 8.12694 3.09364 7.6642 2.48075Z"/>
<path id="path40_fill" d="M 6.34666 3.56266e-06C 5.97068 0.116745 5.5947 0.233479 5.21872 0.321035C 3.91726 0.642073 2.58687 0.992297 1.2854 1.34252C 0.996185 1.43008 0.359911 1.48845 0.157461 1.72193C -0.305283 2.24727 0.359911 2.48075 0.764812 2.42238C 1.51677 2.30564 2.23981 2.01379 2.96285 1.83867C 4.09078 1.51764 5.21872 1.28415 6.34666 0.963115C 6.28882 0.642077 6.28882 0.321042 6.34666 3.56266e-06Z"/>
<path id="path41_fill" d="M 4.62128 2.63748C 5.11294 2.08296 5.63353 1.52844 6.21196 1.06148C 6.47225 0.857182 7.19529 0.244289 6.44333 0.0108068C 6.09627 -0.0767491 5.63353 0.390216 5.40215 0.594513C 4.27422 1.58681 3.1752 2.69586 2.13402 3.77572C 1.67128 4.27187 1.1507 4.76802 0.659031 5.23498C 0.398738 5.46847 -0.497828 6.16891 0.369816 6.34402C 0.716874 6.43158 1.20854 5.90624 1.41099 5.70194C 1.90265 5.20579 2.42324 4.68046 2.91491 4.18431C 3.46442 3.65898 4.12961 3.22119 4.62128 2.63748C 4.56343 2.69585 4.67912 2.57911 4.62128 2.63748Z"/>
<path id="path42_fill" d="M 2.43228 5.57863C 2.17198 5.14085 2.05629 4.4404 1.94061 3.94425C 1.796 3.38973 1.59355 2.89358 1.3911 2.36824C 1.18865 1.84291 1.07296 1.28839 0.928357 0.733864C 0.841592 0.412826 0.783754 -0.141693 0.292089 0.0334189C -0.112812 0.15016 0.00286881 0.58794 0.0607118 0.908978C 0.263162 2.07639 0.783751 3.15625 1.10189 4.26529C 1.27542 4.81981 1.3911 5.52026 1.65139 6.01641C 2.11414 6.83359 2.92394 6.425 2.43228 5.57863C 2.49012 5.637 2.40336 5.49107 2.43228 5.57863Z"/>
<path id="path43_fill" d="M 2.05343 4.55291C 1.59069 3.03528 1.12794 1.51764 0.665193 1.78133e-06C 0.636271 1.78133e-06 0.636276 3.56179e-06 0.607355 0.0291889C 0.404905 0.0875595 0.231368 0.204299 0.0578395 0.291855C 0.0578395 0.525337 0.0578448 0.729631 1.76523e-06 0.963113C 0.173531 1.60519 0.34706 2.27645 0.578432 2.88934C 0.780882 3.41468 0.925484 3.82328 1.07009 4.3778C 1.12793 4.61128 1.15686 4.99069 1.44608 5.10743C 1.79313 5.22417 2.16912 4.93232 2.05343 4.55291Z"/>
<path id="path44_fill" d="M 0.598426 1.17996C 1.69744 2.25982 2.76754 3.42722 3.86655 4.56545C 4.44498 5.17834 5.08126 5.6745 5.63076 6.28739C 5.86214 6.57924 6.18027 7.19213 6.61409 7.01702C 7.19252 6.78354 6.70086 6.17064 6.46949 5.90798C 5.9489 5.2659 5.31263 4.76975 4.7342 4.21523C 4.15577 3.63153 3.63518 3.01863 3.02783 2.46411C 2.50724 1.96796 1.95774 1.41344 1.46607 0.888109C 1.20578 0.625441 0.800879 -0.104191 0.338135 0.0125499C -0.442746 0.216847 0.338133 0.917294 0.598426 1.17996C 0.48274 1.09241 0.656269 1.23833 0.598426 1.17996Z"/>
<path id="path45_fill" d="M 6.45093 0.0298458C 5.69897 -0.291193 4.97594 2.07281 4.80241 2.56896C 4.45535 3.53208 3.99261 4.43682 3.61663 5.37075C 2.89359 7.20943 2.02594 9.01892 1.27398 10.8576C 0.955848 11.5872 -0.201013 13.0465 0.0303591 13.8637C 0.146045 14.3306 0.608792 14.3598 0.869085 13.9804C 1.01369 13.7761 0.984768 13.4551 1.10045 13.1924C 1.27398 12.7255 1.53428 12.2585 1.76565 11.7915C 2.66222 10.0404 3.26957 8.08499 4.13721 6.30469C 4.62888 5.31239 5.09162 4.26171 5.52544 3.21104C 5.72789 2.71489 5.8725 2.18955 6.1328 1.6934C 6.2774 1.34318 7.05828 0.292514 6.45093 0.0298458C 6.6823 0.117402 6.24848 -0.0577101 6.45093 0.0298458Z"/>
<path id="path46_fill" d="M 0.878677 0C 0.849756 0.0875559 0.791915 0.175108 0.762993 0.233479C 0.560543 0.671258 -0.538474 2.80179 0.329171 2.80179C 0.878679 2.80179 1.05221 1.80949 1.16789 1.45927C 1.28358 1.10904 1.45711 0.788005 1.63064 0.466967C 1.37034 0.32104 1.13897 0.145927 0.878677 0Z"/>
<path id="path47_fill" d="M 9.49069 1.49953C 8.33383 1.52871 2.11571 0.273743 0.987771 0.0986315C 0.640713 0.0402609 0.0912065 -0.193219 0.00444202 0.361302C -0.053401 0.799081 0.467185 0.886635 0.785321 0.974191C 1.39267 1.12012 6.97452 2.02486 7.6108 2.1416C 8.8255 2.3459 10.0402 2.40427 11.226 2.69613C 11.5152 2.7545 11.8623 2.95879 12.0936 2.63775C 12.4118 2.19997 11.9201 1.96649 11.602 1.87894C 10.9368 1.67464 10.1559 1.49953 9.49069 1.49953C 9.57746 1.49953 9.40393 1.52871 9.49069 1.49953Z"/>
<path id="path48_fill" d="M 0.243157 0.0291817L 0.214233 0.0291817C 0.214233 0.437776 0.185315 0.875561 0.127472 1.28416C 0.0985509 1.69275 -0.277429 2.68505 0.416687 2.71423C 1.13972 2.74342 1.1108 0.671265 1.08188 3.56266e-06C 0.821585 0.0291889 0.532372 0.0291817 0.243157 0.0291817Z"/>
<path id="path49_fill" d="M 1.30671 0.452798C 1.33563 -0.101723 0.670437 -0.13091 0.467987 0.277685C 0.352301 0.511167 0.467985 0.832209 0.439063 1.06569C 0.410142 1.59103 0.323376 2.08717 0.265533 2.61251C 0.20769 3.16703 0.265531 3.72155 0.236609 4.27607C 0.207688 4.71385 -0.139367 5.73534 0.0630831 6.11474C 0.525827 6.9903 0.95965 5.73534 1.01749 5.35593C 1.10426 4.80141 1.13318 4.24689 1.13318 3.69237C 1.13318 2.61251 1.24887 1.50347 1.30671 0.452798C 1.30671 0.540354 1.33563 0.219316 1.30671 0.452798Z"/>
<path id="path50_fill" d="M 7.78015 0.0813069C 6.68113 0.810939 5.58212 1.54057 4.51202 2.29939C 3.47085 3.02902 2.4586 3.81703 1.3885 4.4591C 1.01252 4.69258 -0.462475 5.48059 0.144876 6.00593C 0.549777 6.35615 1.73556 5.36385 2.11154 5.10118C 3.23948 4.40074 4.25173 3.52518 5.35075 2.79555C 5.9581 2.41614 6.47868 1.94917 7.05711 1.56976C 7.37525 1.36546 7.69339 1.19035 8.01152 0.986053C 8.21398 0.840127 8.50319 0.752572 8.50319 0.431534C 8.41642 0.0813105 8.04045 -0.12299 7.78015 0.0813069C 7.95368 -0.0646196 7.69339 0.139678 7.78015 0.0813069Z"/>
<path id="path51_fill" d="M 2.54851 -3.56266e-06C 1.73871 0.525332 0.668615 0.904746 0.148028 1.69275C -0.112266 2.07216 -0.0544218 2.56831 0.524008 2.45157C 0.784302 2.3932 1.01567 2.04297 1.24705 1.86786C 1.70979 1.51764 2.23038 1.25497 2.69312 0.93393C 2.6642 0.963115 2.63528 0.9923 2.69312 0.93393C 2.72204 0.93393 2.72204 0.904743 2.72204 0.904743C 2.95341 0.758816 3.15586 0.583703 3.38723 0.437776C 3.0691 0.321035 2.80881 0.175108 2.54851 -3.56266e-06Z"/>
<path id="path52_fill" d="M 3.47695 0.788005C 3.47695 0.525337 3.50587 0.262666 3.56371 -1.78133e-06C 2.66715 0.116739 1.74166 0.233482 0.845093 0.321038C 0.584799 0.350224 0.266663 0.291857 0.0931343 0.525339C -0.138238 0.875563 0.0931334 1.13823 0.440191 1.22578C 0.845092 1.31334 1.45244 1.13823 1.85735 1.07986C 2.40685 1.02149 2.95636 0.933928 3.50587 0.875557C 3.47695 0.846372 3.47695 0.81719 3.47695 0.788005Z"/>
<path id="path53_fill" d="M 11.0723 0.0129704C 8.09337 0.071341 5.14338 0.100528 2.13554 0.188084C 1.6728 0.188084 -0.236024 -0.132955 0.024269 0.684233C 0.197798 1.26794 1.81741 1.12201 2.30907 1.09283C 3.81299 1.03446 5.28799 0.946899 6.79191 0.946899C 7.68847 0.946899 8.55611 0.917715 9.45268 0.888529C 9.85758 0.888529 10.2625 0.888529 10.6674 0.888529C 10.8988 0.888529 11.188 0.9469 11.3615 0.742603C 11.6218 0.479935 11.4483 -0.0162149 11.0723 0.0129704C 11.3037 -0.0162149 10.9277 0.0129704 11.0723 0.0129704Z"/>
<path id="path54_fill" d="M 5.18209 0.437613C 4.02523 1.02132 2.7816 1.57584 1.68258 2.21792C 1.27768 2.4514 0.29435 2.68488 0.0918997 3.09348C -0.255158 3.73555 0.467879 3.76474 0.814937 3.648C 1.07523 3.56044 1.42229 3.38533 1.65366 3.26859C 2.7816 2.71407 3.90954 2.10118 5.00855 1.48829C 5.44238 1.2548 6.62816 1.02132 6.88845 0.612727C 7.23551 0.0290208 6.57032 -0.0585352 6.22326 0.0290208C 5.8762 0.0873914 5.52914 0.262501 5.18209 0.437613C 5.32669 0.350057 5.0664 0.495984 5.18209 0.437613Z"/>
<path id="path55_fill" d="M 22.1253 0.019317C 21.7493 -0.0682389 21.1998 0.16524 20.8528 0.252796C 20.014 0.457093 19.2332 0.778131 18.3944 0.982429C 16.6881 1.39102 15.0395 1.91636 13.3332 2.35414C 13.3621 2.35414 13.391 2.32496 13.3332 2.35414C 11.8582 2.76274 10.4121 3.20051 8.90819 3.55074C 7.43319 3.90096 6.01603 4.48467 4.51212 4.8057C 3.76016 4.98082 3.0082 5.18512 2.28516 5.4186C 2.02486 5.50615 1.41751 5.59371 0.868006 5.76882C 0.607713 6.0023 0.318498 6.23578 0.000361565 6.38171C -0.0285599 7.14053 1.67781 6.55682 2.02487 6.44008C 2.71898 6.2066 3.44202 5.97312 4.16505 5.76882C 7.11505 4.95163 10.0361 4.13444 13.015 3.34644C 14.49 2.96703 15.9361 2.52925 17.4111 2.12066C 18.8572 1.71206 20.3033 1.21591 21.7493 0.953246C 22.0096 0.894875 22.3278 0.953246 22.4724 0.661393C 22.6748 0.311169 22.4434 0.0776877 22.1253 0.019317Z"/>
<path id="path56_fill" d="M 0.455288 3.85813C 0.137151 4.09162 -0.325591 4.64614 0.339604 4.82125C 0.65774 4.90881 1.09156 4.47103 1.35186 4.3251C 1.90136 3.97488 2.45088 3.56628 3.00038 3.21606C 4.07048 2.48642 5.11166 1.69842 6.21067 0.997977C 6.49989 0.822865 7.16507 0.326714 6.5288 0.0348611C 6.23959 -0.111065 5.77684 0.239157 5.51655 0.385084C 4.88028 0.764493 4.33078 1.20227 3.75235 1.64005C 2.68225 2.39887 1.52538 3.07013 0.455288 3.85813C 0.513131 3.79976 0.397445 3.88732 0.455288 3.85813Z"/>
<path id="path57_fill" d="M 0.178427 0.827574C 1.42205 1.67395 2.66567 2.60788 3.88038 3.48343C 4.45881 3.89203 5.06616 4.35899 5.70243 4.7384C 5.99165 4.91351 6.22302 5.11781 6.48331 5.29293C 7.09066 5.70152 7.61125 5.32211 7.14851 4.68003C 6.74361 4.1547 5.9338 3.77529 5.38429 3.39588C 4.77694 2.9581 4.14067 2.57869 3.53332 2.14091C 2.95489 1.73232 2.34754 1.3821 1.79803 0.973501C 1.50882 0.769204 1.24852 0.564905 0.988228 0.360608C 0.756856 0.185496 0.583327 -0.106354 0.236269 0.0395722C -0.0529457 0.185499 -0.0818663 0.623277 0.178427 0.827574C -0.0240233 0.681648 0.265192 0.885945 0.178427 0.827574Z"/>
<path id="path58_fill" d="M 6.01013 2.58265C 6.61748 2.84532 7.31159 2.90369 7.97679 3.10798C 8.41061 3.25391 9.68316 3.98354 9.88561 3.31228C 10.1459 2.43672 6.81993 1.91139 6.21258 1.70709C 4.94003 1.29849 3.63856 1.00665 2.3371 0.598051C 1.90327 0.452125 0.746414 -0.219138 0.28367 0.0727148C -0.728583 0.685606 1.267 1.0942 1.61406 1.24013C 3.06013 1.76546 4.56405 2.02813 6.01013 2.58265C 5.92336 2.55346 6.06797 2.61183 6.01013 2.58265Z"/>
<path id="path59_fill" d="M 6.32053 0.315365C 6.08916 -0.531008 3.54407 0.578031 2.99456 0.723958C 2.47398 0.869884 -0.389255 1.27848 0.044567 2.12485C 0.30486 2.621 2.70534 1.74544 3.22593 1.59952C 3.74652 1.42441 4.23819 1.24929 4.75878 1.10337C 5.1926 1.01581 6.49406 0.986627 6.32053 0.315365C 6.37838 0.548848 6.23377 0.0818831 6.32053 0.315365Z"/>
</defs>
</svg>
