<svg width="9" height="130" viewBox="0 0 9 130" version="1.1" xmlns="http://www.w3.org/2000/svg" xmlns:xlink="http://www.w3.org/1999/xlink">
<title>gold-line</title>
<desc>Created using Figma</desc>
<g id="Canvas" transform="translate(-37417 -3136)">
<g id="gold-line">
<g id="Group 2">
<g id="Group">
<g id="Group">
<g id="Vector">
<use xlink:href="#path0_fill" transform="matrix(0.890051 0.45586 -0.18577 0.982593 37419.3 3135.54)" fill="#CBA646"/>
</g>
</g>
</g>
</g>
<g id="Group 2.1">
<g id="Group">
<g id="Group">
<g id="Vector">
<use xlink:href="#path1_fill" transform="matrix(0.877207 0.480113 -0.172598 0.984992 37421.2 3206.58)" fill="#CBA646"/>
</g>
</g>
</g>
</g>
</g>
</g>
<defs>
<path id="path0_fill" d="M 0.10231 6.86874C 0.809362 16.5197 4.69813 25.9233 6.81928 35.3268C 7.87986 40.5235 8.76369 46.4625 10.7081 51.1643C 13.3595 57.8458 17.6018 55.3711 15.6574 47.9473C 13.1827 38.7912 11.2384 29.3877 8.76368 20.4791C 7.52634 16.2723 6.46577 11.5705 5.75872 7.1162C 5.22843 4.64159 5.58196 0.929681 3.10728 0.187297C -0.427984 -1.05001 -0.0744532 4.14667 0.10231 6.86874C 0.10231 7.61113 0.10231 6.37382 0.10231 6.86874Z"/>
<path id="path1_fill" d="M 0.0950837 6.67316C 0.752197 16.0494 4.3663 25.1851 6.33764 34.3209C 7.32331 39.3696 8.14472 45.1396 9.95179 49.7075C 12.416 56.1987 16.3586 53.7945 14.5516 46.5821C 12.2517 37.6867 10.4446 28.5509 8.14471 19.896C 6.99477 15.8089 6.0091 11.241 5.35199 6.91358C 4.85915 4.50942 5.18771 0.903209 2.88781 0.181964C -0.397756 -1.02011 -0.0691946 4.0286 0.0950837 6.67316C 0.0950837 7.39441 0.0950837 6.19233 0.0950837 6.67316Z"/>
</defs>
</svg>
