<svg width="191" height="131" viewBox="0 0 191 131" version="1.1" xmlns="http://www.w3.org/2000/svg" xmlns:xlink="http://www.w3.org/1999/xlink">
<title>icon-diner</title>
<desc>Created using Figma</desc>
<g id="Canvas" transform="translate(-43421 -3721)">
<g id="icon-diner">
<g id="Group">
<g id="Vector">
<use xlink:href="#path0_fill" transform="translate(43435.9 3728.65)" fill="#FFFFFF"/>
</g>
<g id="Vector">
<use xlink:href="#path1_fill" transform="translate(43428.3 3728.65)" fill="#FFFFFF"/>
</g>
<g id="Vector">
<use xlink:href="#path2_fill" transform="translate(43421 3728.65)" fill="#FFFFFF"/>
</g>
</g>
<g id="Vector">
<use xlink:href="#path3_fill" transform="translate(43593.9 3723.76)" fill="#FFFFFF"/>
</g>
<g id="Group">
<g id="Vector">
<use xlink:href="#path4_fill" transform="translate(43451.5 3721.25)" fill="#FFFFFF"/>
</g>
<g id="Vector">
<use xlink:href="#path5_fill" transform="translate(43478.3 3746.26)" fill="#CBA646"/>
</g>
</g>
</g>
</g>
<defs>
<path id="path0_fill" d="M 2.59244 25.3093C 4.10073 25.3093 5.17811 24.2089 5.17811 22.9084L 5.17811 2.40088C 5.17811 1.00037 3.99299 6.10576e-06 2.59244 6.10576e-06C 1.08414 6.10576e-06 0.00679871 1.10041 0.00679871 2.40088L 0.00679871 22.9084C -0.100936 24.2089 1.08414 25.3093 2.59244 25.3093Z"/>
<path id="path1_fill" d="M 2.58563 25.3093C 4.09392 25.3093 5.1713 24.2089 5.1713 22.9084L 5.1713 2.40088C 5.1713 1.00037 3.98619 6.10576e-06 2.58563 6.10576e-06C 1.07734 6.10576e-06 -6.57563e-06 1.10041 -6.57563e-06 2.40088L -6.57563e-06 22.9084C -6.57563e-06 24.2089 1.18507 25.3093 2.58563 25.3093Z"/>
<path id="path2_fill" d="M 27.4725 2.40088C 27.4725 1.00037 26.2874 6.10576e-06 24.8868 6.10576e-06C 23.3785 6.10576e-06 22.3012 1.10041 22.3012 2.40088L 22.3012 22.8084L 22.3012 22.9084C 22.3012 22.9084 22.3012 22.9084 22.3012 23.0085C 22.5166 28.6105 18.0995 36.5134 14.9752 40.4149C 14.652 40.815 14.4365 41.3152 14.4365 41.9154L 15.2984 117.543C 14.3288 118.544 13.0359 118.644 12.0663 117.643L 13.036 41.9154C 13.036 41.4152 12.8205 40.9151 12.4973 40.4149C 9.48071 36.5134 5.06355 28.6105 5.27902 23.0085C 5.27902 22.7084 5.27902 22.5083 5.17128 22.2082L 5.17128 2.40088C 5.17128 1.00037 3.9862 6.10576e-06 2.58564 6.10576e-06C 1.07735 6.10576e-06 6.57563e-06 1.10041 6.57563e-06 2.40088L 6.57563e-06 22.9084C 6.57563e-06 23.1085 1.31481e-05 23.3086 0.107748 23.5087C 0.107748 30.4112 4.84807 38.6142 7.75692 42.6157L 6.78731 118.444C 6.78731 118.944 6.89504 119.344 7.21824 119.744C 8.72654 121.945 11.0967 123.245 13.6824 123.245C 16.268 123.245 18.6382 121.945 20.2542 119.644C 20.5774 119.244 20.6851 118.744 20.6851 118.344L 19.8233 42.6157C 23.0553 38.2141 27.9034 29.811 27.5802 22.8084L 27.5802 2.40088L 27.4725 2.40088Z"/>
<path id="path3_fill" d="M 6.89505 128.244C 4.30941 128.244 2.04697 126.943 0.430941 124.743C 0.107735 124.342 6.57563e-06 123.842 6.57563e-06 123.442L 0.969616 46.8138L 0.969616 2.49751C 0.969616 1.69721 1.40056 0.996954 2.04697 0.49677C 2.69338 -0.00341452 3.55527 -0.103476 4.30941 0.0965979C 8.83429 1.29704 12.4973 4.29815 14.8674 8.69977C 19.7155 17.7031 19.0691 32.1084 13.036 47.314L 13.8978 123.342C 13.8978 123.842 13.7901 124.242 13.4669 124.642C 11.8509 126.843 9.48069 128.244 6.89505 128.244ZM 5.38676 122.542C 6.35638 123.542 7.6492 123.442 8.61882 122.442L 7.75692 46.8138C 7.75692 46.5137 7.75693 46.2136 7.9724 45.9135C 13.5746 32.1084 14.4365 18.6034 10.2348 10.8006C 9.15749 8.89985 7.86467 7.3993 6.35637 6.29889L 6.35637 46.7138L 5.38676 122.542Z"/>
<path id="path4_fill" d="M 67.7654 1.22115e-05C 30.3813 1.22115e-05 -6.57563e-06 28.2104 -6.57563e-06 62.8231C -6.57563e-06 97.4359 30.3813 125.646 67.7654 125.646C 105.149 125.646 135.423 97.4359 135.423 62.8231C 135.423 28.2104 105.042 1.22115e-05 67.7654 1.22115e-05ZM 67.7654 120.844C 33.2901 120.844 5.1713 94.8349 5.1713 62.8231C 5.1713 30.8113 33.1824 4.80177 67.7654 4.80177C 102.241 4.80177 130.252 30.8113 130.252 62.8231C 130.252 94.8349 102.133 120.844 67.7654 120.844Z"/>
<path id="path5_fill" d="M 40.9393 1.22115e-05C 18.4227 1.22115e-05 -1.31513e-05 17.0063 -1.31513e-05 37.914C -1.31513e-05 58.8217 18.315 75.8279 40.9393 75.8279C 63.456 75.8279 81.771 58.8217 81.771 37.914C 81.6633 17.0063 63.3483 1.22115e-05 40.9393 1.22115e-05ZM 40.9393 70.9261C 21.3315 70.9261 5.27904 56.1207 5.27904 37.914C 5.27904 19.7073 21.2238 4.90181 40.9393 4.90181C 60.5471 4.90181 76.4919 19.7073 76.4919 37.914C 76.3842 56.1207 60.4394 70.9261 40.9393 70.9261Z"/>
</defs>
</svg>
