<svg width="167" height="105" viewBox="0 0 167 105" version="1.1" xmlns="http://www.w3.org/2000/svg" xmlns:xlink="http://www.w3.org/1999/xlink">
<title>icon-ceremony</title>
<desc>Created using Figma</desc>
<g id="Canvas" transform="translate(-43445 -3037)">
<g id="icon-ceremony">
<g id="Vector">
<use xlink:href="#path0_fill" transform="translate(43521.8 3058.11)" fill="#FFFFFF"/>
</g>
<g id="Vector">
<use xlink:href="#path1_fill" transform="translate(43445.8 3037)" fill="#FFFFFF"/>
</g>
<g id="Vector">
<use xlink:href="#path2_fill" transform="translate(43474 3037.5)" fill="#CBA646"/>
<use xlink:href="#path3_stroke" transform="translate(43474 3037.5)" fill="#CBA646"/>
</g>
<g id="Vector">
<use xlink:href="#path4_fill" transform="translate(43478 3040)" fill="#001733"/>
</g>
</g>
</g>
<defs>
<path id="path0_fill" d="M 37.3841 -6.10576e-06C 22.3012 -6.10576e-06 9.37295 8.30306 3.44751 20.2074C 3.33978 20.3075 3.3398 20.4075 3.23206 20.5075C 1.29283 24.409 0.215477 28.7106 6.57563e-06 33.0121C 6.57563e-06 33.6124 6.57563e-06 34.2126 6.57563e-06 34.8128C 6.57563e-06 35.6131 1.31481e-05 36.4134 0.107748 37.2137C 0.107748 37.4138 0.107748 37.6138 0.107748 37.8139C 0.215483 38.6142 0.323206 39.4145 0.430941 40.1148C 0.430941 40.2148 0.430947 40.3148 0.538682 40.4149C 0.646418 41.1151 0.754146 41.7154 0.969616 42.4156C 0.969616 42.6157 1.07736 42.8158 1.07736 43.0158C 1.29283 43.7161 1.50831 44.5164 1.72378 45.2166C 1.72378 45.4167 1.83149 45.5168 1.93923 45.7168C 2.1547 46.4171 2.47792 47.0173 2.69339 47.7176C 2.69339 47.8176 2.80113 47.9176 2.80113 48.1177C 3.12433 48.918 3.55527 49.6183 3.87848 50.4186C 3.87848 50.5186 3.98619 50.5186 3.98619 50.6186C 10.1271 61.9228 22.8398 69.7257 37.3841 69.7257C 58.0692 69.7257 74.876 54.1199 74.876 34.9129C 74.876 15.6057 58.0692 -6.10576e-06 37.3841 -6.10576e-06ZM 8.61882 41.1151C 8.61882 43.1159 8.40335 45.1166 8.08014 47.0173C 8.08014 46.9173 7.9724 46.9173 7.9724 46.8172C 7.86467 46.5171 7.6492 46.117 7.54147 45.8169C 7.43373 45.6168 7.43372 45.5168 7.32599 45.3167C 7.21825 45.0166 7.11053 44.7165 7.00279 44.5164C 6.89506 44.3163 6.89504 44.1162 6.78731 43.9162C 6.67957 43.7161 6.57186 43.416 6.57186 43.1159C 6.46412 42.9158 6.46411 42.6157 6.35638 42.4156C 6.24864 42.2155 6.24863 41.9154 6.14089 41.7154C 6.03316 41.4152 6.03318 41.2152 5.92544 40.9151C 5.92544 40.715 5.8177 40.4149 5.8177 40.2148C 5.8177 39.9147 5.70996 39.7146 5.70996 39.4145C 5.70996 39.1144 5.60222 38.9143 5.60222 38.6142C 5.60222 38.4141 5.49451 38.114 5.49451 37.914C 5.49451 37.6138 5.38677 37.3137 5.38677 37.0136C 5.38677 36.8135 5.38677 36.6135 5.38677 36.4134C 5.38677 35.9132 5.38677 35.413 5.38677 34.8128C 5.38677 34.3126 5.38677 33.7124 5.38677 33.2122C 5.38677 32.9121 5.38677 32.612 5.49451 32.2119C 5.49451 32.0118 5.49451 31.8117 5.49451 31.6116C 5.49451 31.2115 5.60222 30.7113 5.70996 30.3112L 5.70996 30.2111C 5.81769 29.5109 6.03316 28.7106 6.14089 28.0103C 7.75692 32.1118 8.61882 36.6135 8.61882 41.1151ZM 37.3841 64.6238C 27.0415 64.6238 17.884 60.1221 12.0663 53.1196C 13.2514 49.2181 13.8978 45.2166 13.8978 41.1151C 13.8978 34.2126 12.0663 27.4101 8.61882 21.4079C 13.8978 11.6043 24.7791 4.90181 37.3841 4.90181C 55.1604 4.90181 69.5969 18.3067 69.5969 34.8128C 69.5969 51.2188 55.1604 64.6238 37.3841 64.6238Z"/>
<path id="path1_fill" d="M 113.445 7.80288C 95.992 7.80288 80.4782 15.9059 71.1052 28.2104C 65.072 24.2089 57.9615 21.608 50.6355 20.8077L 61.0858 11.0041C 61.9477 10.2038 62.0554 8.90328 61.409 8.00295L 56.6687 1.1004C 56.2378 0.400138 55.3759 0 54.4063 0L 35.5526 0C 34.6907 0 33.8288 0.400138 33.2902 1.1004L 28.5498 8.00295C 27.9034 9.00331 28.0111 10.2037 28.873 11.1041L 39.4311 20.9077C 17.2376 23.5086 0 41.1151 0 62.423C 0 85.4314 20.2542 104.138 45.0333 104.138C 57.5306 104.138 69.2737 99.3366 77.8925 90.9335C 87.1577 99.1365 99.7627 104.138 113.553 104.138C 142.103 104.138 165.373 82.5304 165.373 56.0206C 165.266 29.3108 141.995 7.80288 113.445 7.80288ZM 66.9035 77.1284C 61.84 83.6308 53.7599 87.5322 44.9256 87.5322C 29.8427 87.5322 17.5608 76.2281 17.5608 62.2229C 17.5608 48.2177 29.8427 36.8136 44.9256 36.8136C 51.7129 36.8136 58.0693 39.1144 63.2406 43.416C 62.0555 47.4175 61.5168 51.519 61.5168 55.8206C 61.5168 63.5234 63.456 70.726 66.9035 77.1284ZM 36.9531 4.80177L 52.898 4.80177L 55.6991 8.90327L 44.9256 19.007L 34.0443 8.90327L 36.9531 4.80177ZM 45.0333 99.0364C 23.0553 99.0364 5.27902 82.5304 5.27902 62.2229C 5.27902 41.8154 23.163 25.3093 45.0333 25.3093C 53.3289 25.3093 61.5168 27.8102 68.3041 32.3119C 68.1963 32.4119 68.1964 32.612 68.0886 32.712C 67.55 33.5123 67.119 34.4127 66.6881 35.313C 66.6881 35.413 66.5803 35.413 66.5803 35.5131C 66.0416 36.5134 65.6107 37.5138 65.1798 38.5142C 59.3621 34.3126 52.3593 32.0118 45.141 32.0118C 27.1493 32.0118 12.605 45.6168 12.605 62.2229C 12.605 78.829 27.257 92.434 45.141 92.434C 54.8372 92.434 63.7792 88.5326 69.9201 81.8301C 69.9201 81.8301 69.9201 81.8301 69.9201 81.9302C 71.2129 83.7308 72.5058 85.4314 74.0141 87.032C 74.1218 87.1321 74.2295 87.2321 74.3373 87.3321C 66.5803 94.7349 56.13 99.0364 45.0333 99.0364ZM 113.445 99.0364C 100.086 99.0364 88.1273 93.8345 79.6163 85.5315C 78.9699 84.9312 78.3235 84.231 77.6771 83.5307C 77.6771 83.4307 77.5693 83.4307 77.5693 83.3307C 76.9229 82.6304 76.3842 81.9302 75.8455 81.2299C 75.7378 81.1299 75.7378 81.0298 75.6301 80.9298C 74.445 79.4292 73.3677 77.8286 72.398 76.128C 68.9505 70.1258 66.9035 63.2233 66.9035 55.9206C 66.9035 51.619 67.5499 47.5175 68.8428 43.616C 68.8428 43.616 68.8428 43.516 68.9505 43.516C 69.4892 41.7154 70.2433 39.9147 71.1052 38.2141C 71.1052 38.114 71.2129 38.014 71.2129 37.914C 71.5361 37.2137 71.8594 36.6135 72.2903 36.0133C 72.5058 35.7131 72.6135 35.413 72.829 35.1129C 73.1522 34.6127 73.4754 34.0125 73.7986 33.5123C 81.9865 21.1078 96.7462 12.8047 113.553 12.8047C 139.194 12.8047 160.094 32.2119 160.094 56.0206C 159.987 79.6293 139.086 99.0364 113.445 99.0364Z"/>
<path id="path2_fill" d="M 22.5 20.5L 11.5 20.5L 0.5 10L 0 8L 6 0L 27.5 0L 33.5 8L 33.5 10L 22.5 20.5Z"/>
<path id="path3_stroke" d="M 22.5 20.5L 22.5 21L 22.7003 21L 22.8452 20.8617L 22.5 20.5ZM 11.5 20.5L 11.1548 20.8617L 11.2997 21L 11.5 21L 11.5 20.5ZM 0.5 10L 0.0149287 10.1213L 0.050041 10.2617L 0.154762 10.3617L 0.5 10ZM 0 8L -0.4 7.7L -0.542791 7.89039L -0.485071 8.12127L 0 8ZM 6 0L 6 -0.5L 5.75 -0.5L 5.6 -0.3L 6 0ZM 27.5 0L 27.9 -0.3L 27.75 -0.5L 27.5 -0.5L 27.5 0ZM 33.5 8L 34 8L 34 7.83333L 33.9 7.7L 33.5 8ZM 33.5 10L 33.8452 10.3617L 34 10.214L 34 10L 33.5 10ZM 22.5 20L 11.5 20L 11.5 21L 22.5 21L 22.5 20ZM 11.8452 20.1383L 0.845238 9.63832L 0.154762 10.3617L 11.1548 20.8617L 11.8452 20.1383ZM 0.985071 9.87873L 0.485071 7.87873L -0.485071 8.12127L 0.0149287 10.1213L 0.985071 9.87873ZM 0.4 8.3L 6.4 0.3L 5.6 -0.3L -0.4 7.7L 0.4 8.3ZM 6 0.5L 27.5 0.5L 27.5 -0.5L 6 -0.5L 6 0.5ZM 27.1 0.3L 33.1 8.3L 33.9 7.7L 27.9 -0.3L 27.1 0.3ZM 33 8L 33 10L 34 10L 34 8L 33 8ZM 33.1548 9.63832L 22.1548 20.1383L 22.8452 20.8617L 33.8452 10.3617L 33.1548 9.63832Z"/>
<path id="path4_fill" d="M 17.4627 15L 8.92537 15L 0.38806 7.31707L 0 5.85366L 4.65672 0L 21.3433 0L 26 5.85366L 26 7.31707L 17.4627 15Z"/>
</defs>
</svg>
