<svg width="91" height="119" viewBox="0 0 91 119" version="1.1" xmlns="http://www.w3.org/2000/svg" xmlns:xlink="http://www.w3.org/1999/xlink">
<title>icon-place</title>
<desc>Created using Figma</desc>
<g id="Canvas" transform="translate(-43481 -2844)">
<g id="icon-place">
<g id="Group">
<g id="Vector">
<use xlink:href="#path0_fill" transform="translate(43500.2 2873.71)" fill="#CBA646"/>
</g>
<g id="Vector">
<use xlink:href="#path1_fill" transform="translate(43481 2844)" fill="#FFFFFF"/>
</g>
</g>
</g>
</g>
<defs>
<path id="path0_fill" d="M 37.3254 1.7956e-05C 33.2157 1.7956e-05 29.3996 1.76511 26.4641 5.0012C 23.5287 1.76511 19.7126 1.7956e-05 15.6029 1.7956e-05C 8.55781 1.7956e-05 2.2466 5.29539 0.485322 12.356C -0.395316 16.0333 -0.542089 22.0643 4.15464 29.1248C 8.41106 35.4499 15.4562 41.1867 25.29 46.335C 25.7303 46.4821 26.0238 46.6292 26.4641 46.6292C 26.9045 46.6292 27.3448 46.4821 27.6383 46.335C 37.4721 41.1867 44.664 35.4499 48.7736 29.1248C 53.4704 22.0643 53.3236 16.1804 52.443 12.356C 50.6817 5.29539 44.2237 1.7956e-05 37.3254 1.7956e-05ZM 5.47564 13.6799C 6.64982 8.82571 10.9062 5.29541 15.4562 5.29541C 18.832 5.29541 21.9142 7.20766 24.1158 10.7379C 24.5561 11.4734 25.4368 11.9147 26.3174 11.9147C 27.198 11.9147 28.0787 11.4734 28.519 10.7379C 30.7206 7.20766 33.8028 5.29541 37.1786 5.29541C 41.7285 5.29541 45.9849 8.82571 47.1591 13.6799C 49.3607 22.6527 41.5818 32.8022 26.3174 40.8925C 11.053 32.8022 3.27404 22.6527 5.47564 13.6799Z"/>
<path id="path1_fill" d="M 45.4996 0C 20.4015 0 3.58332e-05 20.4462 3.58332e-05 45.5995C 3.58332e-05 70.1644 41.8303 116.205 43.5915 118.117C 44.0318 118.706 44.7658 119 45.4996 119C 46.2335 119 46.9674 118.706 47.4077 118.117C 49.1689 116.205 90.9993 70.1644 90.9993 45.5995C 91.146 20.4462 70.5978 0 45.4996 0ZM 85.7154 45.7466C 85.7154 54.8665 78.5235 69.576 64.8736 88.4042C 57.0946 99.1421 49.169 108.409 45.4996 112.528C 41.9771 108.409 34.0513 99.2892 26.1256 88.4042C 12.4757 69.576 5.28383 54.8665 5.28383 45.7466C 5.28383 23.5352 23.3369 5.44254 45.4996 5.44254C 67.6624 5.29544 85.7154 23.3881 85.7154 45.7466Z"/>
</defs>
</svg>
