<svg width="110" height="143" viewBox="0 0 110 143" version="1.1" xmlns="http://www.w3.org/2000/svg" xmlns:xlink="http://www.w3.org/1999/xlink">
<title>icon-cocktail</title>
<desc>Created using Figma</desc>
<g id="Canvas" transform="translate(-43465 -3373)">
<g id="icon-cocktail">
<g id="Vector">
<use xlink:href="#path0_fill" transform="translate(43527.2 3386.33)" fill="#FFFFFF"/>
</g>
<g id="Group">
<g id="Vector">
<use xlink:href="#path1_fill" transform="translate(43465.2 3386.33)" fill="#FFFFFF"/>
</g>
<g id="Vector">
<use xlink:href="#path2_fill" transform="translate(43486.2 3404.84)" fill="#FFFFFF"/>
</g>
<g id="Vector">
<use xlink:href="#path3_fill" transform="translate(43486.7 3373.12)" fill="#FFFFFF"/>
</g>
<g id="Vector">
<use xlink:href="#path3_fill" transform="translate(43554 3393)" fill="#CBA646"/>
</g>
<g id="Vector">
<use xlink:href="#path2_fill" transform="translate(43486 3373)" fill="#CBA646"/>
</g>
<g id="Vector">
<use xlink:href="#path2_fill" transform="translate(43486 3405)" fill="#CBA646"/>
</g>
</g>
</g>
</g>
<defs>
<path id="path0_fill" d="M 26.3951 111.541L 26.3951 87.3321C 36.199 86.1317 43.8482 78.3288 43.8482 68.9254L 43.8482 2.40088C 43.8482 1.00036 42.6631 0 41.2626 0L 6.46411 0C 4.95582 0 3.87846 1.1004 3.87846 2.40088L 3.87846 68.9254C 3.87846 78.3288 11.5277 86.1317 21.3316 87.3321L 21.3316 111.541C 10.6658 111.941 3.28782e-06 114.842 3.28782e-06 120.644C 3.28782e-06 126.847 12.3895 129.648 23.9172 129.648C 35.4449 129.648 47.7267 126.847 47.7267 120.644C 47.619 114.842 37.0609 111.941 26.3951 111.541ZM 19.5001 7.20265C 19.5001 8.00294 18.7459 8.7032 17.884 8.7032C 17.0222 8.7032 16.3757 8.10298 16.3757 7.20265C 16.3757 6.40235 17.0222 5.7021 17.884 5.7021C 18.7459 5.7021 19.5001 6.40235 19.5001 7.20265ZM 11.6354 4.9018C 11.3122 5.60206 11.2045 6.40235 11.2045 7.20265C 11.2045 10.7039 14.221 13.605 17.9918 13.605C 21.7625 13.605 24.8868 10.7039 24.8868 7.20265C 24.8868 6.40235 24.6714 5.60206 24.4559 4.9018L 38.7847 4.9018L 38.7847 9.40346C 37.4918 8.10298 35.7681 7.30269 33.7211 7.30269C 29.9504 7.30269 26.8261 10.1037 26.8261 13.605C 26.8261 17.1063 29.9504 20.0074 33.7211 20.0074C 35.7681 20.0074 37.4918 19.2071 38.7847 17.9066L 38.7847 33.2122L 22.1934 33.2122C 23.9172 32.0118 24.9946 30.1111 24.9946 27.9103C 24.9946 24.2089 21.7625 21.2078 17.7763 21.2078C 13.7901 21.2078 10.5581 24.2089 10.5581 27.9103C 10.5581 30.1111 11.6354 32.0118 13.3592 33.2122L 9.04975 33.2122L 9.04975 4.9018L 11.6354 4.9018L 11.6354 4.9018ZM 35.0139 13.605C 35.0139 14.4053 34.2598 15.1056 33.3979 15.1056C 32.536 15.1056 31.7819 14.4053 31.7819 13.605C 31.7819 12.8047 32.4283 12.2045 33.3979 12.2045C 34.3675 12.2045 35.0139 12.8047 35.0139 13.605ZM 15.7293 27.9103C 15.7293 26.9099 16.5912 26.1096 17.6686 26.1096C 18.7459 26.1096 19.6078 26.9099 19.6078 27.9103C 19.6078 28.9106 18.7459 29.7109 17.6686 29.7109C 16.5912 29.6109 15.7293 28.9106 15.7293 27.9103ZM 9.04975 68.9254L 9.04975 38.114L 38.5692 38.114L 38.5692 68.9254C 38.5692 76.5282 31.9973 82.6304 23.8095 82.6304C 15.6216 82.6304 9.04975 76.5282 9.04975 68.9254ZM 23.8095 124.746C 11.7431 124.746 5.4945 121.745 5.17129 120.644C 5.38676 119.544 10.6658 116.843 21.2238 116.443L 21.2238 119.744C 21.2238 121.145 22.4089 122.145 23.8095 122.145C 25.21 122.145 26.3951 121.045 26.3951 119.744L 26.3951 116.443C 36.8454 116.843 42.1245 119.544 42.3399 120.544C 42.0167 121.745 35.7681 124.746 23.8095 124.746Z"/>
<path id="path1_fill" d="M 26.3951 111.541L 26.3951 87.3321C 36.199 86.1317 43.8482 78.3288 43.8482 68.9254L 43.8482 2.40088C 43.8482 1.00036 42.6631 0 41.2626 0L 6.46411 0C 4.95581 0 3.87847 1.1004 3.87847 2.40088L 3.87847 68.9254C 3.87847 78.3288 11.5277 86.1317 21.3316 87.3321L 21.3316 111.541C 10.6658 111.941 -3.28782e-06 114.842 -3.28782e-06 120.644C -3.28782e-06 126.847 12.3895 129.648 23.9172 129.648C 35.4449 129.648 47.7267 126.847 47.7267 120.644C 47.5112 114.842 36.9532 111.941 26.3951 111.541ZM 20.1465 10.5039C 20.1465 11.3042 19.3923 12.0044 18.5304 12.0044C 17.6686 12.0044 16.9144 11.3042 16.9144 10.5039C 16.9144 9.80361 17.6686 9.10336 18.5304 9.10336C 19.3923 9.10336 20.1465 9.70357 20.1465 10.5039ZM 15.4061 4.9018C 13.1437 5.90217 11.6354 8.00295 11.6354 10.5039C 11.6354 14.0052 14.7597 16.9062 18.5304 16.9062C 22.3012 16.9062 25.4255 14.0052 25.4255 10.5039C 25.4255 8.10298 23.9172 6.0022 21.6548 4.9018L 38.4614 4.9018L 38.4614 33.2122L 8.94202 33.2122L 8.94202 4.9018L 15.4061 4.9018ZM 8.94202 68.9254L 8.94202 38.114L 38.4614 38.114L 38.4614 68.9254C 38.4614 76.5282 31.8896 82.6304 23.7017 82.6304C 15.5139 82.6304 8.94202 76.5282 8.94202 68.9254ZM 23.7017 124.746C 11.6354 124.746 5.38676 121.745 5.06355 120.644C 5.27903 119.544 10.558 116.843 21.1161 116.443L 21.1161 119.744C 21.1161 121.145 22.3012 122.145 23.7017 122.145C 25.1023 122.145 26.2874 121.045 26.2874 119.744L 26.2874 116.443C 36.7377 116.843 42.0167 119.544 42.2322 120.544C 41.909 121.745 35.6603 124.746 23.7017 124.746Z"/>
<path id="path2_fill" d="M 7.21826 13.4049C 11.2045 13.4049 14.4365 10.4038 14.4365 6.70246C 14.4365 3.10114 11.2045 -2.84322e-14 7.21826 -2.84322e-14C 3.23206 -2.84322e-14 -3.28782e-06 3.0011 -3.28782e-06 6.70246C -3.28782e-06 10.4038 3.23206 13.4049 7.21826 13.4049ZM 7.21826 5.00184C 8.18787 5.00184 9.15749 5.90218 9.15749 6.80251C 9.15749 7.80288 8.29561 8.60317 7.21826 8.60317C 6.14091 8.60317 5.27902 7.80288 5.27902 6.80251C 5.38676 5.80214 6.24864 5.00184 7.21826 5.00184Z"/>
<path id="path3_fill" d="M 6.89505 12.8047C 10.6658 12.8047 13.6824 9.90364 13.6824 6.40235C 13.6824 2.90106 10.6658 3.05288e-06 6.89505 3.05288e-06C 3.12432 3.05288e-06 -3.28782e-06 2.90106 -3.28782e-06 6.40235C -3.28782e-06 9.90364 3.12432 12.8047 6.89505 12.8047ZM 6.89505 5.00184C 7.64919 5.00184 8.40334 5.7021 8.40334 6.5024C 8.40334 7.30269 7.75693 8.00295 6.89505 8.00295C 6.03317 8.00295 5.27902 7.30269 5.27902 6.5024C 5.27902 5.60207 6.03317 5.00184 6.89505 5.00184Z"/>
</defs>
</svg>
