<svg width="284" height="467" viewBox="0 0 284 467" version="1.1" xmlns="http://www.w3.org/2000/svg" xmlns:xlink="http://www.w3.org/1999/xlink">
<title>mobile-title</title>
<desc>Created using Figma</desc>
<g id="Canvas" transform="translate(-45443 -899)">
<g id="mobile-title">
<use xlink:href="#path0_fill" transform="translate(45443.9 899.663)" fill="#FFFFFF"/>
<use xlink:href="#path1_fill" transform="translate(45443.9 899.663)" fill="#FFFFFF"/>
<use xlink:href="#path2_fill" transform="translate(45443.9 899.663)" fill="#FFFFFF"/>
<use xlink:href="#path3_fill" transform="translate(45443.9 899.663)" fill="#FFFFFF"/>
<use xlink:href="#path4_fill" transform="translate(45443.9 899.663)" fill="#FFFFFF"/>
<use xlink:href="#path5_fill" transform="translate(45443.9 899.663)" fill="#FFFFFF"/>
<use xlink:href="#path6_fill" transform="translate(45443.9 899.663)" fill="#FFFFFF"/>
<use xlink:href="#path7_fill" transform="translate(45443.9 899.663)" fill="#FFFFFF"/>
<use xlink:href="#path8_fill" transform="translate(45443.9 899.663)" fill="#FFFFFF"/>
<use xlink:href="#path9_fill" transform="translate(45443.9 899.663)" fill="#FFFFFF"/>
<use xlink:href="#path10_fill" transform="translate(45443.9 899.663)" fill="#FFFFFF"/>
<use xlink:href="#path11_fill" transform="translate(45443.9 899.663)" fill="#FFFFFF"/>
<use xlink:href="#path12_fill" transform="translate(45443.9 899.663)" fill="#FFFFFF"/>
<use xlink:href="#path13_fill" transform="translate(45443.9 899.663)" fill="#FFFFFF"/>
</g>
</g>
<defs>
<path id="path0_fill" d="M 22.39 176.337C 24.64 175.337 25.89 173.587 26.14 171.587C 26.89 168.087 28.89 165.087 28.89 161.337C 28.89 158.337 30.89 155.087 31.14 151.587C 31.39 150.337 30.64 149.087 31.39 147.837C 32.89 144.337 32.64 140.337 33.64 136.587C 34.39 133.837 34.39 131.087 34.64 128.337C 35.14 126.587 35.39 124.587 35.64 122.837C 36.14 121.087 37.39 118.837 37.14 117.337C 36.64 115.587 37.39 114.337 37.64 113.087C 38.14 110.087 37.89 107.087 39.39 104.337C 40.14 102.587 39.39 100.337 39.89 98.5867C 40.39 97.5867 41.14 97.0867 40.64 95.8367C 40.14 94.8367 40.89 93.8367 41.14 92.5867C 41.89 91.3367 42.39 89.5867 41.89 88.3367C 40.64 86.0867 43.64 84.3367 42.39 81.8367C 41.89 80.8367 43.64 78.5867 43.64 76.8367C 43.64 75.3367 43.39 73.5867 43.89 72.3367C 44.89 68.3367 46.14 64.5867 46.39 60.5867C 46.39 58.8367 46.89 57.8367 47.14 56.3367C 48.14 53.3367 48.39 50.5867 48.89 47.5867C 49.39 43.8367 49.89 40.5867 50.64 37.0867C 50.89 36.0867 50.64 34.8367 51.14 33.8367C 51.89 31.3367 52.39 28.5867 52.39 25.8367C 52.64 24.5867 52.14 23.3367 52.64 22.5867C 54.14 20.0867 54.14 17.3367 54.64 14.5867L 56.64 6.83671C 56.64 5.58672 57.14 4.08671 57.14 3.0867C 56.64 1.33671 55.39 -0.413296 52.64 0.0867123C 51.39 -0.163285 50.64 0.336709 50.39 2.08672C 49.89 4.58671 48.39 6.83671 48.39 9.58671C 48.39 11.8367 46.89 14.0867 46.89 16.5867C 46.89 18.5867 46.14 20.8367 45.64 22.8367L 44.89 25.5867C 44.64 27.0867 45.14 29.0867 44.64 30.3367C 43.39 33.8367 43.14 37.0867 42.39 40.5867C 41.89 43.3367 41.39 46.0867 41.39 48.5867C 41.14 52.3367 39.89 55.8367 39.39 59.5867C 38.64 65.3367 36.89 70.5867 36.64 76.3367C 36.39 79.0867 36.14 81.8367 34.89 84.0867C 34.64 85.3367 35.64 86.0867 35.14 87.0867C 34.14 89.0867 34.39 91.3367 34.14 93.3367C 33.64 95.8367 32.89 98.0867 32.64 100.587C 32.64 104.337 31.64 108.087 30.89 111.837C 30.64 113.587 30.64 115.087 30.14 116.837C 29.39 119.337 28.39 122.337 28.39 125.087C 28.64 127.337 27.64 129.087 27.39 131.087C 27.14 136.087 25.64 141.087 24.89 146.087C 24.39 148.337 25.14 150.587 24.39 152.587C 23.89 153.337 23.64 154.087 23.64 155.087L 22.39 162.337C 21.89 163.837 21.14 165.587 20.64 166.837C 20.39 167.337 20.89 168.087 20.14 168.087C 19.39 168.087 19.64 167.587 19.39 167.087L 18.14 161.837C 17.64 159.587 16.89 157.087 16.89 154.837C 16.89 153.337 16.14 152.337 16.39 150.837C 16.64 148.587 15.14 146.837 15.14 144.337C 14.89 141.337 13.14 138.337 13.14 135.087C 13.14 133.087 12.64 131.587 12.89 129.337C 13.39 127.337 12.64 125.087 12.64 123.087C 12.64 120.837 12.89 118.087 12.39 116.587C 12.39 116.587 11.14 113.087 11.14 112.587C 10.89 110.837 12.14 109.337 11.89 107.337C 11.39 104.337 11.39 101.337 10.89 98.0867C 10.89 97.0867 12.14 95.8367 11.64 95.0867C 10.39 92.5867 11.39 89.8367 10.64 87.0867C 9.89 84.0867 10.39 80.5867 10.39 77.5867C 10.39 76.0867 9.89 74.5867 10.89 73.0867C 11.89 71.8367 11.89 70.3367 10.89 68.8367C 10.39 68.0867 10.39 67.3367 10.39 66.5867C 11.14 64.5867 10.39 62.8367 10.89 60.8367C 12.14 57.5867 10.14 54.3367 10.39 51.0867C 10.64 49.0867 11.64 47.3367 10.89 45.5867C 9.89 43.0867 11.14 40.8367 11.39 38.5867C 11.39 37.0867 10.89 36.0867 11.39 34.8367C 11.89 33.3367 11.64 31.8367 11.39 30.5867C 10.89 28.0867 10.39 25.5867 10.39 22.8367C 10.64 21.3367 11.89 19.3367 10.89 17.8367C 10.14 16.3367 10.14 14.3367 9.14 12.8367C 7.89 9.58671 6.64 8.8367 3.39 10.5867C 1.89 11.5867 0.64 13.8367 1.64 16.0867C 1.89 16.5867 2.14 17.0867 1.89 17.5867C 1.14 19.3367 0.890001 20.8367 1.14 22.3367C 1.64 25.5867 0.64 28.8367 1.14 31.8367C 2.14 36.8367 0.14 41.5867 0.64 46.5867C 0.64 48.0867 -0.36 48.8367 0.14 49.8367C 1.39 51.5867 0.64 53.5867 0.890001 55.8367C 1.39 57.5867 0.64 59.8367 0.64 61.8367C 0.64 64.0867 -0.11 66.3367 0.64 68.8367C 1.14 71.0867 -0.11 74.0867 0.390001 76.0867C 0.64 79.0867 -0.11 82.0867 0.64 85.0867C 0.64 85.8367 -0.11 87.0867 0.390001 87.5867C 0.64 89.3367 1.14 90.8367 1.14 92.5867C 1.39 96.0867 1.39 99.5867 1.39 102.837C 1.39 105.337 1.89 108.087 1.39 110.587C 1.14 112.837 1.64 115.087 1.64 117.337C 1.64 120.587 2.39 123.837 2.89 126.837C 3.64 130.087 3.14 133.587 4.14 136.587C 4.89 138.837 5.39 141.337 5.64 143.587C 6.64 147.337 7.64 151.087 8.14 154.587C 8.89 156.837 9.39 159.087 9.89 161.587C 10.39 164.337 11.64 167.087 12.64 169.587C 12.89 171.087 13.39 172.837 14.39 174.337C 16.64 177.837 18.89 178.087 22.39 176.337Z"/>
<path id="path1_fill" d="M 58.1361 85.3367C 59.8861 85.3367 61.6361 84.5867 61.6361 81.8367C 61.6361 80.0867 59.8861 78.3367 58.1361 78.3367C 56.8861 78.3367 54.8861 79.8367 54.8861 81.8367C 54.6361 84.3367 56.6361 85.3367 58.1361 85.3367ZM 56.3861 148.087C 57.3861 147.587 58.8861 147.337 59.1361 146.337C 60.3861 143.837 59.6361 141.087 59.8861 138.587C 59.8861 137.837 58.6361 137.837 58.6361 136.587C 58.8861 134.087 58.8861 131.337 58.6361 128.837C 58.6361 125.337 58.6361 121.587 59.1361 118.087C 59.3861 116.587 58.6361 115.837 58.6361 114.337C 58.8861 111.337 59.3861 108.587 59.3861 105.587C 59.3861 104.587 59.3861 103.837 59.8861 102.587C 60.3861 101.337 60.6361 100.087 60.6361 98.8367C 60.1361 96.0867 57.8861 95.0867 55.6361 94.3367C 55.3861 94.0867 55.1361 93.5867 54.3861 94.0867C 51.6361 96.0867 50.8861 99.0867 50.3861 102.337C 49.6361 105.837 49.3861 109.087 49.6361 112.337C 49.6361 116.087 49.3861 119.837 49.6361 123.337C 50.1361 126.087 50.8861 129.337 50.8861 132.587C 50.8861 135.587 51.6361 138.337 51.8861 141.337C 52.1361 143.087 51.1361 145.837 53.6361 147.337C 54.3861 147.587 55.3861 148.587 56.3861 148.087Z"/>
<path id="path2_fill" d="M 77.138 151.337C 77.888 150.837 78.888 150.337 78.888 149.087C 79.138 148.587 78.388 147.837 78.888 147.087C 79.888 145.587 78.888 143.837 79.388 142.587C 79.638 141.587 79.888 140.087 79.638 139.837C 78.888 138.087 79.638 136.337 79.638 135.337C 79.888 133.087 79.888 130.837 80.138 128.837L 81.638 120.837C 82.388 118.087 83.138 115.087 84.388 112.337C 84.888 111.087 84.388 109.337 85.388 108.087C 86.888 106.337 87.138 103.587 88.138 100.837C 88.888 98.8367 90.138 97.3367 91.138 95.8367C 91.888 94.3367 94.138 93.3367 95.638 92.0867C 96.138 91.0867 95.638 90.0867 95.138 89.3367C 94.888 88.8367 93.888 87.8367 93.638 88.0867C 92.388 88.5867 90.888 88.8367 89.638 89.8367C 87.888 91.3367 86.138 93.0867 84.888 95.0867C 83.138 97.8367 82.388 100.587 81.638 103.837C 80.638 106.087 79.638 108.087 79.638 110.087C 79.138 112.337 78.138 114.837 77.888 117.087C 77.638 117.587 77.638 117.837 77.638 118.087L 77.138 118.087C 76.888 117.587 76.638 117.087 76.638 116.587C 76.888 114.587 77.638 112.337 77.138 110.337C 76.888 108.087 77.638 106.337 77.888 104.087L 77.888 98.8367C 78.138 96.3367 78.388 93.5867 78.888 91.0867L 79.388 86.5867C 79.638 84.0867 78.138 83.3367 76.638 82.5867C 75.388 81.8367 74.388 83.3367 73.888 83.8367C 72.388 85.3367 72.388 87.0867 72.138 88.5867C 71.638 91.8367 71.388 95.0867 71.138 97.8367C 70.888 99.5867 70.638 100.837 70.638 102.587C 70.388 103.587 69.888 105.337 70.388 106.337C 71.138 107.587 70.888 109.337 70.388 110.837C 70.388 112.337 71.388 113.837 70.638 115.337C 70.388 117.337 70.388 119.337 70.388 121.587C 70.388 122.587 71.638 123.837 70.888 125.087C 70.388 125.587 70.388 126.087 70.638 126.837C 71.388 127.837 71.388 128.837 71.138 129.837C 70.638 132.087 72.138 134.337 71.888 136.337C 71.638 138.087 72.138 139.837 72.138 141.087C 72.638 144.087 72.888 146.837 73.888 149.587C 74.388 151.337 76.138 152.337 77.138 151.337Z"/>
<path id="path3_fill" d="M 110.964 228.337C 113.964 227.837 116.464 226.837 117.964 224.837C 120.464 220.837 124.214 217.587 125.214 212.837C 125.964 210.587 126.964 209.087 126.964 207.587C 126.714 203.837 128.964 201.337 129.214 198.087C 129.714 194.837 131.214 192.087 131.214 188.837C 131.214 188.087 131.214 187.087 131.464 186.087C 131.714 184.087 132.214 182.087 132.714 180.087C 133.214 177.587 132.464 175.337 132.964 173.337C 133.214 170.587 133.464 170.837 133.464 168.087C 133.214 165.337 133.464 163.837 133.464 160.837C 132.964 157.087 134.464 155.837 133.464 152.087C 133.214 151.837 132.964 149.337 133.214 148.587L 133.714 146.837C 134.714 144.587 133.964 142.587 133.464 135.837C 132.964 134.087 134.714 132.337 136.214 130.087C 137.964 127.587 140.714 126.587 141.964 123.337C 144.464 121.837 144.214 121.337 146.214 119.087C 148.214 116.587 147.964 116.837 150.214 114.587C 151.964 112.837 152.714 113.087 154.714 111.337C 155.714 110.337 157.714 108.837 157.714 106.087C 158.214 101.087 152.464 105.837 150.714 107.087C 147.964 109.087 147.214 108.837 144.964 111.587C 143.464 113.837 143.714 113.587 140.714 116.087C 138.714 118.087 139.464 116.837 137.714 118.837C 136.714 120.087 135.214 122.337 133.214 122.337C 132.464 122.337 132.964 119.837 132.214 119.087C 130.964 117.837 132.214 117.837 132.214 115.587C 132.214 112.587 130.964 107.587 130.714 105.337C 129.714 101.837 129.214 98.3367 127.964 95.0867C 126.964 93.0867 126.714 93.3367 124.464 92.5867C 123.464 92.5867 121.964 93.5867 121.464 94.5867C 119.714 98.3367 118.214 102.087 116.714 105.837C 115.714 108.587 114.964 111.587 113.714 114.087C 111.964 117.587 110.964 121.337 108.464 124.337L 106.964 125.837C 106.214 126.587 106.214 124.837 105.714 124.587C 104.964 123.337 105.964 122.087 105.714 121.587C 104.214 119.087 105.714 116.587 105.464 114.337C 105.214 112.087 106.964 109.587 106.464 107.087C 106.214 103.337 108.464 100.337 108.964 96.5867C 109.464 93.5867 111.464 90.8367 113.214 88.0867C 114.464 85.8367 115.964 84.0867 117.464 82.0867C 118.714 79.8367 121.464 79.8367 122.714 82.0867C 123.214 82.8367 123.964 83.3367 124.714 83.0867C 128.464 82.0867 127.214 78.8367 126.714 77.5867C 125.464 75.3367 123.714 72.3367 119.964 73.3367C 118.214 72.8367 116.464 73.5867 114.964 74.0867C 110.964 76.3367 107.964 79.0867 105.214 82.5867C 103.714 84.3367 103.714 87.3367 101.714 89.0867C 100.714 90.0867 100.464 91.0867 100.464 92.0867C 100.214 93.5867 99.4642 95.0867 99.4642 96.8367C 99.2142 100.337 95.7142 103.337 97.2142 107.087C 97.2142 107.587 96.9642 108.087 96.9642 108.087C 96.4642 110.587 95.7142 112.837 95.9642 115.087C 95.9642 115.837 96.7142 117.587 96.2142 118.337C 95.2142 120.587 97.9642 121.837 97.4642 123.837C 97.2142 124.587 96.7142 125.587 97.9642 126.587C 98.4642 127.087 98.7142 127.837 99.2142 128.587C 100.214 131.337 102.214 133.087 105.214 133.337C 107.964 133.837 112.214 130.587 113.214 127.587L 117.214 120.087C 119.214 115.587 120.214 111.337 122.214 106.837C 122.464 106.587 122.464 106.337 122.714 106.337C 123.214 106.087 123.464 106.587 123.464 106.837C 123.964 111.837 124.714 116.587 124.714 121.337C 124.714 124.837 124.964 127.587 124.714 131.087C 124.214 133.587 122.714 134.837 121.714 136.837C 120.464 138.587 118.964 140.087 118.214 142.337C 116.714 146.087 113.964 149.337 112.464 153.087C 110.464 156.837 108.214 160.337 106.714 164.087C 105.464 167.087 104.214 170.337 103.714 173.837C 102.964 176.837 101.464 179.837 100.714 183.337L 98.4642 196.837C 98.2142 199.087 97.4642 201.337 98.2142 203.837C 98.9642 205.587 97.9642 208.087 98.2142 210.587C 98.7142 213.837 99.2142 217.087 100.464 220.337C 101.464 222.587 102.964 225.087 104.964 226.337C 106.714 227.587 108.714 228.587 110.964 228.337ZM 110.464 222.837C 108.464 222.337 106.964 220.837 105.714 218.337C 104.714 215.337 103.964 212.837 103.214 209.587C 103.214 208.337 104.214 207.337 103.714 205.837C 102.964 203.087 103.214 200.337 103.964 197.337C 104.714 192.837 105.214 187.837 106.464 183.087C 107.214 180.337 108.714 177.837 108.964 174.587C 108.964 172.337 110.714 170.087 111.714 167.837C 112.214 166.337 112.714 164.587 113.214 163.337C 114.464 161.337 115.214 159.087 116.464 156.837L 119.964 150.837C 121.214 148.337 122.464 145.837 123.964 143.587C 124.214 143.087 124.714 142.837 125.214 142.337C 125.464 143.087 125.464 143.837 124.964 144.587C 124.714 144.587 126.214 148.087 125.714 149.337C 125.464 151.587 125.464 155.837 125.464 159.337C 125.464 161.337 126.714 163.337 125.464 165.087C 125.214 168.587 125.964 169.337 125.714 171.587C 125.464 175.337 125.464 179.087 125.464 183.087C 125.464 183.587 125.464 183.837 125.214 184.087C 124.214 185.837 124.714 187.337 124.964 189.087C 124.964 191.087 124.964 193.087 124.214 194.337C 123.464 196.087 123.214 198.087 122.714 199.587C 121.714 203.587 120.714 207.587 119.464 211.337C 117.964 215.337 115.714 219.087 112.464 222.087C 111.964 222.587 111.464 222.837 110.464 222.837Z"/>
<path id="path4_fill" d="M 160.919 85.3367C 162.669 85.3367 164.419 84.5867 164.419 81.8367C 164.419 80.0867 162.669 78.3367 160.919 78.3367C 159.669 78.3367 157.669 79.8367 157.669 81.8367C 157.419 84.3367 159.419 85.3367 160.919 85.3367ZM 159.169 148.087C 160.169 147.587 161.669 147.337 161.919 146.337C 163.169 143.837 162.419 141.087 162.669 138.587C 162.669 137.837 161.419 137.837 161.419 136.587C 161.669 134.087 161.669 131.337 161.419 128.837C 161.419 125.337 161.419 121.587 161.919 118.087C 162.169 116.587 161.419 115.837 161.419 114.337C 161.669 111.337 162.169 108.587 162.169 105.587C 162.169 104.587 162.169 103.837 162.669 102.587C 163.169 101.337 163.419 100.087 163.419 98.8367C 162.919 96.0867 160.669 95.0867 158.419 94.3367C 158.169 94.0867 157.919 93.5867 157.169 94.0867C 154.419 96.0867 153.669 99.0867 153.169 102.337C 152.419 105.837 152.169 109.087 152.419 112.337C 152.419 116.087 152.169 119.837 152.419 123.337C 152.919 126.087 153.669 129.337 153.669 132.587C 153.669 135.587 154.419 138.337 154.669 141.337C 154.919 143.087 153.919 145.837 156.419 147.337C 157.169 147.587 158.169 148.587 159.169 148.087Z"/>
<path id="path5_fill" d="M 203.171 167.087C 204.671 167.087 206.421 168.087 207.671 166.587C 209.421 164.587 208.171 162.587 208.171 160.837C 208.671 157.337 208.421 154.337 208.921 150.837C 209.421 144.337 208.921 137.587 209.671 131.087C 209.921 129.087 210.171 127.087 210.171 125.087C 210.171 123.587 211.671 123.337 211.421 122.337C 210.921 120.337 210.671 118.087 211.421 115.837C 212.421 112.587 213.171 109.087 213.421 105.837C 213.421 103.587 214.671 101.587 214.171 99.0867C 213.421 97.5867 214.171 94.8367 214.671 92.8367C 215.171 90.3367 214.921 87.8367 214.921 85.3367C 214.921 81.5867 213.671 78.5867 209.921 76.5867C 209.671 76.5867 209.671 76.0867 208.671 76.0867C 205.671 76.3367 203.671 78.0867 202.171 80.5867C 199.171 84.3367 196.671 88.5867 194.171 92.8367C 191.671 97.0867 189.921 101.337 187.921 105.837L 185.671 113.087C 184.671 117.337 183.171 121.337 181.921 125.337C 181.921 125.587 181.671 125.837 181.671 126.087L 181.171 125.337C 180.671 124.087 182.671 122.837 181.921 121.587C 180.671 119.087 181.421 116.837 181.171 114.587C 180.921 112.337 181.171 109.837 181.671 108.087C 182.171 105.837 181.171 104.087 181.921 102.337C 182.671 99.3367 182.421 96.0867 182.671 93.0867C 182.421 92.3367 183.171 91.3367 182.421 90.3367C 181.171 89.0867 179.921 88.8367 178.171 89.0867C 176.421 89.8367 175.671 92.0867 175.421 93.3367C 174.671 96.5867 174.171 100.087 173.671 103.337C 173.171 107.087 173.921 110.837 173.171 114.587C 172.921 116.087 173.171 118.087 173.421 120.087C 173.421 122.337 173.171 124.587 173.671 127.087C 173.921 129.337 174.171 131.587 173.671 134.087C 173.421 135.087 174.421 135.837 174.421 137.337C 174.171 138.837 174.171 140.337 174.921 142.087C 175.671 142.837 175.671 144.087 175.421 145.087C 175.421 146.587 175.921 148.587 176.921 149.087C 178.671 149.837 181.171 149.587 182.421 147.837C 183.171 146.587 183.921 144.587 183.921 142.837C 183.671 140.587 183.921 138.587 184.671 136.837C 185.421 133.337 186.171 129.837 187.421 126.337C 188.171 123.087 189.421 120.087 190.171 116.587C 190.671 113.837 191.421 111.087 192.671 108.587C 193.421 105.837 194.421 103.337 195.671 101.087C 196.671 98.5867 198.171 96.5867 199.421 94.5867C 201.171 91.0867 202.921 87.5867 206.171 84.8367C 206.171 84.8367 206.421 84.5867 206.671 84.5867C 206.671 84.8367 206.921 85.0867 206.921 85.3367C 206.171 87.0867 206.671 88.8367 206.421 90.8367C 205.671 94.0867 205.171 97.5867 204.921 101.087C 204.921 104.837 203.671 108.587 203.171 112.337C 202.671 115.587 202.921 119.087 202.171 122.587C 201.171 125.837 202.171 129.837 201.421 133.337C 201.171 135.337 202.171 137.587 201.671 139.587C 200.921 141.837 201.671 144.087 201.671 146.587C 201.421 148.837 200.921 154.587 200.921 157.337C 200.921 160.837 200.921 162.087 201.671 164.337C 202.171 165.587 202.421 166.837 203.171 167.087Z"/>
<path id="path6_fill" d="M 230.988 85.3367C 232.738 85.3367 234.488 84.5867 234.488 81.8367C 234.488 80.0867 232.738 78.3367 230.988 78.3367C 229.738 78.3367 227.738 79.8367 227.738 81.8367C 227.488 84.3367 229.488 85.3367 230.988 85.3367ZM 229.238 148.087C 230.238 147.587 231.738 147.337 231.988 146.337C 233.238 143.837 232.488 141.087 232.738 138.587C 232.738 137.837 231.488 137.837 231.488 136.587C 231.738 134.087 231.738 131.337 231.488 128.837C 231.488 125.337 231.488 121.587 231.988 118.087C 232.238 116.587 231.488 115.837 231.488 114.337C 231.738 111.337 232.238 108.587 232.238 105.587C 232.238 104.587 232.238 103.837 232.738 102.587C 233.238 101.337 233.488 100.087 233.488 98.8367C 232.988 96.0867 230.738 95.0867 228.488 94.3367C 228.238 94.0867 227.988 93.5867 227.238 94.0867C 224.488 96.0867 223.738 99.0867 223.238 102.337C 222.488 105.837 222.238 109.087 222.488 112.337C 222.488 116.087 222.238 119.837 222.488 123.337C 222.988 126.087 223.738 129.337 223.738 132.587C 223.738 135.587 224.488 138.337 224.738 141.337C 224.988 143.087 223.988 145.837 226.488 147.337C 227.238 147.587 228.238 148.587 229.238 148.087Z"/>
<path id="path7_fill" d="M 254.99 149.587C 258.24 148.587 260.74 146.587 262.74 144.337C 264.74 141.587 266.99 138.837 268.99 135.837C 270.49 133.087 272.74 131.087 274.49 128.587C 276.74 125.337 278.49 122.337 280.74 119.587C 282.49 117.087 280.99 118.837 282.49 116.337C 283.24 115.087 283.24 113.587 282.49 112.837C 281.99 112.087 281.24 111.337 279.74 112.337C 277.74 113.587 277.24 115.087 276.24 115.587C 273.74 118.087 271.74 121.837 269.74 124.837C 267.49 127.587 264.99 130.337 262.99 133.337C 260.74 136.587 258.24 140.087 254.74 142.337C 252.74 143.337 250.24 141.587 249.99 139.587C 249.74 138.587 249.99 137.087 249.49 136.337C 249.24 136.087 248.99 135.837 248.74 135.337L 248.74 134.587C 248.99 131.837 248.99 129.337 248.49 126.587L 248.49 125.587C 248.74 123.837 251.49 123.337 252.74 122.587C 254.74 121.837 255.99 120.337 257.74 119.337C 261.49 117.087 263.74 113.837 265.24 110.337C 266.74 107.337 268.49 103.587 267.99 99.5867C 267.74 97.5867 267.99 95.8367 266.49 94.3367C 263.99 91.8367 258.74 90.3367 256.24 92.5867C 254.74 93.8367 252.24 94.3367 251.24 96.8367C 250.24 100.087 245.74 100.837 245.99 104.837C 245.99 105.087 245.99 105.087 245.74 105.337C 243.49 107.587 243.24 110.837 242.24 113.837C 241.24 115.837 241.49 118.587 241.24 121.087C 240.99 123.087 240.74 125.337 240.74 127.587C 240.74 129.587 241.24 131.837 241.49 134.087C 240.99 136.087 241.99 137.837 242.24 139.837C 242.49 142.087 243.49 144.337 245.24 146.337C 247.99 149.337 250.99 151.087 254.99 149.587ZM 251.49 114.087C 251.74 112.837 252.24 111.337 253.24 109.837C 254.49 108.087 253.99 105.587 255.74 104.337C 257.24 103.087 262.24 95.0867 263.74 100.587C 264.24 102.087 263.74 103.087 262.74 104.337L 261.99 105.587C 261.74 106.587 260.74 108.337 260.74 109.337C 260.24 110.587 259.99 110.337 259.24 111.337C 258.99 111.837 258.74 112.087 258.24 112.587C 257.24 113.837 251.24 117.587 251.49 114.087Z"/>
<path id="path8_fill" d="M 76.641 451.087C 79.641 450.837 81.891 449.087 83.891 447.587C 88.141 444.087 90.141 439.337 92.141 434.587C 92.641 434.087 93.391 433.337 93.641 432.087C 93.891 430.837 94.641 429.337 95.391 427.837C 96.391 425.587 97.391 423.337 98.141 421.087C 98.891 418.587 100.641 416.837 100.891 414.337C 101.391 412.087 103.141 410.087 103.891 408.087C 104.891 404.337 106.391 400.587 108.141 397.087C 109.641 394.587 108.141 393.337 106.391 392.837C 104.641 392.337 103.141 393.587 102.641 395.087C 101.641 397.087 100.891 399.087 100.141 401.087C 98.391 404.337 96.891 407.587 95.641 410.837C 94.891 412.337 94.641 414.087 93.641 415.337C 92.391 417.337 91.891 419.587 90.891 421.587C 89.641 423.337 89.391 425.587 88.391 427.337L 84.641 434.837C 83.391 436.837 82.891 439.587 81.141 441.337C 79.391 443.337 77.391 444.837 74.891 443.587C 71.641 441.837 70.641 438.587 68.891 435.837C 68.141 434.587 67.891 433.337 67.141 432.087C 66.391 430.587 65.891 429.087 66.141 427.087C 66.391 424.337 63.641 422.337 63.891 419.587C 64.391 416.587 63.641 413.587 63.391 410.337C 63.391 407.837 63.391 405.337 63.141 402.837C 63.141 402.587 62.891 402.587 62.891 402.337C 61.641 399.337 62.641 396.087 62.141 392.837C 61.891 391.087 61.641 389.337 61.891 387.587C 61.891 385.837 61.641 384.087 61.891 382.587C 63.141 379.837 61.891 377.087 62.641 374.087C 63.141 372.587 62.891 370.587 62.641 368.587C 62.391 366.087 63.891 363.837 63.891 361.337C 64.141 358.587 64.641 355.337 65.641 352.337C 66.391 349.337 65.641 346.337 66.391 343.087C 66.891 341.587 66.641 339.837 66.891 339.087C 68.891 335.337 69.141 331.587 69.391 327.587C 69.391 326.837 69.141 326.087 69.641 325.837C 71.391 323.837 71.141 320.837 71.891 318.587C 72.641 315.837 73.641 312.837 74.391 309.837C 75.641 305.337 76.891 301.087 79.141 297.337C 80.891 294.087 80.891 290.587 83.141 287.837C 85.391 284.837 86.641 281.087 88.141 277.837C 88.391 276.837 88.641 275.587 89.141 275.587C 91.391 275.337 92.391 273.087 93.141 272.087C 94.641 270.587 96.141 268.337 97.891 267.087C 100.391 265.087 102.891 261.837 106.891 263.337C 108.641 264.087 110.641 264.837 111.641 267.337C 112.391 268.837 113.391 270.837 115.641 270.337C 117.391 269.837 117.391 268.337 117.141 267.087C 116.641 264.087 116.891 261.087 113.641 258.837C 112.391 258.087 110.641 256.837 109.641 255.837C 109.141 255.087 108.641 255.087 108.141 255.337C 107.391 256.087 106.641 255.587 106.141 254.837C 104.891 253.337 102.891 254.087 101.641 254.337C 99.641 254.587 97.391 255.337 95.641 257.087C 93.391 258.837 90.891 260.087 88.641 261.587C 85.641 264.087 83.891 268.087 80.641 270.337C 79.891 270.837 79.141 271.337 78.891 272.587C 78.391 275.587 76.641 277.837 74.891 280.337C 73.391 282.587 71.641 285.087 71.391 287.587C 71.391 291.587 67.641 294.087 67.641 298.087C 67.641 299.587 66.641 300.587 65.891 301.837C 64.891 303.337 65.641 305.337 64.391 306.837C 63.141 308.087 63.641 309.837 62.891 311.587C 62.391 312.337 63.891 314.087 62.391 314.337C 59.891 314.837 61.641 316.587 61.391 317.587C 61.141 319.087 61.391 320.587 60.641 321.837C 59.641 323.587 59.641 325.337 59.141 326.837C 58.641 328.837 58.641 331.337 58.141 333.587C 57.391 336.837 56.641 340.087 56.391 343.587C 55.891 345.837 55.641 348.337 55.641 350.587C 55.391 355.587 54.141 360.337 53.891 365.337C 53.641 368.837 53.141 372.337 53.391 375.837C 53.641 378.087 52.891 380.337 52.641 382.587C 52.391 384.337 53.141 386.337 52.641 388.337C 52.391 390.337 52.141 393.587 53.391 396.337C 53.891 397.837 53.391 400.087 53.641 402.087C 53.641 403.337 54.641 405.087 54.391 406.087C 53.141 409.337 54.641 412.087 55.141 415.087C 55.641 419.337 55.391 423.837 57.391 427.587C 58.141 429.337 57.891 431.337 58.641 432.337C 60.141 435.087 60.391 438.587 62.891 440.837C 64.641 442.837 65.891 445.337 67.891 447.087C 70.391 449.837 72.891 451.337 76.641 451.087Z"/>
<path id="path9_fill" d="M 144.758 466.337C 146.258 466.337 146.508 465.087 147.258 464.087C 148.258 462.337 147.258 460.837 147.258 459.087C 147.008 455.087 147.008 451.087 147.008 446.837C 147.258 444.837 146.758 443.337 146.508 441.587C 146.258 439.087 146.008 436.337 146.508 433.837C 146.758 430.837 146.758 427.837 146.258 425.087C 145.758 422.587 146.758 420.087 145.758 417.587C 145.258 416.087 147.258 414.337 146.508 412.337C 145.258 409.837 146.758 407.087 146.508 404.587C 146.258 402.587 146.258 400.587 147.008 398.087C 147.508 396.337 147.008 394.087 147.008 392.087C 147.008 388.587 147.258 385.587 147.258 382.087C 147.008 378.837 147.508 375.837 147.508 372.587C 148.008 368.587 148.008 364.587 148.508 360.087C 149.008 359.087 148.008 357.087 147.508 355.837C 147.008 354.087 146.008 351.337 143.258 351.837C 140.258 352.337 137.758 356.837 137.258 359.837C 137.008 361.837 136.258 363.837 135.508 365.837C 134.758 368.337 133.008 370.837 132.758 373.587C 132.508 376.587 130.258 379.087 129.758 382.087C 129.508 384.337 128.008 386.087 127.008 388.337C 125.758 391.837 123.758 394.587 120.758 396.837C 119.758 397.587 119.508 396.587 119.508 395.837C 119.008 393.337 119.008 390.837 118.508 388.337C 118.258 387.087 118.258 385.837 118.258 384.337C 118.258 381.587 117.258 378.837 119.008 376.337C 119.758 375.587 119.758 373.837 120.008 372.837C 120.258 371.087 119.758 368.837 120.758 367.587C 122.008 365.087 122.008 362.587 122.008 360.087C 122.008 358.337 120.508 357.337 119.008 357.587C 117.508 357.587 114.758 358.087 114.758 359.337C 114.758 361.837 112.508 363.587 112.258 366.087C 112.008 368.087 111.008 370.087 111.008 372.087C 111.258 374.587 109.758 376.587 109.758 378.837C 109.758 384.837 110.258 390.837 111.758 396.587C 112.258 398.087 112.758 400.087 113.508 401.337C 115.258 403.337 117.758 403.587 120.008 404.337C 121.758 404.837 123.758 404.087 124.008 403.837C 126.258 401.837 127.258 400.837 128.758 398.087C 130.508 394.587 132.758 391.337 134.008 387.587L 135.508 383.587C 137.008 381.087 137.508 378.587 138.758 376.087C 139.008 376.087 139.008 375.837 139.008 375.587C 139.258 375.837 139.258 376.087 139.258 376.087C 139.258 378.837 138.758 381.587 139.008 384.087C 139.508 386.337 138.508 388.587 139.258 390.837C 140.008 392.837 138.508 394.087 138.758 395.837C 138.758 399.087 138.508 402.337 139.008 405.337C 139.258 407.087 138.508 408.837 138.758 410.587C 139.258 412.837 139.258 415.087 139.258 417.337C 139.508 420.087 139.258 422.837 139.258 425.837C 139.508 428.337 139.508 430.837 139.258 433.337C 139.008 436.587 140.008 439.587 139.758 442.587C 139.758 445.587 140.758 448.337 140.508 451.087C 140.508 453.337 140.758 455.587 140.258 457.837C 140.258 459.587 141.258 462.087 141.758 464.087C 142.008 465.837 143.258 466.337 144.758 466.337Z"/>
<path id="path10_fill" d="M 162.953 407.337C 163.703 406.837 164.703 406.337 164.703 405.087C 164.953 404.587 164.203 403.837 164.703 403.087C 165.703 401.587 164.703 399.837 165.203 398.587C 165.453 397.587 165.703 396.087 165.453 395.837C 164.703 394.087 165.453 392.337 165.453 391.337C 165.703 389.087 165.703 386.837 165.953 384.837L 167.453 376.837C 168.203 374.087 168.953 371.087 170.203 368.337C 170.703 367.087 170.203 365.337 171.203 364.087C 172.703 362.337 172.953 359.587 173.953 356.837C 174.703 354.837 175.953 353.337 176.953 351.837C 177.703 350.337 179.953 349.337 181.453 348.087C 181.953 347.087 181.453 346.087 180.953 345.337C 180.703 344.837 179.703 343.837 179.453 344.087C 178.203 344.587 176.703 344.837 175.453 345.837C 173.703 347.337 171.953 349.087 170.703 351.087C 168.953 353.837 168.203 356.587 167.453 359.837C 166.453 362.087 165.453 364.087 165.453 366.087C 164.953 368.337 163.953 370.837 163.703 373.087C 163.453 373.587 163.453 373.837 163.453 374.087L 162.953 374.087C 162.703 373.587 162.453 373.087 162.453 372.587C 162.703 370.587 163.453 368.337 162.953 366.337C 162.703 364.087 163.453 362.337 163.703 360.087L 163.703 354.837C 163.953 352.337 164.203 349.587 164.703 347.087L 165.203 342.587C 165.453 340.087 163.953 339.337 162.453 338.587C 161.203 337.837 160.203 339.337 159.703 339.837C 158.203 341.337 158.203 343.087 157.953 344.587C 157.453 347.837 157.203 351.087 156.953 353.837C 156.703 355.587 156.453 356.837 156.453 358.587C 156.203 359.587 155.703 361.337 156.203 362.337C 156.953 363.587 156.703 365.337 156.203 366.837C 156.203 368.337 157.203 369.837 156.453 371.337C 156.203 373.337 156.203 375.337 156.203 377.587C 156.203 378.587 157.453 379.837 156.703 381.087C 156.203 381.587 156.203 382.087 156.453 382.837C 157.203 383.837 157.203 384.837 156.953 385.837C 156.453 388.087 157.953 390.337 157.703 392.337C 157.453 394.087 157.953 395.837 157.953 397.087C 158.453 400.087 158.703 402.837 159.703 405.587C 160.203 407.337 161.953 408.337 162.953 407.337Z"/>
<path id="path11_fill" d="M 208.28 407.337C 210.28 407.337 212.28 403.587 211.78 400.087C 211.53 397.587 212.28 394.837 211.28 392.087C 211.03 390.337 211.78 388.587 212.03 387.087C 212.03 386.087 211.28 385.587 211.53 384.587C 212.03 383.087 212.53 381.087 212.53 379.087C 212.53 378.837 212.53 371.587 212.28 370.837C 211.78 370.087 212.28 369.087 212.28 368.587C 212.53 366.587 212.28 364.587 213.03 362.587C 214.03 360.087 213.53 356.837 213.53 353.837C 213.53 350.587 211.78 347.087 209.78 346.587C 207.78 346.337 205.53 349.087 205.03 351.587L 203.28 358.587C 202.28 361.837 200.03 365.087 199.28 368.587C 199.03 369.837 198.28 370.837 198.28 372.337C 198.03 373.337 197.28 374.337 196.78 375.587L 194.53 380.837C 194.03 382.337 193.53 383.087 192.28 385.087C 191.78 386.337 192.28 387.587 190.78 386.587C 190.03 385.837 189.78 384.837 189.78 383.087C 190.03 377.587 189.03 372.087 189.78 366.337C 189.78 365.087 189.78 363.587 190.03 362.087C 190.28 360.587 191.03 358.837 191.03 357.337C 191.28 356.087 191.28 354.337 192.03 353.087C 192.78 351.337 191.28 349.087 189.53 349.337C 188.53 349.587 187.03 349.587 186.53 350.587C 185.03 352.087 184.28 354.087 184.28 356.087C 183.53 360.837 181.78 365.337 181.78 370.087C 181.78 372.587 181.78 375.837 182.03 377.087C 182.28 378.587 182.03 381.087 182.78 383.087C 183.28 385.337 183.28 387.087 184.28 388.837C 185.28 390.337 185.78 392.337 187.03 392.837C 190.78 394.337 196.53 390.837 197.53 386.837C 197.78 384.837 199.53 383.587 199.78 381.337C 200.53 378.587 201.78 375.837 203.03 373.337L 204.78 369.837L 204.78 373.087C 204.78 375.337 204.78 377.587 204.28 380.087C 203.78 383.087 204.78 385.837 204.53 389.087C 204.03 391.587 204.53 394.337 204.78 396.837C 205.03 399.337 205.03 402.087 205.03 404.337C 205.03 406.087 207.28 407.337 208.28 407.337Z"/>
<path id="path12_fill" d="M 222.151 422.087C 223.401 422.337 224.401 422.087 225.651 422.087C 226.901 422.087 228.401 422.087 229.401 421.087C 231.651 420.087 233.901 419.087 234.901 417.587C 237.151 415.337 239.651 413.337 241.401 410.087C 242.151 408.087 243.901 406.087 244.401 404.087C 245.151 401.337 244.651 399.087 245.401 396.837C 245.901 393.587 244.651 390.587 244.401 387.587C 244.151 385.337 245.651 385.087 246.151 384.337C 248.651 382.337 249.151 382.087 251.901 380.337C 253.651 379.087 252.901 378.837 254.651 378.087C 257.651 375.587 257.151 371.587 255.901 372.337C 255.401 372.837 253.401 372.837 252.901 373.837C 251.151 376.087 250.651 375.587 249.151 376.837C 247.151 377.837 245.151 378.837 242.901 380.587C 242.651 380.837 241.901 380.837 241.901 380.337C 241.901 378.837 240.901 377.587 240.401 376.837C 239.151 375.337 239.151 372.837 237.901 372.337C 235.651 370.587 234.901 367.837 232.901 366.087C 230.151 364.337 228.401 361.337 225.901 359.587C 222.401 357.337 221.901 355.587 223.651 352.587C 225.901 348.837 230.151 348.837 232.901 352.337C 233.651 352.837 234.151 353.337 235.401 353.087C 235.901 353.087 236.901 352.837 237.151 352.087C 237.901 350.087 235.901 346.087 234.151 345.837C 232.401 345.587 231.151 343.837 229.151 343.587C 227.651 343.087 226.151 343.087 225.151 343.837C 221.401 344.837 218.401 346.837 216.901 350.587C 215.901 352.837 215.901 355.087 215.901 356.837C 215.651 358.087 216.901 360.587 218.151 361.837C 220.401 364.087 222.401 366.337 224.401 368.837C 227.151 371.087 230.151 373.587 231.901 376.837C 232.651 378.087 235.651 382.337 235.401 383.837C 235.401 385.087 235.901 384.587 235.401 385.587C 232.651 388.587 229.651 390.587 226.901 393.337C 223.901 396.587 221.151 400.337 219.151 404.337C 217.151 408.087 215.901 412.087 216.401 416.337C 217.151 419.587 219.151 421.337 222.151 422.087ZM 223.401 416.087C 221.901 416.087 222.401 414.337 222.401 413.337C 222.401 409.337 224.651 406.087 226.651 402.587C 228.151 400.337 230.151 398.587 231.651 396.337C 233.401 394.587 234.901 393.337 236.901 391.837C 237.151 391.337 237.651 392.337 237.651 392.587C 237.901 397.837 238.401 403.087 234.401 407.837C 233.401 409.337 232.151 411.337 230.651 412.587C 228.901 415.087 226.651 416.337 223.401 416.087Z"/>
<path id="path13_fill" d="M 203.487 286.137C 203.987 286.137 204.387 285.737 204.587 285.337C 204.887 284.737 204.487 284.037 204.187 283.937C 203.487 283.637 202.787 283.437 202.087 282.837C 201.487 282.237 200.587 281.837 199.687 281.337C 198.687 280.837 197.987 279.937 196.987 279.337C 196.587 279.037 195.887 278.237 195.387 277.737C 194.187 276.737 192.987 275.537 191.887 274.337C 191.087 273.537 190.287 272.637 189.787 271.937C 188.787 270.937 188.987 270.137 189.187 269.237C 189.487 268.037 189.687 266.737 189.887 265.537L 190.087 263.337C 190.187 262.437 190.687 261.537 190.787 260.637C 190.987 259.437 190.987 258.237 191.087 257.137C 191.087 256.637 190.887 256.237 191.887 256.137C 193.387 256.037 195.087 255.937 196.387 254.737C 196.687 254.337 196.987 253.837 196.787 253.437C 196.487 252.837 195.887 252.237 195.087 252.837C 194.687 253.237 194.387 253.437 193.887 253.337C 192.787 253.137 191.787 253.437 190.687 253.437C 189.487 253.437 188.087 253.637 186.887 253.537C 186.387 253.437 185.787 253.637 185.487 253.937C 184.887 254.637 185.487 255.137 185.687 255.837C 185.887 256.237 186.287 256.037 186.587 256.137C 187.387 256.137 187.987 256.237 188.787 256.437C 189.087 256.437 189.087 256.637 188.987 256.737C 188.687 257.337 188.687 258.137 188.587 258.937C 188.487 260.337 187.987 261.737 187.787 263.137C 187.687 264.637 187.487 266.337 186.987 267.837C 186.987 267.937 186.987 268.137 186.887 268.137C 186.787 268.237 186.687 268.137 186.487 268.037C 186.187 267.737 186.487 267.237 186.187 266.937C 185.387 266.337 185.087 265.037 184.287 264.337C 183.787 263.937 183.687 263.437 183.587 262.837C 183.387 262.237 182.687 261.937 182.687 261.137C 182.887 260.837 182.587 260.437 182.387 260.237C 181.587 259.437 181.587 258.137 180.987 257.137C 180.387 255.837 180.187 254.437 179.687 253.137C 179.387 252.437 179.687 251.737 179.387 251.137C 178.987 250.337 179.287 249.637 179.887 249.037C 180.087 248.937 180.487 248.737 180.487 248.537C 180.387 247.937 181.187 247.437 181.087 246.737C 181.087 245.937 181.987 245.937 182.187 245.237C 182.287 244.837 182.587 244.437 182.587 243.937C 182.687 242.937 184.187 242.637 184.187 241.337C 184.187 241.237 184.787 240.237 185.287 239.637C 185.787 238.937 186.287 237.937 186.787 236.937C 187.287 236.337 186.987 235.537 187.587 234.837C 188.187 234.037 187.987 232.837 188.687 231.937C 189.087 231.337 189.087 230.137 189.187 229.237C 189.587 227.737 189.787 226.237 189.487 224.937C 189.287 224.037 189.087 222.837 187.887 222.437L 186.987 221.937C 186.387 221.337 184.387 221.037 183.587 221.637C 183.187 221.937 182.987 222.537 182.387 222.637C 181.487 223.037 180.787 223.637 180.387 224.237C 179.887 225.137 179.087 225.737 178.687 226.737C 177.987 228.237 177.387 229.937 176.887 231.737C 176.587 232.537 176.387 233.437 176.287 234.337C 176.287 234.837 175.887 235.337 175.787 235.937C 175.587 237.037 175.687 238.237 175.587 239.237C 175.387 240.637 175.387 242.137 175.487 243.537C 175.587 245.037 175.887 246.737 175.887 248.337C 175.787 249.337 175.287 250.437 174.787 251.337C 174.287 252.437 173.687 253.437 173.187 254.537C 172.787 255.137 172.387 255.937 172.187 256.737C 172.087 257.637 171.287 258.437 171.387 259.537C 171.387 259.937 170.887 260.337 170.787 260.837C 170.287 262.237 169.787 263.637 169.587 265.237C 169.487 265.737 169.387 266.437 169.187 267.037C 169.087 267.537 168.687 268.137 168.787 268.337C 168.987 269.137 168.787 269.937 168.687 270.537C 168.387 271.637 168.787 272.937 168.687 274.037C 168.587 275.437 168.587 276.737 168.987 277.937C 169.187 279.037 169.787 280.037 170.087 280.937C 170.187 281.337 169.987 281.937 170.187 282.037C 171.187 282.437 171.387 283.437 172.287 284.037C 173.887 284.737 175.287 285.837 177.387 285.837C 179.287 285.837 181.087 285.237 182.687 284.037C 183.487 283.137 184.587 282.337 185.087 281.237C 185.387 280.337 185.787 279.837 186.287 279.037C 186.887 277.837 187.387 276.637 187.687 275.437C 187.687 275.437 187.487 273.637 188.487 274.937C 188.987 275.537 189.687 276.237 190.087 276.737C 190.687 277.437 191.287 277.737 191.787 278.537C 192.487 279.837 194.187 280.137 195.087 281.437C 195.587 282.237 196.587 282.637 197.387 283.137C 198.387 283.637 199.087 284.637 200.087 285.037C 201.287 285.437 202.187 286.137 203.487 286.137ZM 178.687 244.137C 178.587 244.337 178.287 244.137 178.287 244.037L 178.287 241.637C 178.287 240.937 177.787 240.237 178.487 239.437C 178.687 239.237 178.587 239.037 178.587 238.637C 178.087 236.837 178.887 235.237 178.987 233.637C 179.087 232.137 179.687 230.637 180.387 229.437C 181.087 228.137 181.487 226.537 182.887 225.637C 183.487 225.037 184.287 224.637 185.087 224.237C 185.587 223.937 185.987 224.637 185.987 225.437C 186.787 226.437 185.887 227.637 185.887 228.637C 185.887 229.437 185.487 230.137 185.287 230.937C 184.887 231.637 184.687 232.237 184.487 232.837C 184.487 233.137 184.687 233.737 183.987 233.837C 183.687 233.837 184.087 234.337 183.687 234.737C 182.987 235.837 182.687 237.137 181.887 238.337C 181.487 238.737 181.187 239.237 180.987 239.737C 180.787 240.037 180.887 240.637 180.487 240.837C 179.387 241.437 179.387 242.737 178.887 243.737C 178.887 243.937 178.687 244.037 178.687 244.137ZM 179.087 282.637C 178.787 282.837 178.287 282.537 177.987 282.537C 177.487 282.437 176.987 282.937 176.387 282.537C 176.087 282.337 175.487 282.637 175.487 281.937C 174.787 282.137 174.587 281.737 174.287 281.337C 173.387 280.837 173.187 279.837 172.687 278.837C 172.087 277.437 171.887 275.837 171.987 274.337C 171.987 273.437 171.687 272.537 171.787 271.937C 172.087 270.937 171.487 269.437 172.587 268.637C 172.687 268.637 172.387 268.237 172.487 268.037C 172.687 267.237 173.087 266.637 172.987 265.937C 172.787 265.437 173.087 265.037 173.487 264.837C 173.787 264.737 173.487 264.537 173.487 264.337C 173.287 263.037 174.187 262.037 174.587 260.937C 174.787 260.237 174.987 259.537 175.287 259.037C 175.487 258.237 175.687 257.537 176.087 256.837C 176.387 256.537 176.287 255.837 176.687 255.437C 176.787 255.337 176.887 255.037 177.087 254.937C 177.087 255.337 177.787 255.337 177.787 255.737L 177.787 256.037C 178.087 257.537 178.587 258.937 179.087 260.137C 179.787 261.437 180.187 262.637 180.787 263.837C 181.187 264.837 181.987 265.637 182.287 266.637C 182.587 267.637 183.287 268.237 183.787 268.937C 184.587 269.937 184.787 271.137 185.887 271.837L 185.687 272.337C 185.487 272.737 185.587 273.337 185.287 273.737C 185.087 274.037 185.287 274.237 185.287 274.437C 184.887 275.537 184.187 276.437 183.787 277.537C 183.387 278.537 182.887 279.337 182.287 280.237C 181.487 281.537 180.287 282.137 179.087 282.637Z"/>
</defs>
</svg>
