<svg width="322" height="230" viewBox="0 0 322 230" version="1.1" xmlns="http://www.w3.org/2000/svg" xmlns:xlink="http://www.w3.org/1999/xlink">
<title>Vector</title>
<desc>Created using Figma</desc>
<g id="Canvas" transform="translate(-38943 -1198)">
<g id="Vector">
<use xlink:href="#path0_fill" transform="translate(38943.8 1198.15)" fill="#FFFFFF"/>
<use xlink:href="#path1_fill" transform="translate(38943.8 1198.15)" fill="#FFFFFF"/>
<use xlink:href="#path2_fill" transform="translate(38943.8 1198.15)" fill="#FFFFFF"/>
<use xlink:href="#path3_fill" transform="translate(38943.8 1198.15)" fill="#FFFFFF"/>
<use xlink:href="#path4_fill" transform="translate(38943.8 1198.15)" fill="#FFFFFF"/>
<use xlink:href="#path5_fill" transform="translate(38943.8 1198.15)" fill="#FFFFFF"/>
<use xlink:href="#path6_fill" transform="translate(38943.8 1198.15)" fill="#FFFFFF"/>
<use xlink:href="#path7_fill" transform="translate(38943.8 1198.15)" fill="#FFFFFF"/>
<use xlink:href="#path8_fill" transform="translate(38943.8 1198.15)" fill="#FFFFFF"/>
<use xlink:href="#path9_fill" transform="translate(38943.8 1198.15)" fill="#FFFFFF"/>
<use xlink:href="#path10_fill" transform="translate(38943.8 1198.15)" fill="#FFFFFF"/>
<use xlink:href="#path11_fill" transform="translate(38943.8 1198.15)" fill="#FFFFFF"/>
<use xlink:href="#path12_fill" transform="translate(38943.8 1198.15)" fill="#FFFFFF"/>
<use xlink:href="#path13_fill" transform="translate(38943.8 1198.15)" fill="#FFFFFF"/>
</g>
</g>
<defs>
<path id="path0_fill" d="M 185.394 103.976L 188.604 103.012C 189.956 102.65 190.935 102.698 191.541 103.157C 191.835 103.354 192.017 103.582 192.086 103.839C 192.155 104.097 192.135 104.344 192.026 104.58C 191.769 105.166 191.109 105.602 190.047 105.887C 188.211 106.379 186.396 106.106 184.599 105.069C 181.14 106.582 178.916 109.231 177.929 113.016C 177.307 115.46 177.268 117.697 177.811 119.725C 178.113 120.852 178.588 121.915 179.236 122.915C 181.126 125.721 183.842 126.65 187.384 125.701C 190.54 124.856 192.992 123.06 194.74 120.314C 196.489 117.567 197.083 115.148 196.523 113.055C 196.255 112.057 195.6 111.352 194.559 110.941C 193.54 110.489 192.535 110.345 191.543 110.507C 190.575 110.628 189.753 110.78 189.077 110.961C 188.433 111.133 187.601 111.442 186.582 111.888C 185.586 112.293 184.668 112.988 183.827 113.972C 182.828 115.137 182.514 116.412 182.885 117.796C 183.256 119.181 184.671 120.147 187.13 120.696C 187.504 120.803 187.702 121.026 187.724 121.365C 187.769 121.664 187.662 121.779 187.402 121.71C 185.08 121.159 183.315 120.304 182.107 119.143C 181.286 118.397 180.794 117.718 180.63 117.106C 180.466 116.495 180.412 115.974 180.47 115.545C 180.554 114.314 181.266 113.105 182.604 111.919C 183.943 110.732 185.803 109.819 188.186 109.181L 196.734 106.89C 198.408 106.441 200.318 105.326 202.463 103.543C 203.508 102.677 204.205 101.8 204.554 100.913C 204.708 100.457 204.729 100.02 204.616 99.6017C 204.496 99.1509 204.295 98.7904 204.016 98.5202C 203.737 98.25 203.596 98.0462 203.593 97.9088C 203.591 97.7714 203.654 97.6854 203.783 97.6509C 203.944 97.6078 204.094 97.6537 204.234 97.7889C 204.892 98.4408 205.316 99.121 205.506 99.8293C 205.687 100.505 205.646 101.189 205.382 101.881C 204.905 103.32 203.8 104.669 202.067 105.927C 200.333 107.185 198.436 108.09 196.376 108.643C 196.311 108.66 196.231 108.681 196.134 108.707C 197.625 109.378 198.578 110.486 198.992 112.031C 199.57 114.188 198.909 116.746 197.01 119.705C 196.121 121.151 194.838 122.479 193.16 123.688C 191.482 124.896 189.613 125.777 187.552 126.329C 182.562 127.666 178.648 127.162 175.811 124.816C 174.392 123.643 173.502 122.381 173.14 121.029C 172.777 119.676 172.65 118.365 172.758 117.093C 173.065 113.733 174.701 110.758 177.665 108.169C 179.371 106.677 181.412 105.474 183.79 104.561C 182.552 103.547 181.679 102.09 181.17 100.19C 180.693 98.2819 181.051 96.2706 182.245 94.1564C 183.438 92.0421 184.998 90.33 186.925 89.0201C 188.875 87.6693 190.864 86.7221 192.893 86.1786C 194.567 85.73 196.074 85.6885 197.415 86.054C 198.787 86.411 199.672 87.33 200.069 88.8111C 200.319 89.7448 200.253 90.6596 199.872 91.5554C 199.482 92.4191 198.917 92.9501 198.177 93.1485C 197.468 93.3383 196.833 93.2843 196.27 92.9865C 195.731 92.6479 195.375 92.1566 195.202 91.5127C 195.029 90.8687 195.096 90.2814 195.403 89.7507C 195.741 89.2113 196.201 88.864 196.78 88.7087C 197.166 88.6052 197.563 88.6026 197.969 88.7009C 198.366 88.7669 198.627 88.9041 198.752 89.1122C 198.732 88.9104 198.696 88.7129 198.645 88.5197C 198.455 87.8113 198.018 87.3416 197.335 87.1105C 196.603 86.8237 195.625 86.8442 194.401 87.172C 193.178 87.4999 191.836 88.2219 190.375 89.338C 188.905 90.4219 187.614 91.7859 186.502 93.4298C 185.389 95.0737 184.66 96.9255 184.315 98.9851C 184.14 100.136 184.161 101.114 184.377 101.919C 184.592 102.724 184.931 103.41 185.394 103.976ZM 191.252 104.011C 191.097 103.431 189.828 103.461 187.445 104.099C 186.962 104.229 186.468 104.378 185.961 104.549C 186.993 105.307 188.152 105.514 189.44 105.169C 190.76 104.816 191.364 104.429 191.252 104.011Z"/>
<path id="path1_fill" d="M 63.798 226.111C 63.2085 226.222 62.6066 226.269 61.9923 226.249C 58.7365 226.256 56.6367 223.77 55.6928 218.792C 54.1652 210.736 55.6242 196.244 60.0699 175.316C 61.8229 167.384 62.7944 159.803 62.9844 152.575C 63.0647 149.778 62.9558 147.593 62.6577 146.021C 62.3472 144.383 62.0395 143.119 61.7347 142.227C 60.8607 139.407 59.4012 137.614 57.356 136.848C 53.7457 135.701 49.9101 135.512 45.8491 136.282C 41.5916 137.089 37.3036 138.988 32.9851 141.978C 28.6665 144.968 24.6969 148.367 21.0763 152.175C 17.5211 155.971 14.438 160.287 11.8268 165.125C 9.20331 169.897 7.47474 174.737 6.64113 179.645C 5.8606 184.475 5.81808 188.724 6.51359 192.392C 6.79924 193.899 7.20347 195.315 7.72628 196.641C 9.63124 200.961 12.2358 203.962 15.5401 205.643C 18.8443 207.323 22.4615 207.791 26.3914 207.046C 31.8934 206.002 36.5756 202.604 40.438 196.85C 44.3659 191.084 45.8144 185.483 44.7836 180.046C 44.2247 177.099 43.2316 175.082 41.8042 173.996C 40.3768 172.909 39.0409 172.484 37.7964 172.72C 36.5519 172.956 35.3447 173.388 34.1747 174.017C 32.9923 174.581 32.3638 174.666 32.2893 174.273C 32.2024 173.815 32.8501 173.115 34.2323 172.174C 35.6022 171.168 37.1059 170.51 38.7434 170.199C 40.3809 169.889 41.9805 170.094 43.5423 170.816C 46.4694 172.297 48.3117 175.035 49.0693 179.03C 49.8269 183.026 49.0515 187.346 46.743 191.991C 44.4877 196.557 41.369 200.507 37.3869 203.841C 33.3925 207.109 29.201 209.159 24.8126 209.991C 20.4896 210.811 16.1633 210.003 11.8337 207.567C 7.49163 205.065 4.18915 201.247 1.92624 196.112C 1.30067 194.602 0.820223 192.963 0.484891 191.194C -0.29755 187.068 -0.133056 182.389 0.978374 177.157C 2.0898 171.925 4.15378 166.885 7.17032 162.038C 10.2399 157.114 13.7409 152.854 17.6733 149.258C 21.5932 145.597 25.8683 142.378 30.4985 139.6C 35.1163 136.756 39.6194 134.919 44.0079 134.086C 48.3963 133.254 52.5222 133.184 56.3855 133.877C 63.2606 135.423 67.5427 140.65 69.2318 149.558C 70.4737 156.108 69.6558 164.677 66.7779 175.265C 64.9731 181.85 63.5826 188.831 62.6066 196.209C 61.1506 207.138 60.8013 214.601 61.5589 218.596C 62.1302 221.609 63.4311 222.923 65.4616 222.538C 69.5226 221.768 75.6295 215.148 83.7824 202.677C 89.5184 193.922 93.5786 184.738 95.9629 175.126C 97.5148 168.996 97.8436 163.573 96.9494 158.857C 96.4774 156.368 95.9518 154.67 95.3725 153.762C 94.7808 152.788 94.3946 152.183 94.2139 151.946C 94.0208 151.643 93.7092 151.431 93.2789 151.309C 92.8362 151.121 92.5494 151.04 92.4184 151.065C 91.4517 150.977 90.4647 150.96 89.4574 151.016C 88.4376 151.006 87.7612 150.659 87.4281 149.976C 87.1605 149.28 87.44 148.786 88.2666 148.493L 90.1706 148.336C 93.3451 148.616 96.3687 150.248 99.2415 153.232C 100.846 154.895 101.903 157.07 102.412 159.755C 102.909 162.375 102.877 165.605 102.315 169.443C 100.818 178.005 97.6637 186.78 92.8537 195.766C 88.0313 204.688 82.9328 211.795 77.5583 217.089C 72.2492 222.371 67.6625 225.378 63.798 226.111Z"/>
<path id="path2_fill" d="M 121.534 165.799C 120.766 166.759 119.825 167.344 118.712 167.555C 117.598 167.766 116.639 167.541 115.835 166.879C 115.031 166.218 114.589 165.317 114.509 164.179C 114.495 163.028 114.871 161.973 115.639 161.013C 116.407 160.053 117.348 159.468 118.461 159.257C 119.575 159.046 120.534 159.271 121.338 159.933C 122.207 160.582 122.649 161.482 122.664 162.633C 122.679 163.784 122.302 164.839 121.534 165.799ZM 118.742 203.682C 119.987 203.446 121.179 202.575 122.319 201.07C 124.282 198.187 126.423 192.658 128.741 184.483C 129.013 183.414 129.416 183.032 129.949 183.338C 130.105 183.444 130.214 183.661 130.276 183.989C 130.325 184.251 130.2 185.021 129.899 186.299C 129.587 187.512 129.288 188.621 129.003 189.624C 128.784 190.616 128.251 192.278 127.404 194.61C 126.61 196.864 125.827 198.641 125.056 199.94C 122.954 203.528 120.692 205.552 118.268 206.011C 115.91 206.458 114.071 206.061 112.749 204.818C 111.428 203.576 110.6 202.071 110.264 200.302C 109.929 198.534 109.988 196.521 110.443 194.263L 113.694 177.056C 113.75 176.639 113.717 176.102 113.592 175.447C 113.468 174.792 112.914 174.015 111.929 173.116L 117.314 171.993C 118.821 171.708 119.761 171.835 120.134 172.375C 120.496 172.849 120.461 173.738 120.029 175.041L 115.653 194.904C 114.999 197.539 114.834 199.707 115.157 201.41C 115.517 203.31 116.712 204.067 118.742 203.682Z"/>
<path id="path3_fill" d="M 144.087 160.301C 144.646 163.248 143.307 166.386 140.071 169.714C 141.393 169.531 143.135 169.235 145.296 168.825C 147.523 168.403 150.276 167.711 153.554 166.75C 153.723 166.922 153.888 167.433 154.049 168.285C 154.211 169.136 154.06 170.488 153.597 172.34C 153.121 174.127 152.674 175.704 152.255 177.073C 151.889 178.364 151.517 179.622 151.138 180.847C 150.813 181.994 150.439 183.422 150.017 185.131C 149.66 186.827 149.376 188.374 149.166 189.771C 148.473 195.059 149.207 197.498 151.368 197.089C 154.119 196.567 157.143 190.328 160.44 178.371C 160.737 177.432 161.035 177.037 161.334 177.184C 161.699 177.318 161.913 177.549 161.975 177.876C 162.024 178.138 161.791 179.234 161.275 181.164C 160.746 183.029 160.165 184.971 159.53 186.991C 158.895 189.012 157.76 191.432 156.123 194.253C 154.205 197.738 152.1 199.698 149.808 200.133C 147.253 200.617 145.193 199.413 143.627 196.521C 143.319 195.969 143.053 195.103 142.829 193.924C 142.606 192.745 142.668 191.105 143.016 189.003C 143.429 186.889 144.187 184.269 145.291 181.142C 146.394 178.015 147.001 176.203 147.11 175.708C 147.208 175.146 147.213 174.636 147.126 174.178C 146.741 172.147 143.916 171.563 138.651 172.426L 138.068 175.794C 135.991 187.383 133.401 195.373 130.297 199.761C 129.754 200.475 129.389 200.34 129.203 199.358C 129.166 199.161 129.188 198.919 129.269 198.633C 132.018 193.09 134.108 186.757 135.539 179.632C 136.97 172.507 137.644 165.865 137.562 159.706C 137.57 157.601 138.295 156.412 139.736 156.139C 141.177 155.866 142.399 156.584 143.401 158.294C 143.71 158.846 143.938 159.515 144.087 160.301Z"/>
<path id="path4_fill" d="M 168.819 228.589C 162.662 229.757 159.105 227.819 158.149 222.775C 157.354 218.583 159.489 214.277 164.554 209.856C 168.867 206.12 174.554 202.294 181.614 198.376C 184.874 196.605 187.229 195.242 188.676 194.289C 189.435 188.988 189.256 183.39 188.138 177.496C 187.915 176.317 187.682 175.445 187.439 174.88C 186.313 178.961 184.518 183.271 182.053 187.81C 179.148 193.246 175.73 195.794 171.798 195.454C 168.119 194.659 165.882 192.165 165.087 187.973C 164.019 182.34 165.661 175.617 170.015 167.802C 172.398 163.55 175.56 160.542 179.5 158.777C 180.551 158.238 181.634 157.864 182.747 157.652C 185.695 157.094 188.763 157.53 191.952 158.961C 193.162 159.613 193.822 160.234 193.934 160.824C 194.046 161.413 193.961 162.04 193.68 162.704C 193.386 163.303 192.973 163.449 192.44 163.143C 191.96 162.759 191.617 162.383 191.412 162.015C 190.101 159.753 188.495 158.802 186.596 159.162C 183.124 159.82 179.687 162.983 176.283 168.649C 174.381 171.86 172.844 175.205 171.671 178.684C 170.255 183.024 169.752 186.275 170.162 188.436C 170.559 190.532 171.481 191.816 172.928 192.288C 173.424 192.398 173.901 192.409 174.359 192.322C 175.866 192.036 177.54 190.667 179.382 188.214C 181.277 185.684 182.876 182.666 184.179 179.162C 185.536 175.58 186.308 172.855 186.497 170.987C 186.686 169.119 187.097 167.888 187.73 167.293C 188.429 166.685 189.231 166.262 190.136 166.023C 191.04 165.783 191.632 165.501 191.909 165.177C 192.992 168.025 193.913 171.447 194.67 175.443C 195.415 179.373 195.578 183.99 195.159 189.294C 197.762 186.561 199.525 184.225 200.446 182.286C 201.433 180.335 202.157 178.603 202.616 177.091C 203.142 175.567 203.575 174.094 203.916 172.672C 204.245 171.185 204.47 170.226 204.592 169.795C 204.714 169.365 204.998 169.074 205.444 168.921C 205.878 168.704 206.144 168.857 206.243 169.381C 206.306 169.708 206.282 170.12 206.172 170.615C 204.42 177.122 202.817 181.905 201.361 184.963C 199.958 187.943 197.736 190.536 194.693 192.741C 193.966 197.493 192.512 202.349 190.331 207.309C 188.215 212.256 185.215 216.829 181.329 221.026C 177.443 225.224 173.273 227.745 168.819 228.589ZM 160.566 224.251C 161.038 226.74 162.879 227.68 166.088 227.071C 167.988 226.711 170.011 225.751 172.158 224.19C 174.37 222.617 176.15 221.092 177.499 219.615C 179.774 216.944 182.113 213.176 184.515 208.31C 186.293 204.444 187.533 200.783 188.234 197.325L 185.019 199.156C 175.472 204.63 168.863 209.14 165.192 212.686C 162.499 215.3 160.959 218.273 160.573 221.603C 160.432 222.648 160.429 223.53 160.566 224.251Z"/>
<path id="path5_fill" d="M 220.294 147.073C 219.526 148.032 218.585 148.618 217.472 148.829C 216.358 149.04 215.399 148.815 214.595 148.153C 213.791 147.491 213.349 146.591 213.269 145.453C 213.254 144.302 213.631 143.247 214.399 142.287C 215.167 141.327 216.108 140.742 217.221 140.53C 218.335 140.319 219.293 140.545 220.097 141.206C 220.967 141.856 221.409 142.756 221.424 143.907C 221.438 145.057 221.062 146.113 220.294 147.073ZM 217.502 184.956C 218.747 184.72 219.939 183.849 221.078 182.344C 223.042 179.461 225.183 173.932 227.501 165.757C 227.773 164.688 228.175 164.306 228.709 164.612C 228.864 164.718 228.973 164.935 229.035 165.262C 229.085 165.524 228.96 166.295 228.659 167.573C 228.346 168.786 228.048 169.894 227.763 170.898C 227.544 171.89 227.011 173.551 226.164 175.883C 225.37 178.137 224.587 179.914 223.816 181.214C 221.714 184.802 219.451 186.825 217.028 187.285C 214.67 187.732 212.83 187.334 211.509 186.092C 210.188 184.85 209.36 183.344 209.024 181.576C 208.689 179.808 208.748 177.795 209.202 175.537L 212.454 158.33C 212.51 157.912 212.476 157.376 212.352 156.721C 212.228 156.066 211.673 155.289 210.689 154.39L 216.074 153.267C 217.58 152.981 218.52 153.109 218.894 153.648C 219.256 154.123 219.221 155.011 218.789 156.315L 214.413 176.178C 213.759 178.812 213.593 180.981 213.916 182.684C 214.276 184.583 215.472 185.341 217.502 184.956Z"/>
<path id="path6_fill" d="M 260.615 145.636C 255.241 161.311 252.964 171.311 253.784 175.633C 254.106 177.336 254.89 178.07 256.135 177.834C 259.475 177.201 262.888 170.684 266.372 158.285C 266.591 157.293 266.916 156.858 267.346 156.98C 267.776 157.102 268.022 157.327 268.085 157.655C 268.147 157.982 268.09 158.4 267.915 158.908C 265.772 166.575 263.744 171.981 261.83 175.126C 259.969 178.193 257.826 179.956 255.403 180.416C 253.045 180.863 251.07 180.287 249.477 178.689C 248.661 177.962 248.116 176.878 247.843 175.437C 247.557 173.93 247.543 172.067 247.801 169.847C 248.058 167.627 249.214 163.879 251.267 158.604C 251.764 157.289 251.95 156.303 251.826 155.648C 251.69 154.928 251.064 154.673 249.951 154.884C 248.837 155.095 246.988 156.973 244.403 160.516C 240.507 165.734 237.184 173.081 234.435 182.559C 234.166 183.289 233.789 183.801 233.302 184.097C 232.868 184.315 231.937 184.594 230.508 184.932C 229.08 185.271 228.161 185.615 227.752 185.964C 228.403 183.669 229.653 178.988 231.502 171.92C 234.83 159.414 237.191 152.181 238.583 150.22C 239.22 149.285 240.226 148.687 241.602 148.427C 241.864 148.377 242.537 148.351 243.623 148.349C 244.773 148.334 245.598 148.212 246.098 147.981C 243.922 149.751 241.127 156.659 237.712 168.706C 240.07 164.324 242.282 160.783 244.349 158.084C 246.469 155.307 249.117 152.634 252.294 150.063C 255.458 147.428 257.859 145.955 259.497 145.644C 259.89 145.57 260.262 145.567 260.615 145.636Z"/>
<path id="path7_fill" d="M 282.072 135.358C 281.304 136.318 280.363 136.904 279.25 137.115C 278.136 137.326 277.177 137.101 276.373 136.439C 275.569 135.777 275.127 134.877 275.047 133.739C 275.032 132.588 275.409 131.533 276.177 130.573C 276.945 129.613 277.886 129.027 278.999 128.816C 280.113 128.605 281.072 128.831 281.876 129.492C 282.745 130.142 283.187 131.042 283.202 132.193C 283.216 133.343 282.84 134.399 282.072 135.358ZM 279.28 173.242C 280.525 173.006 281.717 172.135 282.856 170.63C 284.82 167.747 286.961 162.218 289.279 154.043C 289.551 152.973 289.954 152.592 290.487 152.898C 290.643 153.004 290.751 153.221 290.814 153.548C 290.863 153.81 290.738 154.581 290.437 155.859C 290.125 157.072 289.826 158.18 289.541 159.184C 289.322 160.176 288.789 161.837 287.942 164.169C 287.148 166.423 286.365 168.2 285.594 169.5C 283.492 173.088 281.23 175.111 278.806 175.571C 276.448 176.018 274.608 175.62 273.287 174.378C 271.966 173.136 271.138 171.63 270.802 169.862C 270.467 168.093 270.526 166.08 270.98 163.823L 274.232 146.616C 274.288 146.198 274.254 145.662 274.13 145.007C 274.006 144.352 273.452 143.575 272.467 142.676L 277.852 141.553C 279.358 141.267 280.299 141.394 280.672 141.934C 281.034 142.409 280.999 143.297 280.567 144.601L 276.191 164.464C 275.537 167.098 275.372 169.267 275.694 170.97C 276.055 172.869 277.25 173.627 279.28 173.242Z"/>
<path id="path8_fill" d="M 300.286 155.823C 299.791 158.224 299.805 160.8 300.326 163.551C 300.674 165.385 301.347 166.784 302.344 167.749C 303.394 168.635 304.672 168.936 306.179 168.65C 312.139 167.52 316.481 160.895 319.204 148.776C 319.464 147.641 319.934 147.077 320.614 147.084C 320.888 147.099 321.05 147.238 321.1 147.5C 321.15 147.762 320.725 149.641 319.827 153.136C 318.983 156.553 317.993 159.387 316.859 161.638C 314.388 166.856 310.696 169.931 305.784 170.863C 303.164 171.359 300.776 170.93 298.619 169.575C 296.462 168.22 295.104 166.068 294.545 163.121C 293.986 160.173 294.084 156.932 294.838 153.396C 295.646 149.782 296.995 146.337 298.884 143.061C 300.761 139.72 303.147 137.096 306.043 135.19C 307.425 134.249 308.804 133.648 310.18 133.388C 311.555 133.127 312.907 133.278 314.235 133.84C 315.522 134.546 316.271 135.456 316.483 136.569C 317.228 140.499 315.584 144.712 311.551 149.209C 310.321 150.596 308.483 151.996 306.037 153.41C 303.579 154.758 301.662 155.563 300.286 155.823ZM 313.811 136.974C 313.563 135.664 312.915 135.108 311.867 135.307C 310.033 135.655 307.677 138.442 304.801 143.67C 303.096 146.843 301.714 150.294 300.657 154.023C 301.771 153.812 303.301 153.114 305.248 151.931C 307.26 150.735 308.928 149.333 310.252 147.725C 313.271 143.964 314.457 140.38 313.811 136.974Z"/>
<path id="path9_fill" d="M 89.3159 91.0723C 84.2326 92.1675 79.1271 92.2105 73.9995 91.2012C 68.9511 90.243 64.6115 88.1433 60.9806 84.902C 57.415 81.6467 54.8474 77.8012 53.278 73.3656C 52.596 71.4666 52.0023 69.344 51.4968 66.9979C 50.9913 64.6517 50.6176 61.4929 50.3757 57.5214C 50.1337 53.55 50.5059 49.1052 51.4921 44.1871C 52.5436 39.255 54.0658 34.7671 56.0587 30.7233C 54.01 26.5955 52.5925 22.7068 51.8062 19.0573C 51.0058 15.3425 50.6852 11.7972 50.8444 8.42124C 50.8624 7.87178 50.9807 7.47122 51.1992 7.21953C 51.4689 6.88864 51.6689 6.70916 51.7993 6.68107C 52.451 6.54065 52.822 7.31317 52.9124 8.99861C 52.9887 10.6189 53.3498 12.928 53.9957 15.9258C 54.6276 18.8585 55.8586 22.5146 57.6888 26.894C 61.4562 19.0581 66.5291 12.8503 72.9076 8.27075C 77.8113 4.75912 83.2285 2.36441 89.159 1.08661C 90.8535 0.721527 92.6342 0.440156 94.5011 0.242497C 104.776 -0.812025 112.382 1.57273 117.32 7.39675C 119.343 9.82502 120.671 12.5055 121.303 15.4382C 121.935 18.3709 121.903 21.5488 121.209 24.9719C 119.689 31.8462 115.766 37.5335 109.439 42.0338C 105.363 44.9578 100.653 46.9955 95.3092 48.147C 93.0282 48.6384 90.6795 48.974 88.2631 49.1536C 76.2324 49.9726 66.9576 46.1743 60.4388 37.7585C 59.3521 40.3113 58.5232 44.3771 57.9521 49.9559C 57.4462 55.5206 57.3648 59.7323 57.7079 62.5908C 58.051 65.4493 58.4262 67.8236 58.8334 69.7135C 59.2406 71.6035 59.7922 73.5305 60.4882 75.4947C 61.7167 78.9808 63.7873 81.9445 66.7002 84.3857C 69.599 86.7618 73.0578 88.0966 77.0764 88.39C 81.1742 88.7347 84.6243 88.6051 87.4267 88.0013C 96.4855 86.0495 103.801 82.4956 109.373 77.3395C 112.727 74.2301 115.17 71.0099 116.703 67.679C 118.287 64.2689 119.77 59.7554 121.151 54.1384C 121.359 53.2069 121.687 52.8294 122.134 53.0059C 122.647 53.1683 122.78 53.7874 122.535 54.8632C 121.139 60.415 119.682 64.8889 118.163 68.285C 116.71 71.667 114.432 75.0221 111.33 78.3501C 105.126 85.0061 97.7882 89.2468 89.3159 91.0723ZM 61.7199 34.2091C 68.8887 45.0081 79.8048 48.8279 94.4683 45.6685C 102.745 43.8852 108.861 40.1464 112.817 34.452C 116.839 28.7437 118.217 22.9568 116.954 17.0914C 115.69 11.226 112.165 7.21163 106.38 5.04834C 102.08 3.45143 97.1608 3.24975 91.6213 4.4433C 86.0817 5.63685 80.8536 8.43411 75.937 12.8351C 69.7831 18.4574 65.0441 25.582 61.7199 34.2091Z"/>
<path id="path10_fill" d="M 124.145 105.561C 121.278 106.179 118.928 106.037 117.097 105.136C 115.281 104.3 114.19 103.035 113.825 101.34C 113.459 99.646 113.534 97.6181 114.048 95.2568C 115.027 91.568 117.514 88.2361 121.51 85.2609C 124.497 82.9807 128.58 80.5665 133.76 78.0184C 138.953 75.5355 142.283 73.8974 143.749 73.1042C 145.21 68.4929 146.433 60.5574 147.417 49.2976C 145.069 56.7594 142.912 62.1002 140.946 65.3198C 138.98 68.5395 136.694 70.4302 134.087 70.9918C 130.568 71.7501 128.199 70.726 126.98 67.9197C 126.621 67.5197 126.409 66.8494 126.343 65.909C 126.276 64.9685 126.201 64.3027 126.117 63.9117C 126.098 63.5066 126.192 62.8384 126.401 61.9069C 126.595 60.9102 126.716 60.2024 126.762 59.7832C 127.156 58.1299 127.522 56.8234 127.861 55.8638C 126.818 56.0885 126.413 55.6303 126.644 54.4893L 127.666 50.6887C 128.97 45.9751 130.022 41.9975 130.824 38.7559C 131.181 37.2469 132.304 36.2888 134.194 35.8816L 140.157 34.5968C 140.055 34.7552 139.785 35.0861 139.348 35.5894C 138.344 36.6243 137.66 37.7262 137.299 38.8953C 135.823 43.4414 134.133 49.841 132.229 58.0939C 131.455 61.4659 131.222 63.8687 131.531 65.3025C 131.84 66.7362 132.286 67.6973 132.868 68.1855C 133.516 68.6597 134.264 68.8055 135.111 68.623C 136.349 68.3562 137.795 66.6807 139.45 63.5964C 142.911 57.1902 146.195 47.5831 149.3 34.7751C 149.722 33.252 150.845 32.2939 152.67 31.9007L 157.949 30.7634C 156.507 32.3015 155.494 34.0883 154.91 36.1237C 154.311 38.094 153.756 40.737 153.243 44.0528C 152.795 47.3546 152.238 51.7367 151.574 57.1991C 150.975 62.6476 150.493 66.7409 150.128 69.4792C 155.861 66.3345 159.858 62.0975 162.12 56.7682C 163.118 54.439 164.399 50.4123 165.962 44.6881C 166.221 43.6774 166.535 43.2347 166.903 43.36C 167.336 43.4713 167.588 43.6898 167.658 44.0157C 167.728 44.3415 167.448 45.7317 166.818 48.1862C 166.238 50.5616 165.598 52.8136 164.898 54.9422C 164.183 57.0057 163.156 59.2046 161.818 61.5389C 160.48 63.8731 158.854 65.8259 156.943 67.3972C 155.045 69.0336 152.444 70.8897 149.14 72.9655C 146.088 83.1706 142.484 90.9715 138.327 96.368C 134.412 101.303 129.685 104.368 124.145 105.561ZM 116.39 97.1051C 115.982 98.6933 115.904 100.074 116.157 101.247C 116.424 102.485 117.084 103.332 118.137 103.787C 119.189 104.242 120.4 104.322 121.769 104.027C 125.549 103.213 129.168 100.387 132.627 95.5503C 136.1 90.7784 138.988 85.8256 141.292 80.6919L 142.663 76.6115C 132.514 81.7308 126.171 85.2114 123.635 87.0535C 119.858 89.777 117.443 93.1275 116.39 97.1051Z"/>
<path id="path11_fill" d="M 180.642 20.0432C 181.273 22.9759 180.013 26.1459 176.86 29.5531C 178.177 29.3375 179.911 28.9979 182.062 28.5346C 184.278 28.0571 187.012 27.2974 190.266 26.2554C 190.438 26.4229 190.616 26.9302 190.798 27.7774C 190.981 28.6246 190.864 29.9797 190.447 31.8427C 190.016 33.6405 189.608 35.2287 189.223 36.6074C 188.889 37.9068 188.548 39.1737 188.2 40.408C 187.904 41.563 187.565 42.9999 187.186 44.7184C 186.871 46.423 186.626 47.9761 186.451 49.3778C 185.888 54.6818 186.683 57.1022 188.833 56.6388C 191.571 56.049 194.439 49.7367 197.438 37.7017C 197.711 36.7561 198 36.3531 198.302 36.4924C 198.67 36.6177 198.889 36.8433 198.96 37.1691C 199.016 37.4298 198.81 38.5312 198.342 40.4734C 197.86 42.3504 197.326 44.3066 196.742 46.342C 196.158 48.3774 195.082 50.8255 193.516 53.6862C 191.686 57.2176 189.63 59.2291 187.349 59.7205C 184.807 60.2682 182.718 59.1158 181.08 56.2634C 180.758 55.7189 180.471 54.8602 180.218 53.6871C 179.966 52.514 179.987 50.8727 180.283 48.7631C 180.643 46.6395 181.337 44.001 182.362 40.8475C 183.388 37.6941 183.949 35.8683 184.046 35.37C 184.129 34.8065 184.122 34.2966 184.023 33.8404C 183.588 31.8201 180.75 31.3065 175.508 32.2995L 175.009 35.6804C 173.22 47.3183 170.829 55.3692 167.835 59.8332C 167.31 60.5602 166.942 60.4349 166.731 59.4573C 166.689 59.2618 166.705 59.0197 166.779 58.7309C 169.39 53.1219 171.322 46.7384 172.576 39.5804C 173.829 32.4224 174.339 25.7658 174.104 19.6106C 174.059 17.506 174.754 16.2993 176.188 15.9903C 177.622 15.6814 178.861 16.3692 179.906 18.0535C 180.228 18.5979 180.473 19.2612 180.642 20.0432Z"/>
<path id="path12_fill" d="M 202.507 50.4193C 201.903 47.6169 202.378 43.9683 203.933 39.4733C 202.89 39.698 202.485 39.2398 202.716 38.0987L 203.739 34.2981C 205.042 29.5846 206.094 25.607 206.896 22.3654C 207.253 20.8564 208.376 19.8983 210.266 19.4911L 216.23 18.2062C 214.248 20.4062 212.579 24.2099 211.221 29.6172C 209.914 34.9454 208.91 39.1511 208.211 42.2343C 207.497 45.2523 207.295 47.4782 207.603 48.912C 207.912 50.3457 208.358 51.3067 208.941 51.795C 209.588 52.2692 210.336 52.415 211.183 52.2325C 212.421 51.9657 213.868 50.2901 215.522 47.2059C 218.105 42.4211 221.128 32.8701 224.59 18.5531C 225.012 17.03 226.136 16.0719 227.96 15.6787L 233.239 14.5413C 232.044 15.9582 231.149 17.3444 230.555 18.7C 230.026 20.0416 229.367 22.3658 228.579 25.6726C 226.354 34.3356 225.287 39.9871 225.378 42.6271C 225.38 43.5816 225.464 44.4499 225.633 45.2319C 226.082 47.3174 227.038 48.2709 228.5 48.0923C 232.019 47.334 235.18 40.9585 237.984 28.9656C 238.178 27.9689 238.492 27.5263 238.925 27.6375C 239.358 27.7488 239.61 27.9673 239.68 28.2932C 239.75 28.6191 239.619 29.4317 239.285 30.7312C 238.951 32.0306 238.61 33.2975 238.262 34.5318C 237.98 35.752 237.463 37.4661 236.711 39.674C 236.01 41.8026 235.29 43.5262 234.551 44.8448C 232.628 48.2599 230.427 50.2343 227.951 50.7679C 225.54 51.2874 223.646 50.5702 222.27 48.6161C 221.669 47.7228 221.206 46.5267 220.883 45.0277C 220.56 43.5288 220.486 41.6012 220.66 39.245C 217.7 48.6119 214.2 53.7307 210.159 54.6013C 206.64 55.3596 204.271 54.3355 203.053 51.5292C 202.787 51.2455 202.605 50.8755 202.507 50.4193Z"/>
<path id="path13_fill" d="M 255.867 42.9118C 256.742 42.8596 257.343 42.7984 257.669 42.7282C 260.276 42.1665 262.52 40.0803 264.402 36.4697C 265.405 34.4803 266.929 29.6851 268.974 22.0838C 269.034 21.7299 269.227 21.5178 269.553 21.4476C 270.126 21.2561 270.468 21.421 270.58 21.9424C 270.608 22.0727 270.53 22.4988 270.344 23.2207C 270.21 23.8635 270.083 24.5387 269.962 25.2466C 269.828 25.8893 269.594 26.8604 269.26 28.1599C 268.926 29.4593 268.609 30.5166 268.307 31.3318C 268.07 32.1329 267.739 33.1251 267.312 34.3082C 266.885 35.4914 266.408 36.4465 265.883 37.1734L 264.293 39.7664C 263.424 41.113 262.289 42.1759 260.889 42.955C 258.646 44.2566 256.314 44.8273 253.892 44.6671C 252.534 45.6417 251.268 46.2554 250.095 46.5082C 245.468 47.5052 242.272 46.2842 240.508 42.8452C 240.13 42.0401 239.815 41.051 239.562 39.8779C 239.295 38.6397 239.434 37.3824 239.977 36.106C 240.585 34.8155 241.339 34.0394 242.237 33.7776C 244.199 26.7399 245.805 20.4266 247.056 14.8378C 248.469 8.73656 250.903 5.31385 254.357 4.56964C 255.27 4.37305 256.199 4.41159 257.144 4.68525C 258.141 4.87968 258.565 5.26568 258.417 5.84321C 258.333 6.40671 257.898 6.60275 257.111 6.43136C 256.324 6.25996 255.67 6.23043 255.148 6.34277C 254.627 6.4551 254.192 6.65115 253.843 6.93091C 251.852 8.45107 251.228 10.9382 251.973 14.3923C 252.366 16.217 252.949 17.6598 253.724 18.7206C 254.498 19.7813 255.358 20.9258 256.305 22.1539C 258.534 25.2199 259.88 27.8282 260.343 29.9788C 260.807 32.1295 260.579 34.395 259.66 36.7753C 258.74 39.1557 257.476 41.2012 255.867 42.9118ZM 252.396 42.9436C 254.786 40.11 255.447 36.2166 254.38 31.2636C 253.945 29.2433 253.12 26.5227 251.906 23.1018C 250.691 19.6808 249.95 17.3512 249.684 16.113C 249.417 14.8747 249.267 14.0205 249.234 13.5502C 246.415 24.5234 244.651 31.2117 243.941 33.6151C 245.31 33.3202 246.205 34.1503 246.626 36.1055C 247.455 39.9506 249.378 42.23 252.396 42.9436ZM 244.495 41.8839C 244.58 42.2749 244.703 42.6915 244.867 43.1337C 245.767 44.781 247.163 45.401 249.053 44.9938C 249.835 44.8253 250.458 44.5545 250.923 44.1815C 248.189 43.2021 246.359 41.039 245.434 37.6923C 244.513 39.1181 244.2 40.5153 244.495 41.8839Z"/>
</defs>
</svg>
