<svg width="638" height="232" viewBox="0 0 638 232" version="1.1" xmlns="http://www.w3.org/2000/svg" xmlns:xlink="http://www.w3.org/1999/xlink">
<title>Virginie &#38; Cyrus</title>
<desc>Created using Figma</desc>
<g id="Canvas" transform="translate(-44599 -1020)">
<g id="Virginie &#38; Cyrus">
<use xlink:href="#path0_fill" transform="translate(44599.6 1020.59)" fill="#FFFFFF"/>
<use xlink:href="#path1_fill" transform="translate(44599.6 1020.59)" fill="#FFFFFF"/>
<use xlink:href="#path2_fill" transform="translate(44599.6 1020.59)" fill="#FFFFFF"/>
<use xlink:href="#path3_fill" transform="translate(44599.6 1020.59)" fill="#FFFFFF"/>
<use xlink:href="#path4_fill" transform="translate(44599.6 1020.59)" fill="#FFFFFF"/>
<use xlink:href="#path5_fill" transform="translate(44599.6 1020.59)" fill="#FFFFFF"/>
<use xlink:href="#path6_fill" transform="translate(44599.6 1020.59)" fill="#FFFFFF"/>
<use xlink:href="#path7_fill" transform="translate(44599.6 1020.59)" fill="#FFFFFF"/>
<use xlink:href="#path8_fill" transform="translate(44599.6 1020.59)" fill="#FFFFFF"/>
<use xlink:href="#path9_fill" transform="translate(44599.6 1020.59)" fill="#FFFFFF"/>
<use xlink:href="#path10_fill" transform="translate(44599.6 1020.59)" fill="#FFFFFF"/>
<use xlink:href="#path11_fill" transform="translate(44599.6 1020.59)" fill="#FFFFFF"/>
<use xlink:href="#path12_fill" transform="translate(44599.6 1020.59)" fill="#FFFFFF"/>
<use xlink:href="#path13_fill" transform="translate(44599.6 1020.59)" fill="#FFFFFF"/>
</g>
</g>
<defs>
<path id="path0_fill" d="M 22.39 178.409C 24.64 177.409 25.89 175.659 26.14 173.659C 26.89 170.159 28.89 167.159 28.89 163.409C 28.89 160.409 30.89 157.159 31.14 153.659C 31.39 152.409 30.64 151.159 31.39 149.909C 32.89 146.409 32.64 142.409 33.64 138.659C 34.39 135.909 34.39 133.159 34.64 130.409C 35.14 128.659 35.39 126.659 35.64 124.909C 36.14 123.159 37.39 120.909 37.14 119.409C 36.64 117.659 37.39 116.409 37.64 115.159C 38.14 112.159 37.89 109.159 39.39 106.409C 40.14 104.659 39.39 102.409 39.89 100.659C 40.39 99.6595 41.14 99.1595 40.64 97.9095C 40.14 96.9095 40.89 95.9095 41.14 94.6595C 41.89 93.4095 42.39 91.6595 41.89 90.4095C 40.64 88.1595 43.64 86.4095 42.39 83.9095C 41.89 82.9095 43.64 80.6595 43.64 78.9095C 43.64 77.4095 43.39 75.6595 43.89 74.4095C 44.89 70.4095 46.14 66.6595 46.39 62.6595C 46.39 60.9095 46.89 59.9095 47.14 58.4095C 48.14 55.4095 48.39 52.6595 48.89 49.6595C 49.39 45.9095 49.89 42.6595 50.64 39.1595C 50.89 38.1595 50.64 36.9095 51.14 35.9095C 51.89 33.4095 52.39 30.6595 52.39 27.9095C 52.64 26.6595 52.14 25.4095 52.64 24.6595C 54.14 22.1595 54.14 19.4095 54.64 16.6595L 56.64 8.90949C 56.64 7.65949 57.14 6.15948 57.14 5.15948C 56.64 3.40949 55.39 1.65948 52.64 2.15949C 51.39 1.90949 50.64 2.40948 50.39 4.15949C 49.89 6.65949 48.39 8.90949 48.39 11.6595C 48.39 13.9095 46.89 16.1595 46.89 18.6595C 46.89 20.6595 46.14 22.9095 45.64 24.9095L 44.89 27.6595C 44.64 29.1595 45.14 31.1595 44.64 32.4095C 43.39 35.9095 43.14 39.1595 42.39 42.6595C 41.89 45.4095 41.39 48.1595 41.39 50.6595C 41.14 54.4095 39.89 57.9095 39.39 61.6595C 38.64 67.4095 36.89 72.6595 36.64 78.4095C 36.39 81.1595 36.14 83.9095 34.89 86.1595C 34.64 87.4095 35.64 88.1595 35.14 89.1595C 34.14 91.1595 34.39 93.4095 34.14 95.4095C 33.64 97.9095 32.89 100.159 32.64 102.659C 32.64 106.409 31.64 110.159 30.89 113.909C 30.64 115.659 30.64 117.159 30.14 118.909C 29.39 121.409 28.39 124.409 28.39 127.159C 28.64 129.409 27.64 131.159 27.39 133.159C 27.14 138.159 25.64 143.159 24.89 148.159C 24.39 150.409 25.14 152.659 24.39 154.659C 23.89 155.409 23.64 156.159 23.64 157.159L 22.39 164.409C 21.89 165.909 21.14 167.659 20.64 168.909C 20.39 169.409 20.89 170.159 20.14 170.159C 19.39 170.159 19.64 169.659 19.39 169.159L 18.14 163.909C 17.64 161.659 16.89 159.159 16.89 156.909C 16.89 155.409 16.14 154.409 16.39 152.909C 16.64 150.659 15.14 148.909 15.14 146.409C 14.89 143.409 13.14 140.409 13.14 137.159C 13.14 135.159 12.64 133.659 12.89 131.409C 13.39 129.409 12.64 127.159 12.64 125.159C 12.64 122.909 12.89 120.159 12.39 118.659C 12.39 118.659 11.14 115.159 11.14 114.659C 10.89 112.909 12.14 111.409 11.89 109.409C 11.39 106.409 11.39 103.409 10.89 100.159C 10.89 99.1595 12.14 97.9095 11.64 97.1595C 10.39 94.6595 11.39 91.9095 10.64 89.1595C 9.89 86.1595 10.39 82.6595 10.39 79.6595C 10.39 78.1595 9.89 76.6595 10.89 75.1595C 11.89 73.9095 11.89 72.4095 10.89 70.9095C 10.39 70.1595 10.39 69.4095 10.39 68.6595C 11.14 66.6595 10.39 64.9095 10.89 62.9095C 12.14 59.6595 10.14 56.4095 10.39 53.1595C 10.64 51.1595 11.64 49.4095 10.89 47.6595C 9.89 45.1595 11.14 42.9095 11.39 40.6595C 11.39 39.1595 10.89 38.1595 11.39 36.9095C 11.89 35.4095 11.64 33.9095 11.39 32.6595C 10.89 30.1595 10.39 27.6595 10.39 24.9095C 10.64 23.4095 11.89 21.4095 10.89 19.9095C 10.14 18.4095 10.14 16.4095 9.14 14.9095C 7.89 11.6595 6.64 10.9095 3.39 12.6595C 1.89 13.6595 0.64 15.9095 1.64 18.1595C 1.89 18.6595 2.14 19.1595 1.89 19.6595C 1.14 21.4095 0.890001 22.9095 1.14 24.4095C 1.64 27.6595 0.64 30.9095 1.14 33.9095C 2.14 38.9095 0.14 43.6595 0.64 48.6595C 0.64 50.1595 -0.36 50.9095 0.14 51.9095C 1.39 53.6595 0.64 55.6595 0.890001 57.9095C 1.39 59.6595 0.64 61.9095 0.64 63.9095C 0.64 66.1595 -0.11 68.4095 0.64 70.9095C 1.14 73.1595 -0.11 76.1595 0.390001 78.1595C 0.64 81.1595 -0.11 84.1595 0.64 87.1595C 0.64 87.9095 -0.11 89.1595 0.390001 89.6595C 0.64 91.4095 1.14 92.9095 1.14 94.6595C 1.39 98.1595 1.39 101.659 1.39 104.909C 1.39 107.409 1.89 110.159 1.39 112.659C 1.14 114.909 1.64 117.159 1.64 119.409C 1.64 122.659 2.39 125.909 2.89 128.909C 3.64 132.159 3.14 135.659 4.14 138.659C 4.89 140.909 5.39 143.409 5.64 145.659C 6.64 149.409 7.64 153.159 8.14 156.659C 8.89 158.909 9.39 161.159 9.89 163.659C 10.39 166.409 11.64 169.159 12.64 171.659C 12.89 173.159 13.39 174.909 14.39 176.409C 16.64 179.909 18.89 180.159 22.39 178.409Z"/>
<path id="path1_fill" d="M 58.1361 87.4095C 59.8861 87.4095 61.6361 86.6595 61.6361 83.9095C 61.6361 82.1595 59.8861 80.4095 58.1361 80.4095C 56.8861 80.4095 54.8861 81.9095 54.8861 83.9095C 54.6361 86.4095 56.6361 87.4095 58.1361 87.4095ZM 56.3861 150.159C 57.3861 149.659 58.8861 149.409 59.1361 148.409C 60.3861 145.909 59.6361 143.159 59.8861 140.659C 59.8861 139.909 58.6361 139.909 58.6361 138.659C 58.8861 136.159 58.8861 133.409 58.6361 130.909C 58.6361 127.409 58.6361 123.659 59.1361 120.159C 59.3861 118.659 58.6361 117.909 58.6361 116.409C 58.8861 113.409 59.3861 110.659 59.3861 107.659C 59.3861 106.659 59.3861 105.909 59.8861 104.659C 60.3861 103.409 60.6361 102.159 60.6361 100.909C 60.1361 98.1595 57.8861 97.1595 55.6361 96.4095C 55.3861 96.1595 55.1361 95.6595 54.3861 96.1595C 51.6361 98.1595 50.8861 101.159 50.3861 104.409C 49.6361 107.909 49.3861 111.159 49.6361 114.409C 49.6361 118.159 49.3861 121.909 49.6361 125.409C 50.1361 128.159 50.8861 131.409 50.8861 134.659C 50.8861 137.659 51.6361 140.409 51.8861 143.409C 52.1361 145.159 51.1361 147.909 53.6361 149.409C 54.3861 149.659 55.3861 150.659 56.3861 150.159Z"/>
<path id="path2_fill" d="M 77.138 153.409C 77.888 152.909 78.888 152.409 78.888 151.159C 79.138 150.659 78.388 149.909 78.888 149.159C 79.888 147.659 78.888 145.909 79.388 144.659C 79.638 143.659 79.888 142.159 79.638 141.909C 78.888 140.159 79.638 138.409 79.638 137.409C 79.888 135.159 79.888 132.909 80.138 130.909L 81.638 122.909C 82.388 120.159 83.138 117.159 84.388 114.409C 84.888 113.159 84.388 111.409 85.388 110.159C 86.888 108.409 87.138 105.659 88.138 102.909C 88.888 100.909 90.138 99.4095 91.138 97.9095C 91.888 96.4095 94.138 95.4095 95.638 94.1595C 96.138 93.1595 95.638 92.1595 95.138 91.4095C 94.888 90.9095 93.888 89.9095 93.638 90.1595C 92.388 90.6595 90.888 90.9095 89.638 91.9095C 87.888 93.4095 86.138 95.1595 84.888 97.1595C 83.138 99.9095 82.388 102.659 81.638 105.909C 80.638 108.159 79.638 110.159 79.638 112.159C 79.138 114.409 78.138 116.909 77.888 119.159C 77.638 119.659 77.638 119.909 77.638 120.159L 77.138 120.159C 76.888 119.659 76.638 119.159 76.638 118.659C 76.888 116.659 77.638 114.409 77.138 112.409C 76.888 110.159 77.638 108.409 77.888 106.159L 77.888 100.909C 78.138 98.4095 78.388 95.6595 78.888 93.1595L 79.388 88.6595C 79.638 86.1595 78.138 85.4095 76.638 84.6595C 75.388 83.9095 74.388 85.4095 73.888 85.9095C 72.388 87.4095 72.388 89.1595 72.138 90.6595C 71.638 93.9095 71.388 97.1595 71.138 99.9095C 70.888 101.659 70.638 102.909 70.638 104.659C 70.388 105.659 69.888 107.409 70.388 108.409C 71.138 109.659 70.888 111.409 70.388 112.909C 70.388 114.409 71.388 115.909 70.638 117.409C 70.388 119.409 70.388 121.409 70.388 123.659C 70.388 124.659 71.638 125.909 70.888 127.159C 70.388 127.659 70.388 128.159 70.638 128.909C 71.388 129.909 71.388 130.909 71.138 131.909C 70.638 134.159 72.138 136.409 71.888 138.409C 71.638 140.159 72.138 141.909 72.138 143.159C 72.638 146.159 72.888 148.909 73.888 151.659C 74.388 153.409 76.138 154.409 77.138 153.409Z"/>
<path id="path3_fill" d="M 110.964 230.409C 113.964 229.909 116.464 228.909 117.964 226.909C 120.464 222.909 124.214 219.659 125.214 214.909C 125.964 212.659 126.964 211.159 126.964 209.659C 126.714 205.909 128.964 203.409 129.214 200.159C 129.714 196.909 131.214 194.159 131.214 190.909C 131.214 190.159 131.214 189.159 131.464 188.159C 131.714 186.159 132.214 184.159 132.714 182.159C 133.214 179.659 132.464 177.409 132.964 175.409C 133.214 172.659 133.464 172.909 133.464 170.159C 133.214 167.409 133.464 165.909 133.464 162.909C 132.964 159.159 134.464 157.909 133.464 154.159C 133.214 153.909 132.964 151.409 133.214 150.659L 133.714 148.909C 134.714 146.659 133.964 144.659 133.464 137.909C 132.964 136.159 134.714 134.409 136.214 132.159C 137.964 129.659 140.714 128.659 141.964 125.409C 144.464 123.909 144.214 123.409 146.214 121.159C 148.214 118.659 147.964 118.909 150.214 116.659C 151.964 114.909 152.714 115.159 154.714 113.409C 155.714 112.409 157.714 110.909 157.714 108.159C 158.214 103.159 152.464 107.909 150.714 109.159C 147.964 111.159 147.214 110.909 144.964 113.659C 143.464 115.909 143.714 115.659 140.714 118.159C 138.714 120.159 139.464 118.909 137.714 120.909C 136.714 122.159 135.214 124.409 133.214 124.409C 132.464 124.409 132.964 121.909 132.214 121.159C 130.964 119.909 132.214 119.909 132.214 117.659C 132.214 114.659 130.964 109.659 130.714 107.409C 129.714 103.909 129.214 100.409 127.964 97.1595C 126.964 95.1595 126.714 95.4095 124.464 94.6595C 123.464 94.6595 121.964 95.6595 121.464 96.6595C 119.714 100.409 118.214 104.159 116.714 107.909C 115.714 110.659 114.964 113.659 113.714 116.159C 111.964 119.659 110.964 123.409 108.464 126.409L 106.964 127.909C 106.214 128.659 106.214 126.909 105.714 126.659C 104.964 125.409 105.964 124.159 105.714 123.659C 104.214 121.159 105.714 118.659 105.464 116.409C 105.214 114.159 106.964 111.659 106.464 109.159C 106.214 105.409 108.464 102.409 108.964 98.6595C 109.464 95.6595 111.464 92.9095 113.214 90.1595C 114.464 87.9095 115.964 86.1595 117.464 84.1595C 118.714 81.9095 121.464 81.9095 122.714 84.1595C 123.214 84.9095 123.964 85.4095 124.714 85.1595C 128.464 84.1595 127.214 80.9095 126.714 79.6595C 125.464 77.4095 123.714 74.4095 119.964 75.4095C 118.214 74.9095 116.464 75.6595 114.964 76.1595C 110.964 78.4095 107.964 81.1595 105.214 84.6595C 103.714 86.4095 103.714 89.4095 101.714 91.1595C 100.714 92.1595 100.464 93.1595 100.464 94.1595C 100.214 95.6595 99.4642 97.1595 99.4642 98.9095C 99.2142 102.409 95.7142 105.409 97.2142 109.159C 97.2142 109.659 96.9642 110.159 96.9642 110.159C 96.4642 112.659 95.7142 114.909 95.9642 117.159C 95.9642 117.909 96.7142 119.659 96.2142 120.409C 95.2142 122.659 97.9642 123.909 97.4642 125.909C 97.2142 126.659 96.7142 127.659 97.9642 128.659C 98.4642 129.159 98.7142 129.909 99.2142 130.659C 100.214 133.409 102.214 135.159 105.214 135.409C 107.964 135.909 112.214 132.659 113.214 129.659L 117.214 122.159C 119.214 117.659 120.214 113.409 122.214 108.909C 122.464 108.659 122.464 108.409 122.714 108.409C 123.214 108.159 123.464 108.659 123.464 108.909C 123.964 113.909 124.714 118.659 124.714 123.409C 124.714 126.909 124.964 129.659 124.714 133.159C 124.214 135.659 122.714 136.909 121.714 138.909C 120.464 140.659 118.964 142.159 118.214 144.409C 116.714 148.159 113.964 151.409 112.464 155.159C 110.464 158.909 108.214 162.409 106.714 166.159C 105.464 169.159 104.214 172.409 103.714 175.909C 102.964 178.909 101.464 181.909 100.714 185.409L 98.4642 198.909C 98.2142 201.159 97.4642 203.409 98.2142 205.909C 98.9642 207.659 97.9642 210.159 98.2142 212.659C 98.7142 215.909 99.2142 219.159 100.464 222.409C 101.464 224.659 102.964 227.159 104.964 228.409C 106.714 229.659 108.714 230.659 110.964 230.409ZM 110.464 224.909C 108.464 224.409 106.964 222.909 105.714 220.409C 104.714 217.409 103.964 214.909 103.214 211.659C 103.214 210.409 104.214 209.409 103.714 207.909C 102.964 205.159 103.214 202.409 103.964 199.409C 104.714 194.909 105.214 189.909 106.464 185.159C 107.214 182.409 108.714 179.909 108.964 176.659C 108.964 174.409 110.714 172.159 111.714 169.909C 112.214 168.409 112.714 166.659 113.214 165.409C 114.464 163.409 115.214 161.159 116.464 158.909L 119.964 152.909C 121.214 150.409 122.464 147.909 123.964 145.659C 124.214 145.159 124.714 144.909 125.214 144.409C 125.464 145.159 125.464 145.909 124.964 146.659C 124.714 146.659 126.214 150.159 125.714 151.409C 125.464 153.659 125.464 157.909 125.464 161.409C 125.464 163.409 126.714 165.409 125.464 167.159C 125.214 170.659 125.964 171.409 125.714 173.659C 125.464 177.409 125.464 181.159 125.464 185.159C 125.464 185.659 125.464 185.909 125.214 186.159C 124.214 187.909 124.714 189.409 124.964 191.159C 124.964 193.159 124.964 195.159 124.214 196.409C 123.464 198.159 123.214 200.159 122.714 201.659C 121.714 205.659 120.714 209.659 119.464 213.409C 117.964 217.409 115.714 221.159 112.464 224.159C 111.964 224.659 111.464 224.909 110.464 224.909Z"/>
<path id="path4_fill" d="M 160.919 87.4095C 162.669 87.4095 164.419 86.6595 164.419 83.9095C 164.419 82.1595 162.669 80.4095 160.919 80.4095C 159.669 80.4095 157.669 81.9095 157.669 83.9095C 157.419 86.4095 159.419 87.4095 160.919 87.4095ZM 159.169 150.159C 160.169 149.659 161.669 149.409 161.919 148.409C 163.169 145.909 162.419 143.159 162.669 140.659C 162.669 139.909 161.419 139.909 161.419 138.659C 161.669 136.159 161.669 133.409 161.419 130.909C 161.419 127.409 161.419 123.659 161.919 120.159C 162.169 118.659 161.419 117.909 161.419 116.409C 161.669 113.409 162.169 110.659 162.169 107.659C 162.169 106.659 162.169 105.909 162.669 104.659C 163.169 103.409 163.419 102.159 163.419 100.909C 162.919 98.1595 160.669 97.1595 158.419 96.4095C 158.169 96.1595 157.919 95.6595 157.169 96.1595C 154.419 98.1595 153.669 101.159 153.169 104.409C 152.419 107.909 152.169 111.159 152.419 114.409C 152.419 118.159 152.169 121.909 152.419 125.409C 152.919 128.159 153.669 131.409 153.669 134.659C 153.669 137.659 154.419 140.409 154.669 143.409C 154.919 145.159 153.919 147.909 156.419 149.409C 157.169 149.659 158.169 150.659 159.169 150.159Z"/>
<path id="path5_fill" d="M 203.171 169.159C 204.671 169.159 206.421 170.159 207.671 168.659C 209.421 166.659 208.171 164.659 208.171 162.909C 208.671 159.409 208.421 156.409 208.921 152.909C 209.421 146.409 208.921 139.659 209.671 133.159C 209.921 131.159 210.171 129.159 210.171 127.159C 210.171 125.659 211.671 125.409 211.421 124.409C 210.921 122.409 210.671 120.159 211.421 117.909C 212.421 114.659 213.171 111.159 213.421 107.909C 213.421 105.659 214.671 103.659 214.171 101.159C 213.421 99.6595 214.171 96.9095 214.671 94.9095C 215.171 92.4095 214.921 89.9095 214.921 87.4095C 214.921 83.6595 213.671 80.6595 209.921 78.6595C 209.671 78.6595 209.671 78.1595 208.671 78.1595C 205.671 78.4095 203.671 80.1595 202.171 82.6595C 199.171 86.4095 196.671 90.6595 194.171 94.9095C 191.671 99.1595 189.921 103.409 187.921 107.909L 185.671 115.159C 184.671 119.409 183.171 123.409 181.921 127.409C 181.921 127.659 181.671 127.909 181.671 128.159L 181.171 127.409C 180.671 126.159 182.671 124.909 181.921 123.659C 180.671 121.159 181.421 118.909 181.171 116.659C 180.921 114.409 181.171 111.909 181.671 110.159C 182.171 107.909 181.171 106.159 181.921 104.409C 182.671 101.409 182.421 98.1595 182.671 95.1595C 182.421 94.4095 183.171 93.4095 182.421 92.4095C 181.171 91.1595 179.921 90.9095 178.171 91.1595C 176.421 91.9095 175.671 94.1595 175.421 95.4095C 174.671 98.6595 174.171 102.159 173.671 105.409C 173.171 109.159 173.921 112.909 173.171 116.659C 172.921 118.159 173.171 120.159 173.421 122.159C 173.421 124.409 173.171 126.659 173.671 129.159C 173.921 131.409 174.171 133.659 173.671 136.159C 173.421 137.159 174.421 137.909 174.421 139.409C 174.171 140.909 174.171 142.409 174.921 144.159C 175.671 144.909 175.671 146.159 175.421 147.159C 175.421 148.659 175.921 150.659 176.921 151.159C 178.671 151.909 181.171 151.659 182.421 149.909C 183.171 148.659 183.921 146.659 183.921 144.909C 183.671 142.659 183.921 140.659 184.671 138.909C 185.421 135.409 186.171 131.909 187.421 128.409C 188.171 125.159 189.421 122.159 190.171 118.659C 190.671 115.909 191.421 113.159 192.671 110.659C 193.421 107.909 194.421 105.409 195.671 103.159C 196.671 100.659 198.171 98.6595 199.421 96.6595C 201.171 93.1595 202.921 89.6595 206.171 86.9095C 206.171 86.9095 206.421 86.6595 206.671 86.6595C 206.671 86.9095 206.921 87.1595 206.921 87.4095C 206.171 89.1595 206.671 90.9095 206.421 92.9095C 205.671 96.1595 205.171 99.6595 204.921 103.159C 204.921 106.909 203.671 110.659 203.171 114.409C 202.671 117.659 202.921 121.159 202.171 124.659C 201.171 127.909 202.171 131.909 201.421 135.409C 201.171 137.409 202.171 139.659 201.671 141.659C 200.921 143.909 201.671 146.159 201.671 148.659C 201.421 150.909 200.921 156.659 200.921 159.409C 200.921 162.909 200.921 164.159 201.671 166.409C 202.171 167.659 202.421 168.909 203.171 169.159Z"/>
<path id="path6_fill" d="M 230.988 87.4095C 232.738 87.4095 234.488 86.6595 234.488 83.9095C 234.488 82.1595 232.738 80.4095 230.988 80.4095C 229.738 80.4095 227.738 81.9095 227.738 83.9095C 227.488 86.4095 229.488 87.4095 230.988 87.4095ZM 229.238 150.159C 230.238 149.659 231.738 149.409 231.988 148.409C 233.238 145.909 232.488 143.159 232.738 140.659C 232.738 139.909 231.488 139.909 231.488 138.659C 231.738 136.159 231.738 133.409 231.488 130.909C 231.488 127.409 231.488 123.659 231.988 120.159C 232.238 118.659 231.488 117.909 231.488 116.409C 231.738 113.409 232.238 110.659 232.238 107.659C 232.238 106.659 232.238 105.909 232.738 104.659C 233.238 103.409 233.488 102.159 233.488 100.909C 232.988 98.1595 230.738 97.1595 228.488 96.4095C 228.238 96.1595 227.988 95.6595 227.238 96.1595C 224.488 98.1595 223.738 101.159 223.238 104.409C 222.488 107.909 222.238 111.159 222.488 114.409C 222.488 118.159 222.238 121.909 222.488 125.409C 222.988 128.159 223.738 131.409 223.738 134.659C 223.738 137.659 224.488 140.409 224.738 143.409C 224.988 145.159 223.988 147.909 226.488 149.409C 227.238 149.659 228.238 150.659 229.238 150.159Z"/>
<path id="path7_fill" d="M 254.99 151.659C 258.24 150.659 260.74 148.659 262.74 146.409C 264.74 143.659 266.99 140.909 268.99 137.909C 270.49 135.159 272.74 133.159 274.49 130.659C 276.74 127.409 278.49 124.409 280.74 121.659C 282.49 119.159 280.99 120.909 282.49 118.409C 283.24 117.159 283.24 115.659 282.49 114.909C 281.99 114.159 281.24 113.409 279.74 114.409C 277.74 115.659 277.24 117.159 276.24 117.659C 273.74 120.159 271.74 123.909 269.74 126.909C 267.49 129.659 264.99 132.409 262.99 135.409C 260.74 138.659 258.24 142.159 254.74 144.409C 252.74 145.409 250.24 143.659 249.99 141.659C 249.74 140.659 249.99 139.159 249.49 138.409C 249.24 138.159 248.99 137.909 248.74 137.409L 248.74 136.659C 248.99 133.909 248.99 131.409 248.49 128.659L 248.49 127.659C 248.74 125.909 251.49 125.409 252.74 124.659C 254.74 123.909 255.99 122.409 257.74 121.409C 261.49 119.159 263.74 115.909 265.24 112.409C 266.74 109.409 268.49 105.659 267.99 101.659C 267.74 99.6595 267.99 97.9095 266.49 96.4095C 263.99 93.9095 258.74 92.4095 256.24 94.6595C 254.74 95.9095 252.24 96.4095 251.24 98.9095C 250.24 102.159 245.74 102.909 245.99 106.909C 245.99 107.159 245.99 107.159 245.74 107.409C 243.49 109.659 243.24 112.909 242.24 115.909C 241.24 117.909 241.49 120.659 241.24 123.159C 240.99 125.159 240.74 127.409 240.74 129.659C 240.74 131.659 241.24 133.909 241.49 136.159C 240.99 138.159 241.99 139.909 242.24 141.909C 242.49 144.159 243.49 146.409 245.24 148.409C 247.99 151.409 250.99 153.159 254.99 151.659ZM 251.49 116.159C 251.74 114.909 252.24 113.409 253.24 111.909C 254.49 110.159 253.99 107.659 255.74 106.409C 257.24 105.159 262.24 97.1595 263.74 102.659C 264.24 104.159 263.74 105.159 262.74 106.409L 261.99 107.659C 261.74 108.659 260.74 110.409 260.74 111.409C 260.24 112.659 259.99 112.409 259.24 113.409C 258.99 113.909 258.74 114.159 258.24 114.659C 257.24 115.909 251.24 119.659 251.49 116.159Z"/>
<path id="path8_fill" d="M 404.093 181.909C 405.343 181.909 406.343 180.909 406.843 179.909C 407.593 178.409 406.593 176.659 405.843 176.409C 404.093 175.659 402.343 175.159 400.593 173.659C 399.093 172.159 396.843 171.159 394.593 169.909C 392.093 168.659 390.343 166.409 387.843 164.909C 386.843 164.159 385.093 162.159 383.843 160.909C 380.843 158.409 377.843 155.409 375.093 152.409C 373.093 150.409 371.093 148.159 369.843 146.409C 367.343 143.909 367.843 141.909 368.343 139.659C 369.093 136.659 369.593 133.409 370.093 130.409L 370.593 124.909C 370.843 122.659 372.093 120.409 372.343 118.159C 372.843 115.159 372.843 112.159 373.093 109.409C 373.093 108.159 372.593 107.159 375.093 106.909C 378.843 106.659 383.093 106.409 386.343 103.409C 387.093 102.409 387.843 101.159 387.343 100.159C 386.593 98.6595 385.093 97.1595 383.093 98.6595C 382.093 99.6595 381.343 100.159 380.093 99.9095C 377.343 99.4095 374.843 100.159 372.093 100.159C 369.093 100.159 365.593 100.659 362.593 100.409C 361.343 100.159 359.843 100.659 359.093 101.409C 357.593 103.159 359.093 104.409 359.593 106.159C 360.093 107.159 361.093 106.659 361.843 106.909C 363.843 106.909 365.343 107.159 367.343 107.659C 368.093 107.659 368.093 108.159 367.843 108.409C 367.093 109.909 367.093 111.909 366.843 113.909C 366.593 117.409 365.343 120.909 364.843 124.409C 364.593 128.159 364.093 132.409 362.843 136.159C 362.843 136.409 362.843 136.909 362.593 136.909C 362.343 137.159 362.093 136.909 361.593 136.659C 360.843 135.909 361.593 134.659 360.843 133.909C 358.843 132.409 358.093 129.159 356.093 127.409C 354.843 126.409 354.593 125.159 354.343 123.659C 353.843 122.159 352.093 121.409 352.093 119.409C 352.593 118.659 351.843 117.659 351.343 117.159C 349.343 115.159 349.343 111.909 347.843 109.409C 346.343 106.159 345.843 102.659 344.593 99.4095C 343.843 97.6595 344.593 95.9095 343.843 94.4095C 342.843 92.4095 343.593 90.6595 345.093 89.1595C 345.593 88.9095 346.593 88.4095 346.593 87.9095C 346.343 86.4095 348.343 85.1595 348.093 83.4095C 348.093 81.4095 350.343 81.4095 350.843 79.6595C 351.093 78.6595 351.843 77.6595 351.843 76.4095C 352.093 73.9095 355.843 73.1595 355.843 69.9095C 355.843 69.6595 357.343 67.1595 358.593 65.6595C 359.843 63.9095 361.093 61.4095 362.343 58.9095C 363.593 57.4095 362.843 55.4095 364.343 53.6595C 365.843 51.6595 365.343 48.6595 367.093 46.4095C 368.093 44.9095 368.093 41.9095 368.343 39.6595C 369.343 35.9095 369.843 32.1595 369.093 28.9095C 368.593 26.6595 368.093 23.6595 365.093 22.6595L 362.843 21.4095C 361.343 19.9095 356.343 19.1595 354.343 20.6595C 353.343 21.4095 352.843 22.9095 351.343 23.1595C 349.093 24.1595 347.343 25.6595 346.343 27.1595C 345.093 29.4095 343.093 30.9095 342.093 33.4095C 340.343 37.1595 338.843 41.4095 337.593 45.9095C 336.843 47.9095 336.343 50.1595 336.093 52.4095C 336.093 53.6595 335.093 54.9095 334.843 56.4095C 334.343 59.1595 334.593 62.1595 334.343 64.6595C 333.843 68.1595 333.843 71.9095 334.093 75.4095C 334.343 79.1595 335.093 83.4095 335.093 87.4095C 334.843 89.9095 333.593 92.6595 332.343 94.9095C 331.093 97.6595 329.593 100.159 328.343 102.909C 327.343 104.409 326.343 106.409 325.843 108.409C 325.593 110.659 323.593 112.659 323.843 115.409C 323.843 116.409 322.593 117.409 322.343 118.659C 321.093 122.159 319.843 125.659 319.343 129.659C 319.093 130.909 318.843 132.659 318.343 134.159C 318.093 135.409 317.093 136.909 317.343 137.409C 317.843 139.409 317.343 141.409 317.093 142.909C 316.343 145.659 317.343 148.909 317.093 151.659C 316.843 155.159 316.843 158.409 317.843 161.409C 318.343 164.159 319.843 166.659 320.593 168.909C 320.843 169.909 320.343 171.409 320.843 171.659C 323.343 172.659 323.843 175.159 326.093 176.659C 330.093 178.409 333.593 181.159 338.843 181.159C 343.593 181.159 348.093 179.659 352.093 176.659C 354.093 174.409 356.843 172.409 358.093 169.659C 358.843 167.409 359.843 166.159 361.093 164.159C 362.593 161.159 363.843 158.159 364.593 155.159C 364.593 155.159 364.093 150.659 366.593 153.909C 367.843 155.409 369.593 157.159 370.593 158.409C 372.093 160.159 373.593 160.909 374.843 162.909C 376.593 166.159 380.843 166.909 383.093 170.159C 384.343 172.159 386.843 173.159 388.843 174.409C 391.343 175.659 393.093 178.159 395.593 179.159C 398.593 180.159 400.843 181.909 404.093 181.909ZM 342.093 76.9095C 341.843 77.4095 341.093 76.9095 341.093 76.6595L 341.093 70.6595C 341.093 68.9095 339.843 67.1595 341.593 65.1595C 342.093 64.6595 341.843 64.1595 341.843 63.1595C 340.593 58.6595 342.593 54.6595 342.843 50.6595C 343.093 46.9095 344.593 43.1595 346.343 40.1595C 348.093 36.9095 349.093 32.9095 352.593 30.6595C 354.093 29.1595 356.093 28.1595 358.093 27.1595C 359.343 26.4095 360.343 28.1595 360.343 30.1595C 362.343 32.6595 360.093 35.6595 360.093 38.1595C 360.093 40.1595 359.093 41.9095 358.593 43.9095C 357.593 45.6595 357.093 47.1595 356.593 48.6595C 356.593 49.4095 357.093 50.9095 355.343 51.1595C 354.593 51.1595 355.593 52.4095 354.593 53.4095C 352.843 56.1595 352.093 59.4095 350.093 62.4095C 349.093 63.4095 348.343 64.6595 347.843 65.9095C 347.343 66.6595 347.593 68.1595 346.593 68.6595C 343.843 70.1595 343.843 73.4095 342.593 75.9095C 342.593 76.4095 342.093 76.6595 342.093 76.9095ZM 343.093 173.159C 342.343 173.659 341.093 172.909 340.343 172.909C 339.093 172.659 337.843 173.909 336.343 172.909C 335.593 172.409 334.093 173.159 334.093 171.409C 332.343 171.909 331.843 170.909 331.093 169.909C 328.843 168.659 328.343 166.159 327.093 163.659C 325.593 160.159 325.093 156.159 325.343 152.409C 325.343 150.159 324.593 147.909 324.843 146.409C 325.593 143.909 324.093 140.159 326.843 138.159C 327.093 138.159 326.343 137.159 326.593 136.659C 327.093 134.659 328.093 133.159 327.843 131.409C 327.343 130.159 328.093 129.159 329.093 128.659C 329.843 128.409 329.093 127.909 329.093 127.409C 328.593 124.159 330.843 121.659 331.843 118.909C 332.343 117.159 332.843 115.409 333.593 114.159C 334.093 112.159 334.593 110.409 335.593 108.659C 336.343 107.909 336.093 106.159 337.093 105.159C 337.343 104.909 337.593 104.159 338.093 103.909C 338.093 104.909 339.843 104.909 339.843 105.909L 339.843 106.659C 340.593 110.409 341.843 113.909 343.093 116.909C 344.843 120.159 345.843 123.159 347.343 126.159C 348.343 128.659 350.343 130.659 351.093 133.159C 351.843 135.659 353.593 137.159 354.843 138.909C 356.843 141.409 357.343 144.409 360.093 146.159L 359.593 147.409C 359.093 148.409 359.343 149.909 358.593 150.909C 358.093 151.659 358.593 152.159 358.593 152.659C 357.593 155.409 355.843 157.659 354.843 160.409C 353.843 162.909 352.593 164.909 351.093 167.159C 349.093 170.409 346.093 171.909 343.093 173.159Z"/>
<path id="path9_fill" d="M 456.646 197.159C 459.646 196.909 461.896 195.159 463.896 193.659C 468.146 190.159 470.146 185.409 472.146 180.659C 472.646 180.159 473.396 179.409 473.646 178.159C 473.896 176.909 474.646 175.409 475.396 173.909C 476.396 171.659 477.396 169.409 478.146 167.159C 478.896 164.659 480.646 162.909 480.896 160.409C 481.396 158.159 483.146 156.159 483.896 154.159C 484.896 150.409 486.396 146.659 488.146 143.159C 489.646 140.659 488.146 139.409 486.396 138.909C 484.646 138.409 483.146 139.659 482.646 141.159C 481.646 143.159 480.896 145.159 480.146 147.159C 478.396 150.409 476.896 153.659 475.646 156.909C 474.896 158.409 474.646 160.159 473.646 161.409C 472.396 163.409 471.896 165.659 470.896 167.659C 469.646 169.409 469.396 171.659 468.396 173.409L 464.646 180.909C 463.396 182.909 462.896 185.659 461.146 187.409C 459.396 189.409 457.396 190.909 454.896 189.659C 451.646 187.909 450.646 184.659 448.896 181.909C 448.146 180.659 447.896 179.409 447.146 178.159C 446.396 176.659 445.896 175.159 446.146 173.159C 446.396 170.409 443.646 168.409 443.896 165.659C 444.396 162.659 443.646 159.659 443.396 156.409C 443.396 153.909 443.396 151.409 443.146 148.909C 443.146 148.659 442.896 148.659 442.896 148.409C 441.646 145.409 442.646 142.159 442.146 138.909C 441.896 137.159 441.646 135.409 441.896 133.659C 441.896 131.909 441.646 130.159 441.896 128.659C 443.146 125.909 441.896 123.159 442.646 120.159C 443.146 118.659 442.896 116.659 442.646 114.659C 442.396 112.159 443.896 109.909 443.896 107.409C 444.146 104.659 444.646 101.409 445.646 98.4095C 446.396 95.4095 445.646 92.4095 446.396 89.1595C 446.896 87.6595 446.646 85.9095 446.896 85.1595C 448.896 81.4095 449.146 77.6595 449.396 73.6595C 449.396 72.9095 449.146 72.1595 449.646 71.9095C 451.396 69.9095 451.146 66.9095 451.896 64.6595C 452.646 61.9095 453.646 58.9095 454.396 55.9095C 455.646 51.4095 456.896 47.1595 459.146 43.4095C 460.896 40.1595 460.896 36.6595 463.146 33.9095C 465.396 30.9095 466.646 27.1595 468.146 23.9095C 468.396 22.9095 468.646 21.6595 469.146 21.6595C 471.396 21.4095 472.396 19.1595 473.146 18.1595C 474.646 16.6595 476.146 14.4095 477.896 13.1595C 480.396 11.1595 482.896 7.90949 486.896 9.40948C 488.646 10.1595 490.646 10.9095 491.646 13.4095C 492.396 14.9095 493.396 16.9095 495.646 16.4095C 497.396 15.9095 497.396 14.4095 497.146 13.1595C 496.646 10.1595 496.896 7.15948 493.646 4.90948C 492.396 4.15949 490.646 2.90948 489.646 1.90949C 489.146 1.15949 488.646 1.15949 488.146 1.40948C 487.396 2.15949 486.646 1.65948 486.146 0.909489C 484.896 -0.590521 482.896 0.159484 481.646 0.409481C 479.646 0.659493 477.396 1.40948 475.646 3.15949C 473.396 4.90948 470.896 6.15948 468.646 7.65949C 465.646 10.1595 463.896 14.1595 460.646 16.4095C 459.896 16.9095 459.146 17.4095 458.896 18.6595C 458.396 21.6595 456.646 23.9095 454.896 26.4095C 453.396 28.6595 451.646 31.1595 451.396 33.6595C 451.396 37.6595 447.646 40.1595 447.646 44.1595C 447.646 45.6595 446.646 46.6595 445.896 47.9095C 444.896 49.4095 445.646 51.4095 444.396 52.9095C 443.146 54.1595 443.646 55.9095 442.896 57.6595C 442.396 58.4095 443.896 60.1595 442.396 60.4095C 439.896 60.9095 441.646 62.6595 441.396 63.6595C 441.146 65.1595 441.396 66.6595 440.646 67.9095C 439.646 69.6595 439.646 71.4095 439.146 72.9095C 438.646 74.9095 438.646 77.4095 438.146 79.6595C 437.396 82.9095 436.646 86.1595 436.396 89.6595C 435.896 91.9095 435.646 94.4095 435.646 96.6595C 435.396 101.659 434.146 106.409 433.896 111.409C 433.646 114.909 433.146 118.409 433.396 121.909C 433.646 124.159 432.896 126.409 432.646 128.659C 432.396 130.409 433.146 132.409 432.646 134.409C 432.396 136.409 432.146 139.659 433.396 142.409C 433.896 143.909 433.396 146.159 433.646 148.159C 433.646 149.409 434.646 151.159 434.396 152.159C 433.146 155.409 434.646 158.159 435.146 161.159C 435.646 165.409 435.396 169.909 437.396 173.659C 438.146 175.409 437.896 177.409 438.646 178.409C 440.146 181.159 440.396 184.659 442.896 186.909C 444.646 188.909 445.896 191.409 447.896 193.159C 450.396 195.909 452.896 197.409 456.646 197.159Z"/>
<path id="path10_fill" d="M 524.763 212.409C 526.263 212.409 526.513 211.159 527.263 210.159C 528.263 208.409 527.263 206.909 527.263 205.159C 527.013 201.159 527.013 197.159 527.013 192.909C 527.263 190.909 526.763 189.409 526.513 187.659C 526.263 185.159 526.013 182.409 526.513 179.909C 526.763 176.909 526.763 173.909 526.263 171.159C 525.763 168.659 526.763 166.159 525.763 163.659C 525.263 162.159 527.263 160.409 526.513 158.409C 525.263 155.909 526.763 153.159 526.513 150.659C 526.263 148.659 526.263 146.659 527.013 144.159C 527.513 142.409 527.013 140.159 527.013 138.159C 527.013 134.659 527.263 131.659 527.263 128.159C 527.013 124.909 527.513 121.909 527.513 118.659C 528.013 114.659 528.013 110.659 528.513 106.159C 529.013 105.159 528.013 103.159 527.513 101.909C 527.013 100.159 526.013 97.4095 523.263 97.9095C 520.263 98.4095 517.763 102.909 517.263 105.909C 517.013 107.909 516.263 109.909 515.513 111.909C 514.763 114.409 513.013 116.909 512.763 119.659C 512.513 122.659 510.263 125.159 509.763 128.159C 509.513 130.409 508.013 132.159 507.013 134.409C 505.763 137.909 503.763 140.659 500.763 142.909C 499.763 143.659 499.513 142.659 499.513 141.909C 499.013 139.409 499.013 136.909 498.513 134.409C 498.263 133.159 498.263 131.909 498.263 130.409C 498.263 127.659 497.263 124.909 499.013 122.409C 499.763 121.659 499.763 119.909 500.013 118.909C 500.263 117.159 499.763 114.909 500.763 113.659C 502.013 111.159 502.013 108.659 502.013 106.159C 502.013 104.409 500.513 103.409 499.013 103.659C 497.513 103.659 494.763 104.159 494.763 105.409C 494.763 107.909 492.513 109.659 492.263 112.159C 492.013 114.159 491.013 116.159 491.013 118.159C 491.263 120.659 489.763 122.659 489.763 124.909C 489.763 130.909 490.263 136.909 491.763 142.659C 492.263 144.159 492.763 146.159 493.513 147.409C 495.263 149.409 497.763 149.659 500.013 150.409C 501.763 150.909 503.763 150.159 504.013 149.909C 506.263 147.909 507.263 146.909 508.763 144.159C 510.513 140.659 512.763 137.409 514.013 133.659L 515.513 129.659C 517.013 127.159 517.513 124.659 518.763 122.159C 519.013 122.159 519.013 121.909 519.013 121.659C 519.263 121.909 519.263 122.159 519.263 122.159C 519.263 124.909 518.763 127.659 519.013 130.159C 519.513 132.409 518.513 134.659 519.263 136.909C 520.013 138.909 518.513 140.159 518.763 141.909C 518.763 145.159 518.513 148.409 519.013 151.409C 519.263 153.159 518.513 154.909 518.763 156.659C 519.263 158.909 519.263 161.159 519.263 163.409C 519.513 166.159 519.263 168.909 519.263 171.909C 519.513 174.409 519.513 176.909 519.263 179.409C 519.013 182.659 520.013 185.659 519.763 188.659C 519.763 191.659 520.763 194.409 520.513 197.159C 520.513 199.409 520.763 201.659 520.263 203.909C 520.263 205.659 521.263 208.159 521.763 210.159C 522.013 211.909 523.263 212.409 524.763 212.409Z"/>
<path id="path11_fill" d="M 542.958 153.409C 543.708 152.909 544.708 152.409 544.708 151.159C 544.958 150.659 544.208 149.909 544.708 149.159C 545.708 147.659 544.708 145.909 545.208 144.659C 545.458 143.659 545.708 142.159 545.458 141.909C 544.708 140.159 545.458 138.409 545.458 137.409C 545.708 135.159 545.708 132.909 545.958 130.909L 547.458 122.909C 548.208 120.159 548.958 117.159 550.208 114.409C 550.708 113.159 550.208 111.409 551.208 110.159C 552.708 108.409 552.958 105.659 553.958 102.909C 554.708 100.909 555.958 99.4095 556.958 97.9095C 557.708 96.4095 559.958 95.4095 561.458 94.1595C 561.958 93.1595 561.458 92.1595 560.958 91.4095C 560.708 90.9095 559.708 89.9095 559.458 90.1595C 558.208 90.6595 556.708 90.9095 555.458 91.9095C 553.708 93.4095 551.958 95.1595 550.708 97.1595C 548.958 99.9095 548.208 102.659 547.458 105.909C 546.458 108.159 545.458 110.159 545.458 112.159C 544.958 114.409 543.958 116.909 543.708 119.159C 543.458 119.659 543.458 119.909 543.458 120.159L 542.958 120.159C 542.708 119.659 542.458 119.159 542.458 118.659C 542.708 116.659 543.458 114.409 542.958 112.409C 542.708 110.159 543.458 108.409 543.708 106.159L 543.708 100.909C 543.958 98.4095 544.208 95.6595 544.708 93.1595L 545.208 88.6595C 545.458 86.1595 543.958 85.4095 542.458 84.6595C 541.208 83.9095 540.208 85.4095 539.708 85.9095C 538.208 87.4095 538.208 89.1595 537.958 90.6595C 537.458 93.9095 537.208 97.1595 536.958 99.9095C 536.708 101.659 536.458 102.909 536.458 104.659C 536.208 105.659 535.708 107.409 536.208 108.409C 536.958 109.659 536.708 111.409 536.208 112.909C 536.208 114.409 537.208 115.909 536.458 117.409C 536.208 119.409 536.208 121.409 536.208 123.659C 536.208 124.659 537.458 125.909 536.708 127.159C 536.208 127.659 536.208 128.159 536.458 128.909C 537.208 129.909 537.208 130.909 536.958 131.909C 536.458 134.159 537.958 136.409 537.708 138.409C 537.458 140.159 537.958 141.909 537.958 143.159C 538.458 146.159 538.708 148.909 539.708 151.659C 540.208 153.409 541.958 154.409 542.958 153.409Z"/>
<path id="path12_fill" d="M 588.285 153.409C 590.285 153.409 592.285 149.659 591.785 146.159C 591.535 143.659 592.285 140.909 591.285 138.159C 591.035 136.409 591.785 134.659 592.035 133.159C 592.035 132.159 591.285 131.659 591.535 130.659C 592.035 129.159 592.535 127.159 592.535 125.159C 592.535 124.909 592.535 117.659 592.285 116.909C 591.785 116.159 592.285 115.159 592.285 114.659C 592.535 112.659 592.285 110.659 593.035 108.659C 594.035 106.159 593.535 102.909 593.535 99.9095C 593.535 96.6595 591.785 93.1595 589.785 92.6595C 587.785 92.4095 585.535 95.1595 585.035 97.6595L 583.285 104.659C 582.285 107.909 580.035 111.159 579.285 114.659C 579.035 115.909 578.285 116.909 578.285 118.409C 578.035 119.409 577.285 120.409 576.785 121.659L 574.535 126.909C 574.035 128.409 573.535 129.159 572.285 131.159C 571.785 132.409 572.285 133.659 570.785 132.659C 570.035 131.909 569.785 130.909 569.785 129.159C 570.035 123.659 569.035 118.159 569.785 112.409C 569.785 111.159 569.785 109.659 570.035 108.159C 570.285 106.659 571.035 104.909 571.035 103.409C 571.285 102.159 571.285 100.409 572.035 99.1595C 572.785 97.4095 571.285 95.1595 569.535 95.4095C 568.535 95.6595 567.035 95.6595 566.535 96.6595C 565.035 98.1595 564.285 100.159 564.285 102.159C 563.535 106.909 561.785 111.409 561.785 116.159C 561.785 118.659 561.785 121.909 562.035 123.159C 562.285 124.659 562.035 127.159 562.785 129.159C 563.285 131.409 563.285 133.159 564.285 134.909C 565.285 136.409 565.785 138.409 567.035 138.909C 570.785 140.409 576.535 136.909 577.535 132.909C 577.785 130.909 579.535 129.659 579.785 127.409C 580.535 124.659 581.785 121.909 583.035 119.409L 584.785 115.909L 584.785 119.159C 584.785 121.409 584.785 123.659 584.285 126.159C 583.785 129.159 584.785 131.909 584.535 135.159C 584.035 137.659 584.535 140.409 584.785 142.909C 585.035 145.409 585.035 148.159 585.035 150.409C 585.035 152.159 587.285 153.409 588.285 153.409Z"/>
<path id="path13_fill" d="M 602.156 168.159C 603.406 168.409 604.406 168.159 605.656 168.159C 606.906 168.159 608.406 168.159 609.406 167.159C 611.656 166.159 613.906 165.159 614.906 163.659C 617.156 161.409 619.656 159.409 621.406 156.159C 622.156 154.159 623.906 152.159 624.406 150.159C 625.156 147.409 624.656 145.159 625.406 142.909C 625.906 139.659 624.656 136.659 624.406 133.659C 624.156 131.409 625.656 131.159 626.156 130.409C 628.656 128.409 629.156 128.159 631.906 126.409C 633.656 125.159 632.906 124.909 634.656 124.159C 637.656 121.659 637.156 117.659 635.906 118.409C 635.406 118.909 633.406 118.909 632.906 119.909C 631.156 122.159 630.656 121.659 629.156 122.909C 627.156 123.909 625.156 124.909 622.906 126.659C 622.656 126.909 621.906 126.909 621.906 126.409C 621.906 124.909 620.906 123.659 620.406 122.909C 619.156 121.409 619.156 118.909 617.906 118.409C 615.656 116.659 614.906 113.909 612.906 112.159C 610.156 110.409 608.406 107.409 605.906 105.659C 602.406 103.409 601.906 101.659 603.656 98.6595C 605.906 94.9095 610.156 94.9095 612.906 98.4095C 613.656 98.9095 614.156 99.4095 615.406 99.1595C 615.906 99.1595 616.906 98.9095 617.156 98.1595C 617.906 96.1595 615.906 92.1595 614.156 91.9095C 612.406 91.6595 611.156 89.9095 609.156 89.6595C 607.656 89.1595 606.156 89.1595 605.156 89.9095C 601.406 90.9095 598.406 92.9095 596.906 96.6595C 595.906 98.9095 595.906 101.159 595.906 102.909C 595.656 104.159 596.906 106.659 598.156 107.909C 600.406 110.159 602.406 112.409 604.406 114.909C 607.156 117.159 610.156 119.659 611.906 122.909C 612.656 124.159 615.656 128.409 615.406 129.909C 615.406 131.159 615.906 130.659 615.406 131.659C 612.656 134.659 609.656 136.659 606.906 139.409C 603.906 142.659 601.156 146.409 599.156 150.409C 597.156 154.159 595.906 158.159 596.406 162.409C 597.156 165.659 599.156 167.409 602.156 168.159ZM 603.406 162.159C 601.906 162.159 602.406 160.409 602.406 159.409C 602.406 155.409 604.656 152.159 606.656 148.659C 608.156 146.409 610.156 144.659 611.656 142.409C 613.406 140.659 614.906 139.409 616.906 137.909C 617.156 137.409 617.656 138.409 617.656 138.659C 617.906 143.909 618.406 149.159 614.406 153.909C 613.406 155.409 612.156 157.409 610.656 158.659C 608.906 161.159 606.656 162.409 603.406 162.159Z"/>
</defs>
</svg>
